STARTFONT 2.3
FONT -FontForge-STIX Two Math-Book-R-Normal--12-120-72-72-P-82-ISO10646-1
SIZE 12 72 72  4
FONTBOUNDINGBOX 49 52 -12 -20
COMMENT "Generated by fontforge, http://fontforge.sourceforge.net"
COMMENT "Copyright 2001-2021 The STIX Fonts Project Authors (https://github.com/stipub/stixfonts)"
STARTPROPERTIES 41
FOUNDRY "FontForge"
FAMILY_NAME "STIX Two Math"
WEIGHT_NAME "Book"
SLANT "R"
SETWIDTH_NAME "Normal"
ADD_STYLE_NAME ""
PIXEL_SIZE 12
POINT_SIZE 120
RESOLUTION_X 72
RESOLUTION_Y 72
SPACING "P"
AVERAGE_WIDTH 82
CHARSET_REGISTRY "ISO10646"
CHARSET_ENCODING "1"
FONTNAME_REGISTRY ""
CHARSET_COLLECTIONS "ASCII ISOLatin1Encoding ISO8859-2 ISO8859-5 ISO8859-7 ISO8859-9 ISO8859-4 ISO10646-1"
BITS_PER_PIXEL 4
FONT_NAME "STIXTwoMath-Regular"
FACE_NAME "STIX Two Math Regular"
COPYRIGHT "Copyright 2001-2021 The STIX Fonts Project Authors (https://github.com/stipub/stixfonts)"
FONT_VERSION "2.12 b168a"
FONT_ASCENT 9
FONT_DESCENT 3
UNDERLINE_POSITION -1
UNDERLINE_THICKNESS 1
X_HEIGHT 5
CAP_HEIGHT 7
RAW_ASCENT 762
RAW_DESCENT 238
NORM_SPACE 3
RELATIVE_WEIGHT 40
RELATIVE_SETWIDTH 50
SUPERSCRIPT_X 0
SUPERSCRIPT_Y 6
SUPERSCRIPT_SIZE 6
SUBSCRIPT_X 0
SUBSCRIPT_Y 3
SUBSCRIPT_SIZE 6
FIGURE_WIDTH 6
AVG_LOWERCASE_WIDTH 59
AVG_UPPERCASE_WIDTH 81
ENDPROPERTIES
CHARS 6611
STARTCHAR space
ENCODING 32
SWIDTH 235 0
DWIDTH 3 0
BBX 1 1 0 0
BITMAP
00
ENDCHAR
STARTCHAR exclam
ENCODING 33
SWIDTH 283 0
DWIDTH 3 0
BBX 2 8 1 0
BITMAP
C3
D4
C3
B2
A0
60
41
D4
ENDCHAR
STARTCHAR quotedbl
ENCODING 34
SWIDTH 334 0
DWIDTH 4 0
BBX 4 3 0 6
BITMAP
6995
6592
3140
ENDCHAR
STARTCHAR numbersign
ENCODING 35
SWIDTH 702 0
DWIDTH 8 0
BBX 8 8 0 0
BITMAP
001A0380
00370650
09BB9CA7
00830A00
00A10A00
39D99D94
00A01900
02804700
ENDCHAR
STARTCHAR dollar
ENCODING 36
SWIDTH 495 0
DWIDTH 6 0
BBX 6 10 0 -1
BITMAP
005300
19A9A1
775363
5C6311
09F910
006DD1
3053B7
815386
5A9980
005300
ENDCHAR
STARTCHAR percent
ENCODING 37
SWIDTH 692 0
DWIDTH 8 0
BBX 8 8 0 0
BITMAP
086967A0
48060B20
66155800
1851B100
00074553
00194906
00827507
02703971
ENDCHAR
STARTCHAR ampersand
ENCODING 38
SWIDTH 736 0
DWIDTH 9 0
BBX 9 8 0 0
BITMAP
0097920000
00E0640000
00AA53A810
058E10B100
3B09826000
9702E90000
8A00AD2030
2CDA37DA10
ENDCHAR
STARTCHAR quotesingle
ENCODING 39
SWIDTH 187 0
DWIDTH 2 0
BBX 2 3 0 6
BITMAP
69
65
31
ENDCHAR
STARTCHAR parenleft
ENCODING 40
SWIDTH 357 0
DWIDTH 4 0
BBX 4 12 0 -3
BITMAP
0016
01A1
0A30
1C00
5900
6800
6900
3A00
0C00
0570
0065
0002
ENDCHAR
STARTCHAR parenright
ENCODING 41
SWIDTH 357 0
DWIDTH 4 0
BBX 4 12 0 -3
BITMAP
4300
0830
00B0
0085
0059
004B
004A
0068
00A2
0390
2800
2000
ENDCHAR
STARTCHAR asterisk
ENCODING 42
SWIDTH 410 0
DWIDTH 5 0
BBX 5 5 0 4
BITMAP
00B000
698A50
07C600
669740
007000
ENDCHAR
STARTCHAR plus
ENCODING 43
SWIDTH 720 0
DWIDTH 9 0
BBX 8 8 0 0
BITMAP
00001000
0002B000
0002B000
0002B000
3DDDEDDB
0002B000
0002B000
0001A000
ENDCHAR
STARTCHAR comma
ENCODING 44
SWIDTH 245 0
DWIDTH 3 0
BBX 3 4 0 -2
BITMAP
1500
3F40
0720
1400
ENDCHAR
STARTCHAR hyphen
ENCODING 45
SWIDTH 315 0
DWIDTH 4 0
BBX 4 1 0 3
BITMAP
6CC3
ENDCHAR
STARTCHAR period
ENCODING 46
SWIDTH 245 0
DWIDTH 3 0
BBX 3 2 0 0
BITMAP
0600
2E10
ENDCHAR
STARTCHAR slash
ENCODING 47
SWIDTH 386 0
DWIDTH 5 0
BBX 5 10 0 -1
BITMAP
000910
000A00
004700
008200
00A000
037000
073000
0A0000
280000
640000
ENDCHAR
STARTCHAR zero
ENCODING 48
SWIDTH 495 0
DWIDTH 6 0
BBX 6 8 0 0
BITMAP
068850
3C00D2
8900A7
A70099
970098
7900A6
3C00D2
068950
ENDCHAR
STARTCHAR one
ENCODING 49
SWIDTH 495 0
DWIDTH 6 0
BBX 6 8 0 0
BITMAP
17C800
018800
007800
007800
007800
007800
007800
06CD61
ENDCHAR
STARTCHAR two
ENCODING 50
SWIDTH 495 0
DWIDTH 6 0
BBX 6 8 0 0
BITMAP
07CD50
4303F1
0000F2
0003C0
000A20
008400
074016
6FEEF4
ENDCHAR
STARTCHAR three
ENCODING 51
SWIDTH 495 0
DWIDTH 6 0
BBX 6 8 0 0
BITMAP
07CD50
1404C0
000750
009D40
0003E2
0000A4
0200B1
2EA830
ENDCHAR
STARTCHAR four
ENCODING 52
SWIDTH 495 0
DWIDTH 6 0
BBX 6 8 0 0
BITMAP
000880
004C80
018880
081880
630880
BDDEEA
000880
000880
ENDCHAR
STARTCHAR five
ENCODING 53
SWIDTH 495 0
DWIDTH 6 0
BBX 6 8 0 0
BITMAP
03EEE1
072110
0BDA30
0138E1
0000B4
000094
0100A0
3E9820
ENDCHAR
STARTCHAR six
ENCODING 54
SWIDTH 495 0
DWIDTH 6 0
BBX 6 8 0 0
BITMAP
004A70
05C100
1E2000
5D8B70
6D11D4
6A0097
2D00A4
068780
ENDCHAR
STARTCHAR seven
ENCODING 55
SWIDTH 495 0
DWIDTH 6 0
BBX 6 8 0 0
BITMAP
2FFFF7
520082
0000B0
000660
000B10
003A00
009500
01D000
ENDCHAR
STARTCHAR eight
ENCODING 56
SWIDTH 495 0
DWIDTH 6 0
BBX 6 8 0 0
BITMAP
076660
3A00D1
2E21C0
06EB10
077DA0
4901E4
6800A4
096680
ENDCHAR
STARTCHAR nine
ENCODING 57
SWIDTH 495 0
DWIDTH 6 0
BBX 6 8 0 0
BITMAP
087950
5A00D1
7800B5
5C11D6
08B8D4
0002E1
001B60
06A500
ENDCHAR
STARTCHAR colon
ENCODING 58
SWIDTH 245 0
DWIDTH 3 0
BBX 3 6 0 0
BITMAP
0600
2E10
0000
0000
0600
2E10
ENDCHAR
STARTCHAR semicolon
ENCODING 59
SWIDTH 245 0
DWIDTH 3 0
BBX 3 8 0 -2
BITMAP
0600
2E10
0000
0000
1500
3F40
0720
1400
ENDCHAR
STARTCHAR less
ENCODING 60
SWIDTH 720 0
DWIDTH 9 0
BBX 7 8 1 -1
BITMAP
00000040
00017C60
017C6000
7C600000
4B920000
003A9200
00003A80
00000010
ENDCHAR
STARTCHAR equal
ENCODING 61
SWIDTH 720 0
DWIDTH 9 0
BBX 8 4 0 1
BITMAP
3CCCCCCB
00000000
00000000
3CCCCCCB
ENDCHAR
STARTCHAR greater
ENCODING 62
SWIDTH 720 0
DWIDTH 9 0
BBX 8 8 0 -1
BITMAP
14000000
19B40000
0029B500
000018C4
00005B92
005B8100
1B810000
11000000
ENDCHAR
STARTCHAR question
ENCODING 63
SWIDTH 411 0
DWIDTH 5 0
BBX 5 8 0 0
BITMAP
287A20
960890
320970
001C10
008300
007000
004000
02E100
ENDCHAR
STARTCHAR at
ENCODING 64
SWIDTH 905 0
DWIDTH 11 0
BBX 11 10 0 -2
BITMAP
000588961000
01A50004B100
094077563A00
1C0850980C00
490D10770A20
3A0F00770B10
1C0E20A71B00
0A46C94DA300
01C600002000
0016A9972000
ENDCHAR
STARTCHAR A
ENCODING 65
SWIDTH 718 0
DWIDTH 9 0
BBX 9 8 0 0
BITMAP
0003B00000
0009F20000
0019A80000
00745E1000
00B00E6000
05B88CD000
0B1002F500
8D3004ED40
ENDCHAR
STARTCHAR B
ENCODING 66
SWIDTH 618 0
DWIDTH 7 0
BBX 7 8 0 0
BITMAP
3CD89A10
06B00A80
06B00B70
06D8C800
06B00960
06B005E0
06B006D0
3CD67A30
ENDCHAR
STARTCHAR C
ENCODING 67
SWIDTH 670 0
DWIDTH 8 0
BBX 8 8 0 0
BITMAP
007A8CF5
0A900095
2F100034
5D000000
5D000000
3F200000
0AB10044
018DBA60
ENDCHAR
STARTCHAR D
ENCODING 68
SWIDTH 730 0
DWIDTH 9 0
BBX 9 8 0 0
BITMAP
4CD89B5000
06B002D600
06B0006E00
06B0003F20
06B0002F10
06B0004E00
06B000B600
3BD7895000
ENDCHAR
STARTCHAR E
ENCODING 69
SWIDTH 626 0
DWIDTH 8 0
BBX 8 8 0 0
BITMAP
3CD88AB0
06B00050
06B00700
06D78C00
06B00600
06B00021
06B00091
3BD88BE0
ENDCHAR
STARTCHAR F
ENCODING 70
SWIDTH 588 0
DWIDTH 7 0
BBX 7 8 0 0
BITMAP
3CD88AC0
06B00050
06B00700
06D79C00
06B00600
06B00000
06B00000
3BE60000
ENDCHAR
STARTCHAR G
ENCODING 71
SWIDTH 720 0
DWIDTH 9 0
BBX 9 8 0 0
BITMAP
00798BF500
0A90009500
2F10003400
5D00000000
5E0005A910
3F1000B600
0B9000A600
019A899200
ENDCHAR
STARTCHAR H
ENCODING 72
SWIDTH 777 0
DWIDTH 9 0
BBX 9 8 0 0
BITMAP
2AF7029F70
04D0003E00
04D0003D00
04E7779D00
04D0003D00
04D0003D00
04D0003D00
2AF702AF70
ENDCHAR
STARTCHAR I
ENCODING 73
SWIDTH 357 0
DWIDTH 4 0
BBX 4 8 0 0
BITMAP
3CE5
06A0
06A0
06A0
06A0
06A0
06A0
3BE5
ENDCHAR
STARTCHAR J
ENCODING 74
SWIDTH 396 0
DWIDTH 5 0
BBX 5 8 0 0
BITMAP
06EC30
00B600
00B600
00B600
00B600
00B600
60B500
B9A100
ENDCHAR
STARTCHAR K
ENCODING 75
SWIDTH 702 0
DWIDTH 8 0
BBX 9 8 0 0
BITMAP
3CE51BD600
06A01A2000
06A1910000
06BA100000
06CC700000
06A1D70000
06B01D7000
3BE51AFA20
ENDCHAR
STARTCHAR L
ENCODING 76
SWIDTH 585 0
DWIDTH 7 0
BBX 7 8 0 0
BITMAP
3CE60000
06B00000
06B00000
06B00000
06B00000
06B00020
06B00190
3BE88C80
ENDCHAR
STARTCHAR M
ENCODING 77
SWIDTH 895 0
DWIDTH 11 0
BBX 11 8 0 0
BITMAP
4DE10004F910
08D6000AE200
087D0028E200
082E4082E200
0819A090E200
0812F740E200
0810BD00E200
4D914707F910
ENDCHAR
STARTCHAR N
ENCODING 78
SWIDTH 742 0
DWIDTH 9 0
BBX 9 8 0 0
BITMAP
4DB001AD30
08E8002800
084F402700
0817E22700
0810AB2700
08101CA700
081002E700
4D91005700
ENDCHAR
STARTCHAR O
ENCODING 79
SWIDTH 738 0
DWIDTH 9 0
BBX 9 8 0 0
BITMAP
00897A7000
0A8000A800
2F10003F10
5E00001F30
5E00001F30
2F10003E00
0A8000A700
0089896000
ENDCHAR
STARTCHAR P
ENCODING 80
SWIDTH 569 0
DWIDTH 7 0
BBX 7 8 0 0
BITMAP
2BD8A900
06B00D60
06B00A70
06B01D20
06D88300
06B00000
06B00000
3BE60000
ENDCHAR
STARTCHAR Q
ENCODING 81
SWIDTH 737 0
DWIDTH 9 0
BBX 9 10 0 -2
BITMAP
00898A7000
099000B800
2F10004E10
5E00001F30
5E00001F30
3F10003E00
0B80009700
0199797000
00007E4000
0000049840
ENDCHAR
STARTCHAR R
ENCODING 82
SWIDTH 659 0
DWIDTH 8 0
BBX 8 8 0 0
BITMAP
3BD79900
06B00C60
06B00A80
06B02D20
06DAC200
06B1C700
07B02E40
3BE506E6
ENDCHAR
STARTCHAR S
ENCODING 83
SWIDTH 504 0
DWIDTH 6 0
BBX 6 8 0 0
BITMAP
0889F3
5A0074
4E3012
08F810
003CD2
4000B8
830088
7E9891
ENDCHAR
STARTCHAR T
ENCODING 84
SWIDTH 603 0
DWIDTH 7 0
BBX 7 8 0 0
BITMAP
BA8FA9E0
800E3080
100E3010
000E3000
000E3000
000E3000
000E3000
017F9200
ENDCHAR
STARTCHAR U
ENCODING 85
SWIDTH 752 0
DWIDTH 9 0
BBX 9 8 0 0
BITMAP
5DD4018E50
0980000B00
0980000A00
0980000A00
0980000A00
0890001900
04E1007500
007CBB7000
ENDCHAR
STARTCHAR V
ENCODING 86
SWIDTH 680 0
DWIDTH 8 0
BBX 10 8 -1 0
BITMAP
1AF9102BB1
00D7000910
006D001900
001E407300
0009A09000
0002F46000
0000BD1000
0000590000
ENDCHAR
STARTCHAR W
ENCODING 87
SWIDTH 944 0
DWIDTH 11 0
BBX 13 8 -1 0
BITMAP
1AF809F901BC20
00D600C5007300
007C008B009000
001F20AF228000
000A845A873000
0004E904D90000
0000D900E70000
00007300820000
ENDCHAR
STARTCHAR X
ENCODING 88
SWIDTH 664 0
DWIDTH 8 0
BBX 8 8 0 0
BITMAP
5DE308D5
03F30920
008B5500
001DA000
001AE200
00919B00
06501E60
7E402DE6
ENDCHAR
STARTCHAR Y
ENCODING 89
SWIDTH 647 0
DWIDTH 8 0
BBX 8 8 0 0
BITMAP
8FA105E6
09B00640
01D51900
005E8200
000B8000
000A7000
000A7000
005DC400
ENDCHAR
STARTCHAR Z
ENCODING 90
SWIDTH 594 0
DWIDTH 7 0
BBX 7 8 0 0
BITMAP
3EA99E90
44006D10
0002E400
000C8000
007D0000
03E30020
0C700080
8F999C80
ENDCHAR
STARTCHAR bracketleft
ENCODING 91
SWIDTH 349 0
DWIDTH 4 0
BBX 3 12 1 -3
BITMAP
A630
E000
E000
E000
E000
E000
E000
E000
E000
E000
E000
E630
ENDCHAR
STARTCHAR backslash
ENCODING 92
SWIDTH 385 0
DWIDTH 5 0
BBX 5 10 0 -1
BITMAP
640000
280000
0A0000
073000
037000
00A000
008200
003600
000A00
000910
ENDCHAR
STARTCHAR bracketright
ENCODING 93
SWIDTH 349 0
DWIDTH 4 0
BBX 4 12 0 -3
BITMAP
26A1
00D2
00D2
00D2
00D2
00D2
00D2
00D2
00D2
00D2
00D2
26E2
ENDCHAR
STARTCHAR asciicircum
ENCODING 94
SWIDTH 480 0
DWIDTH 6 0
BBX 6 5 0 4
BITMAP
004300
00AA00
064830
0A0190
650082
ENDCHAR
STARTCHAR underscore
ENCODING 95
SWIDTH 512 0
DWIDTH 6 0
BBX 7 1 0 -2
BITMAP
BBBBBB20
ENDCHAR
STARTCHAR grave
ENCODING 96
SWIDTH 222 0
DWIDTH 3 0
BBX 3 2 0 6
BITMAP
6A00
0820
ENDCHAR
STARTCHAR a
ENCODING 97
SWIDTH 480 0
DWIDTH 6 0
BBX 6 6 0 0
BITMAP
085B30
390680
004A90
2A3690
790690
3EA7D4
ENDCHAR
STARTCHAR b
ENCODING 98
SWIDTH 522 0
DWIDTH 6 0
BBX 6 9 0 0
BITMAP
7D0000
1E0000
1E0000
1E6CC2
1F30A9
1E005C
1E005B
1E0086
0B9780
ENDCHAR
STARTCHAR c
ENCODING 99
SWIDTH 446 0
DWIDTH 5 0
BBX 5 6 0 0
BITMAP
067B70
4802A0
860000
970000
5D2060
09EC40
ENDCHAR
STARTCHAR d
ENCODING 100
SWIDTH 539 0
DWIDTH 6 0
BBX 7 9 0 0
BITMAP
0003C500
0000B500
0000A500
0688E500
3A00B500
8700A500
8800A500
5C10B500
0AE9BA10
ENDCHAR
STARTCHAR e
ENCODING 101
SWIDTH 464 0
DWIDTH 6 0
BBX 6 6 0 0
BITMAP
078A40
4802E0
8A77B1
870000
4D2051
07ED50
ENDCHAR
STARTCHAR f
ENCODING 102
SWIDTH 307 0
DWIDTH 4 0
BBX 5 9 0 0
BITMAP
028C50
094220
0B3000
5D9500
0C3000
0C3000
0C3000
0C3000
5EA200
ENDCHAR
STARTCHAR g
ENCODING 103
SWIDTH 484 0
DWIDTH 6 0
BBX 6 9 0 -3
BITMAP
097CD6
4B02D0
4C03C0
097820
490000
3EEDC3
450058
A50045
5DB960
ENDCHAR
STARTCHAR h
ENCODING 104
SWIDTH 577 0
DWIDTH 7 0
BBX 7 9 0 0
BITMAP
5D300000
0C300000
0C300000
0C7AD400
0C606A00
0C304C00
0C303C00
0C303C00
4E919E40
ENDCHAR
STARTCHAR i
ENCODING 105
SWIDTH 285 0
DWIDTH 3 0
BBX 3 8 0 0
BITMAP
0C40
0410
4D30
0C30
0C30
0C30
0C30
4E90
ENDCHAR
STARTCHAR j
ENCODING 106
SWIDTH 263 0
DWIDTH 3 0
BBX 5 11 -2 -3
BITMAP
000D40
000410
005D30
000C30
000C30
000C30
000C30
000C30
000C20
040C10
1C9600
ENDCHAR
STARTCHAR k
ENCODING 107
SWIDTH 542 0
DWIDTH 7 0
BBX 7 9 0 0
BITMAP
5D300000
0C300000
0C300000
0C34E700
0C382000
0CC50000
0C7D2000
0C36C100
4E81DB30
ENDCHAR
STARTCHAR l
ENCODING 108
SWIDTH 283 0
DWIDTH 3 0
BBX 4 9 0 0
BITMAP
4D30
0C30
0C30
0C30
0C30
0C30
0C30
0C30
4E91
ENDCHAR
STARTCHAR m
ENCODING 109
SWIDTH 852 0
DWIDTH 10 0
BBX 10 6 0 0
BITMAP
4D69D48C90
0C606C11E0
0C305A00E1
0C305A00E1
0C305A00E1
3E92AD35F7
ENDCHAR
STARTCHAR n
ENCODING 110
SWIDTH 576 0
DWIDTH 7 0
BBX 7 6 0 0
BITMAP
5D6AD400
0C606A00
0C303B00
0C303C00
0C303C00
4E919E40
ENDCHAR
STARTCHAR o
ENCODING 111
SWIDTH 514 0
DWIDTH 6 0
BBX 6 6 0 0
BITMAP
078890
4B0097
88006B
89006B
4C0086
079880
ENDCHAR
STARTCHAR p
ENCODING 112
SWIDTH 537 0
DWIDTH 6 0
BBX 6 9 0 -3
BITMAP
5E5CD4
0D507C
0D202F
0D202E
0D3059
0DA791
0D2000
0D2000
5F9200
ENDCHAR
STARTCHAR q
ENCODING 113
SWIDTH 521 0
DWIDTH 6 0
BBX 6 9 0 -3
BITMAP
0688B4
3A00C4
8700B4
9800B4
6D10C4
0AD9C4
0000B4
0000B4
0005EA
ENDCHAR
STARTCHAR r
ENCODING 114
SWIDTH 380 0
DWIDTH 5 0
BBX 5 6 0 0
BITMAP
4D6D50
0C8310
0C3000
0C3000
0C3000
4E9200
ENDCHAR
STARTCHAR s
ENCODING 115
SWIDTH 395 0
DWIDTH 5 0
BBX 5 6 0 0
BITMAP
297B10
770610
3E9100
12AE20
710B60
797910
ENDCHAR
STARTCHAR t
ENCODING 116
SWIDTH 315 0
DWIDTH 4 0
BBX 4 8 0 0
BITMAP
0310
1C10
4E83
0D10
0D10
0D10
0D21
09C4
ENDCHAR
STARTCHAR u
ENCODING 117
SWIDTH 570 0
DWIDTH 7 0
BBX 7 6 0 0
BITMAP
5E12AA00
0E105A00
0E105A00
0E105A00
0D307A00
06D98C30
ENDCHAR
STARTCHAR v
ENCODING 118
SWIDTH 481 0
DWIDTH 6 0
BBX 7 6 -1 0
BITMAP
1AD21A90
02E10900
00B51800
005B6200
000E9000
00096000
ENDCHAR
STARTCHAR w
ENCODING 119
SWIDTH 749 0
DWIDTH 9 0
BBX 11 6 -1 0
BITMAP
1BD26F608B10
02E10C507200
00B61BA08000
005B53E36000
000E809C1000
0009504A0000
ENDCHAR
STARTCHAR x
ENCODING 120
SWIDTH 479 0
DWIDTH 6 0
BBX 6 6 0 0
BITMAP
6F62D4
098540
01D700
019C00
081980
9B06F6
ENDCHAR
STARTCHAR y
ENCODING 121
SWIDTH 483 0
DWIDTH 6 0
BBX 7 9 -1 -3
BITMAP
1BD21B80
02E10900
00A60800
004C4300
000C9000
00077000
00072000
01190000
0BC20000
ENDCHAR
STARTCHAR z
ENCODING 122
SWIDTH 458 0
DWIDTH 6 0
BBX 6 6 0 0
BITMAP
6B8BD0
511D40
008900
03D100
0D5071
7E89E0
ENDCHAR
STARTCHAR braceleft
ENCODING 123
SWIDTH 327 0
DWIDTH 4 0
BBX 4 12 0 -3
BITMAP
0172
0B20
0C10
0B20
0A30
2A00
6700
0A20
0B30
0C20
0C10
0482
ENDCHAR
STARTCHAR bar
ENCODING 124
SWIDTH 267 0
DWIDTH 3 0
BBX 1 12 1 -3
BITMAP
A0
A0
A0
A0
A0
A0
A0
A0
A0
A0
A0
A0
ENDCHAR
STARTCHAR braceright
ENCODING 125
SWIDTH 327 0
DWIDTH 4 0
BBX 4 12 0 -3
BITMAP
3710
03A0
02B0
04A0
0490
01A2
0085
0390
0490
03B0
02B0
3830
ENDCHAR
STARTCHAR asciitilde
ENCODING 126
SWIDTH 557 0
DWIDTH 7 0
BBX 7 2 0 2
BITMAP
1AB73A20
7417C700
ENDCHAR
STARTCHAR uni00A0
ENCODING 160
SWIDTH 235 0
DWIDTH 3 0
BBX 1 1 0 0
BITMAP
00
ENDCHAR
STARTCHAR exclamdown
ENCODING 161
SWIDTH 282 0
DWIDTH 3 0
BBX 2 9 1 -3
BITMAP
D4
51
50
90
A1
B2
D4
E5
C3
ENDCHAR
STARTCHAR cent
ENCODING 162
SWIDTH 495 0
DWIDTH 6 0
BBX 6 9 0 -1
BITMAP
000700
036C90
1A26B1
582600
6A3500
2E7552
06DD60
004400
002200
ENDCHAR
STARTCHAR sterling
ENCODING 163
SWIDTH 495 0
DWIDTH 6 0
BBX 6 8 0 0
BITMAP
0078C4
03A033
05A000
3AE840
02D000
01C000
58B004
878DC2
ENDCHAR
STARTCHAR currency
ENCODING 164
SWIDTH 617 0
DWIDTH 7 0
BBX 7 7 0 0
BITMAP
33000060
1B9AAB40
09300A10
0A000730
08501B10
2B7A9860
21000030
ENDCHAR
STARTCHAR yen
ENCODING 165
SWIDTH 495 0
DWIDTH 6 0
BBX 6 8 0 0
BITMAP
8A4087
3F3081
09A170
01E910
18CD81
18CC81
008900
03DD40
ENDCHAR
STARTCHAR brokenbar
ENCODING 166
SWIDTH 267 0
DWIDTH 3 0
BBX 1 9 1 0
BITMAP
A0
A0
A0
60
00
60
A0
A0
A0
ENDCHAR
STARTCHAR section
ENCODING 167
SWIDTH 491 0
DWIDTH 6 0
BBX 5 11 0 -3
BITMAP
036650
0B11B0
08A010
01DA00
081B80
0C01C0
0AA080
01BC20
021B60
1B0390
075730
ENDCHAR
STARTCHAR dieresis
ENCODING 168
SWIDTH 392 0
DWIDTH 5 0
BBX 5 2 0 6
BITMAP
780C30
110100
ENDCHAR
STARTCHAR copyright
ENCODING 169
SWIDTH 781 0
DWIDTH 9 0
BBX 9 9 0 0
BITMAP
0026664000
0350003600
0708696440
3458015070
5277000070
344B003070
0708CA1440
0360003600
0026664000
ENDCHAR
STARTCHAR ordfeminine
ENCODING 170
SWIDTH 410 0
DWIDTH 5 0
BBX 5 5 0 3
BITMAP
297800
340D00
065D00
760D00
5C7C60
ENDCHAR
STARTCHAR guillemotleft
ENCODING 171
SWIDTH 517 0
DWIDTH 6 0
BBX 6 6 0 0
BITMAP
001001
028073
3B1860
5A0C30
0561A1
004013
ENDCHAR
STARTCHAR logicalnot
ENCODING 172
SWIDTH 720 0
DWIDTH 9 0
BBX 8 5 0 0
BITMAP
3DDDDDD9
0000003A
0000003A
0000003A
00000014
ENDCHAR
STARTCHAR uni00AD
ENCODING 173
SWIDTH 315 0
DWIDTH 4 0
BBX 4 1 0 3
BITMAP
6CC3
ENDCHAR
STARTCHAR registered
ENCODING 174
SWIDTH 413 0
DWIDTH 5 0
BBX 5 5 0 4
BITMAP
034300
355430
449240
354630
034300
ENDCHAR
STARTCHAR macron
ENCODING 175
SWIDTH 350 0
DWIDTH 4 0
BBX 4 1 0 7
BITMAP
7BBA
ENDCHAR
STARTCHAR degree
ENCODING 176
SWIDTH 409 0
DWIDTH 5 0
BBX 5 4 0 5
BITMAP
079600
460820
460830
079600
ENDCHAR
STARTCHAR plusminus
ENCODING 177
SWIDTH 720 0
DWIDTH 9 0
BBX 8 8 0 0
BITMAP
00017000
0001B000
0001B000
3CCCECCB
0001B000
0001B000
00014000
3CCCCCCB
ENDCHAR
STARTCHAR twosuperior
ENCODING 178
SWIDTH 373 0
DWIDTH 4 0
BBX 5 6 0 3
BITMAP
3AC700
301E00
002B00
009100
082220
8DCD10
ENDCHAR
STARTCHAR threesuperior
ENCODING 179
SWIDTH 374 0
DWIDTH 4 0
BBX 4 6 0 3
BITMAP
3AC6
1057
06C4
002E
000C
7A74
ENDCHAR
STARTCHAR acute
ENCODING 180
SWIDTH 222 0
DWIDTH 3 0
BBX 3 2 0 6
BITMAP
1D20
6400
ENDCHAR
STARTCHAR uni00B5
ENCODING 181
SWIDTH 556 0
DWIDTH 7 0
BBX 7 9 0 -3
BITMAP
1F009600
1D009400
1A00A100
1900D000
2D17A220
4AD85D40
67000000
78000000
43000000
ENDCHAR
STARTCHAR paragraph
ENCODING 182
SWIDTH 605 0
DWIDTH 7 0
BBX 7 10 0 -2
BITMAP
078DAC30
3C0C5700
5A0C5700
3C0C5700
077D5700
000C5700
000C5700
000C5700
000C5700
007D5C30
ENDCHAR
STARTCHAR periodcentered
ENCODING 183
SWIDTH 282 0
DWIDTH 3 0
BBX 2 3 1 2
BITMAP
10
E5
31
ENDCHAR
STARTCHAR cedilla
ENCODING 184
SWIDTH 247 0
DWIDTH 3 0
BBX 3 4 0 -3
BITMAP
0200
1A40
0290
4820
ENDCHAR
STARTCHAR onesuperior
ENCODING 185
SWIDTH 343 0
DWIDTH 4 0
BBX 4 6 0 3
BITMAP
3A80
0580
0580
0580
0580
2AC3
ENDCHAR
STARTCHAR ordmasculine
ENCODING 186
SWIDTH 432 0
DWIDTH 5 0
BBX 5 5 0 3
BITMAP
197920
7704A0
9502C0
7704A0
197920
ENDCHAR
STARTCHAR guillemotright
ENCODING 187
SWIDTH 517 0
DWIDTH 6 0
BBX 6 6 0 0
BITMAP
100100
180640
03A094
01C278
092480
220400
ENDCHAR
STARTCHAR onequarter
ENCODING 188
SWIDTH 861 0
DWIDTH 10 0
BBX 10 10 0 -1
BITMAP
0110000600
2A60004500
0760009000
0760063010
07601801D3
28828207A3
00027062A3
000911CBEC
00460000A3
0030000010
ENDCHAR
STARTCHAR onehalf
ENCODING 189
SWIDTH 889 0
DWIDTH 11 0
BBX 11 9 0 0
BITMAP
011000060000
2A6000550000
076000900000
076007200000
07602718A800
288291100E10
000550003900
001900045130
0062004CBC20
ENDCHAR
STARTCHAR threequarters
ENCODING 190
SWIDTH 861 0
DWIDTH 10 0
BBX 10 10 0 -1
BITMAP
0000000600
1AC5004500
3048009000
05C5063000
210D1801C3
59738206A3
00027062A3
000911CBEC
00460000A3
0030000010
ENDCHAR
STARTCHAR questiondown
ENCODING 191
SWIDTH 411 0
DWIDTH 5 0
BBX 5 9 0 -3
BITMAP
01E200
005000
005000
018000
0A3000
4B0000
870550
880680
1A7820
ENDCHAR
STARTCHAR Agrave
ENCODING 192
SWIDTH 718 0
DWIDTH 9 0
BBX 9 11 0 0
BITMAP
0007300000
0002A20000
0000000000
0003B00000
0009F20000
0019A80000
00745E1000
00B00E6000
05B88CD000
0B1002F500
8D3004ED40
ENDCHAR
STARTCHAR Aacute
ENCODING 193
SWIDTH 718 0
DWIDTH 9 0
BBX 9 11 0 0
BITMAP
0000640000
0007700000
0000000000
0003B00000
0009F20000
0019A80000
00745E1000
00B00E6000
05B88CD000
0B1002F500
8D3004ED40
ENDCHAR
STARTCHAR Acircumflex
ENCODING 194
SWIDTH 718 0
DWIDTH 9 0
BBX 9 11 0 0
BITMAP
0003700000
0029570000
0000000000
0003B00000
0009F20000
0019A80000
00745E1000
00B00E6000
05B88CD000
0B1002F500
8D3004ED40
ENDCHAR
STARTCHAR Atilde
ENCODING 195
SWIDTH 718 0
DWIDTH 9 0
BBX 9 11 0 0
BITMAP
002C752000
00419A0000
0000000000
0003B00000
0009F20000
0019A80000
00745E1000
00B00E6000
05B88CD000
0B1002F500
8D3004ED40
ENDCHAR
STARTCHAR Adieresis
ENCODING 196
SWIDTH 718 0
DWIDTH 9 0
BBX 9 10 0 0
BITMAP
00A70E2000
0021030000
0003B00000
0009F20000
0019A80000
00745E1000
00B00E6000
05B88CD000
0B1002F500
8D3004ED40
ENDCHAR
STARTCHAR Aring
ENCODING 197
SWIDTH 718 0
DWIDTH 9 0
BBX 9 11 0 0
BITMAP
0006820000
0008270000
0006820000
0003B00000
0009F20000
0019A80000
00745E1000
00B00E6000
05B88CD000
0B1002F500
8D3004ED40
ENDCHAR
STARTCHAR AE
ENCODING 198
SWIDTH 894 0
DWIDTH 11 0
BBX 12 8 -1 0
BITMAP
00004DF989E0
000037F10050
0000A1F10510
000471F10810
000C88F88D10
006701F10013
01A001F10063
2BB218F98AF1
ENDCHAR
STARTCHAR Ccedilla
ENCODING 199
SWIDTH 670 0
DWIDTH 8 0
BBX 8 11 0 -3
BITMAP
007A8CF5
0A900095
2F100034
5D000000
5D000000
3F200000
0AB10044
018EDA60
00039200
00005500
00058100
ENDCHAR
STARTCHAR Egrave
ENCODING 200
SWIDTH 626 0
DWIDTH 8 0
BBX 8 11 0 0
BITMAP
00370000
00068000
00000000
3CD88AB0
06B00050
06B00700
06D78C00
06B00600
06B00021
06B00091
3BD88BE0
ENDCHAR
STARTCHAR Eacute
ENCODING 201
SWIDTH 626 0
DWIDTH 8 0
BBX 8 11 0 0
BITMAP
00027100
001A3000
00000000
3CD88AB0
06B00050
06B00700
06D78C00
06B00600
06B00021
06B00091
3BD88BE0
ENDCHAR
STARTCHAR Ecircumflex
ENCODING 202
SWIDTH 626 0
DWIDTH 8 0
BBX 8 11 0 0
BITMAP
00064000
00668300
00000000
3CD88AB0
06B00050
06B00700
06D78C00
06B00600
06B00021
06B00091
3BD88BE0
ENDCHAR
STARTCHAR Edieresis
ENCODING 203
SWIDTH 626 0
DWIDTH 8 0
BBX 8 10 0 0
BITMAP
01F16B00
00301200
3CD88AB0
06B00050
06B00700
06D78C00
06B00600
06B00021
06B00091
3BD88BE0
ENDCHAR
STARTCHAR Igrave
ENCODING 204
SWIDTH 357 0
DWIDTH 4 0
BBX 4 11 0 0
BITMAP
1720
03A1
0000
3CE5
06A0
06A0
06A0
06A0
06A0
06A0
3BE5
ENDCHAR
STARTCHAR Iacute
ENCODING 205
SWIDTH 357 0
DWIDTH 4 0
BBX 4 11 0 0
BITMAP
0073
0860
0000
3CE5
06A0
06A0
06A0
06A0
06A0
06A0
3BE5
ENDCHAR
STARTCHAR Icircumflex
ENCODING 206
SWIDTH 357 0
DWIDTH 4 0
BBX 4 11 0 0
BITMAP
0460
3866
0000
3CE5
06A0
06A0
06A0
06A0
06A0
06A0
3BE5
ENDCHAR
STARTCHAR Idieresis
ENCODING 207
SWIDTH 357 0
DWIDTH 4 0
BBX 5 10 0 0
BITMAP
B62F10
210300
3CE500
06A000
06A000
06A000
06A000
06A000
06A000
3BE500
ENDCHAR
STARTCHAR Eth
ENCODING 208
SWIDTH 737 0
DWIDTH 9 0
BBX 9 8 0 0
BITMAP
3BD88B6000
05C001D700
05C0006E10
5BE9703F30
05C0002F30
05C0004E10
05C000B700
3BD7896000
ENDCHAR
STARTCHAR Ntilde
ENCODING 209
SWIDTH 742 0
DWIDTH 9 0
BBX 9 11 0 0
BITMAP
000AA35000
00316C2000
0000000000
4DB001AD30
08E8002800
084F402700
0817E22700
0810AB2700
08101CA700
081002E700
4D91005700
ENDCHAR
STARTCHAR Ograve
ENCODING 210
SWIDTH 738 0
DWIDTH 9 0
BBX 9 11 0 0
BITMAP
0006400000
0001930000
0000000000
00897A7000
0A8000A800
2F10003F10
5E00001F30
5E00001F30
2F10003E00
0A8000A700
0089896000
ENDCHAR
STARTCHAR Oacute
ENCODING 211
SWIDTH 738 0
DWIDTH 9 0
BBX 9 11 0 0
BITMAP
0000550000
0005810000
0000000000
00897A7000
0A8000A800
2F10003F10
5E00001F30
5E00001F30
2F10003E00
0A8000A700
0089896000
ENDCHAR
STARTCHAR Ocircumflex
ENCODING 212
SWIDTH 738 0
DWIDTH 9 0
BBX 9 11 0 0
BITMAP
0002710000
0019480000
0000000000
00897A7000
0A8000A800
2F10003F10
5E00001F30
5E00001F30
2F10003E00
0A8000A700
0089896000
ENDCHAR
STARTCHAR Otilde
ENCODING 213
SWIDTH 738 0
DWIDTH 9 0
BBX 9 11 0 0
BITMAP
001B934000
00418B1000
0000000000
00897A7000
0A8000A800
2F10003F10
5E00001F30
5E00001F30
2F10003E00
0A8000A700
0089896000
ENDCHAR
STARTCHAR Odieresis
ENCODING 214
SWIDTH 738 0
DWIDTH 9 0
BBX 9 10 0 0
BITMAP
007A0C5000
0012020000
00897A7000
0A8000A800
2F10003F10
5E00001F30
5E00001F30
2F10003E00
0A8000A700
0089896000
ENDCHAR
STARTCHAR multiply
ENCODING 215
SWIDTH 720 0
DWIDTH 9 0
BBX 7 8 1 -1
BITMAP
40000130
A7001B50
0A71C500
00AD5000
01BB8000
1B50A800
B5000A60
10000010
ENDCHAR
STARTCHAR Oslash
ENCODING 216
SWIDTH 737 0
DWIDTH 9 0
BBX 9 8 0 0
BITMAP
00898A8400
0A8002E700
2F10084E10
5E00711F30
6E06301F30
3F55003E10
0BB000A700
0889896000
ENDCHAR
STARTCHAR Ugrave
ENCODING 217
SWIDTH 752 0
DWIDTH 9 0
BBX 9 11 0 0
BITMAP
0003700000
0000670000
0000000000
5DD4018E50
0980000B00
0980000A00
0980000A00
0980000A00
0890001900
04E1007500
007CBB7000
ENDCHAR
STARTCHAR Uacute
ENCODING 218
SWIDTH 752 0
DWIDTH 9 0
BBX 9 11 0 0
BITMAP
0000270000
0001A30000
0000000000
5DD4018E50
0980000B00
0980000A00
0980000A00
0980000A00
0890001900
04E1007500
007CBB7000
ENDCHAR
STARTCHAR Ucircumflex
ENCODING 219
SWIDTH 752 0
DWIDTH 9 0
BBX 9 11 0 0
BITMAP
0000630000
0007583000
0000000000
5DD4018E50
0980000B00
0980000A00
0980000A00
0980000A00
0890001900
04E1007500
007CBB7000
ENDCHAR
STARTCHAR Udieresis
ENCODING 220
SWIDTH 752 0
DWIDTH 9 0
BBX 9 10 0 0
BITMAP
002F17A000
0003012000
5DD4018E50
0980000B00
0980000A00
0980000A00
0980000A00
0890001900
04E1007500
007CBB7000
ENDCHAR
STARTCHAR Yacute
ENCODING 221
SWIDTH 647 0
DWIDTH 8 0
BBX 8 11 0 0
BITMAP
00007200
00085000
00000000
8FA105E6
09B00640
01D51900
005E8200
000B8000
000A7000
000A7000
005DC400
ENDCHAR
STARTCHAR Thorn
ENCODING 222
SWIDTH 572 0
DWIDTH 7 0
BBX 7 8 0 0
BITMAP
3CE60000
06D89500
06A01E40
06A00B70
06A01D30
06D88300
06B00000
3BE60000
ENDCHAR
STARTCHAR germandbls
ENCODING 223
SWIDTH 563 0
DWIDTH 7 0
BBX 7 9 0 0
BITMAP
0286A300
09406900
0B407700
5D477000
0C43B600
0C401E20
0C400C50
0C460C30
5E5D6800
ENDCHAR
STARTCHAR agrave
ENCODING 224
SWIDTH 480 0
DWIDTH 6 0
BBX 6 8 0 0
BITMAP
04C000
007300
085B30
390680
004A90
2A3690
790690
3EA7D4
ENDCHAR
STARTCHAR aacute
ENCODING 225
SWIDTH 480 0
DWIDTH 6 0
BBX 6 8 0 0
BITMAP
004C00
009200
085B30
390680
004A90
2A3690
790690
3EA7D4
ENDCHAR
STARTCHAR acircumflex
ENCODING 226
SWIDTH 480 0
DWIDTH 6 0
BBX 6 8 0 0
BITMAP
01C700
072730
085B30
390680
004A90
2A3690
790690
3EA7D4
ENDCHAR
STARTCHAR atilde
ENCODING 227
SWIDTH 480 0
DWIDTH 6 0
BBX 6 9 0 0
BITMAP
07B460
044C40
000000
085B30
390680
004A90
2A3690
790690
3EA7D4
ENDCHAR
STARTCHAR adieresis
ENCODING 228
SWIDTH 480 0
DWIDTH 6 0
BBX 6 8 0 0
BITMAP
2D1790
010010
085B30
390680
004A90
2A3690
790690
3EA7D4
ENDCHAR
STARTCHAR aring
ENCODING 229
SWIDTH 480 0
DWIDTH 6 0
BBX 6 9 0 0
BITMAP
018600
062900
028600
085B30
390680
004A90
2A3690
790690
3EA7D4
ENDCHAR
STARTCHAR ae
ENCODING 230
SWIDTH 709 0
DWIDTH 9 0
BBX 8 6 0 0
BITMAP
195A77B3
4908903D
004BB77B
2A379000
8907D206
4EA48EC4
ENDCHAR
STARTCHAR ccedilla
ENCODING 231
SWIDTH 446 0
DWIDTH 5 0
BBX 5 9 0 -3
BITMAP
067B70
3802A0
860000
870000
5D1060
09EC40
006000
006800
006A10
ENDCHAR
STARTCHAR egrave
ENCODING 232
SWIDTH 464 0
DWIDTH 6 0
BBX 6 8 0 0
BITMAP
03D000
005500
078A40
4802E0
8A77B1
870000
4D2051
07ED50
ENDCHAR
STARTCHAR eacute
ENCODING 233
SWIDTH 464 0
DWIDTH 6 0
BBX 6 8 0 0
BITMAP
002D10
007300
078A40
4802E0
8A77B1
870000
4D2051
07ED50
ENDCHAR
STARTCHAR ecircumflex
ENCODING 234
SWIDTH 464 0
DWIDTH 6 0
BBX 6 8 0 0
BITMAP
00B900
063540
078A40
4802E0
8A77B1
870000
4D2051
07ED50
ENDCHAR
STARTCHAR edieresis
ENCODING 235
SWIDTH 464 0
DWIDTH 6 0
BBX 6 8 0 0
BITMAP
0D25B0
010010
078A40
4802E0
8A77B1
870000
4D2051
07ED50
ENDCHAR
STARTCHAR igrave
ENCODING 236
SWIDTH 285 0
DWIDTH 3 0
BBX 3 8 0 0
BITMAP
8800
0A00
4D30
0C30
0C30
0C30
0C30
4E90
ENDCHAR
STARTCHAR iacute
ENCODING 237
SWIDTH 285 0
DWIDTH 3 0
BBX 3 8 0 0
BITMAP
0880
0A00
4D30
0C30
0C30
0C30
0C30
4E90
ENDCHAR
STARTCHAR icircumflex
ENCODING 238
SWIDTH 285 0
DWIDTH 3 0
BBX 3 9 0 0
BITMAP
2E20
8380
3030
4D30
0C30
0C30
0C30
0C30
4E90
ENDCHAR
STARTCHAR idieresis
ENCODING 239
SWIDTH 285 0
DWIDTH 3 0
BBX 5 8 -1 0
BITMAP
3D0C30
140410
04D300
00C300
00C300
00C300
00C300
04E900
ENDCHAR
STARTCHAR eth
ENCODING 240
SWIDTH 532 0
DWIDTH 6 0
BBX 6 9 0 0
BITMAP
069B45
0038D0
0010A5
0787B9
4B008B
88006C
89006A
4C00A5
079780
ENDCHAR
STARTCHAR ntilde
ENCODING 241
SWIDTH 576 0
DWIDTH 7 0
BBX 7 9 0 0
BITMAP
009A3500
0226C200
00000000
5D6AD400
0C606A00
0C303B00
0C303C00
0C303C00
4E919E40
ENDCHAR
STARTCHAR ograve
ENCODING 242
SWIDTH 514 0
DWIDTH 6 0
BBX 6 8 0 0
BITMAP
01D200
003800
078890
4B0097
88006B
89006B
4C0086
079880
ENDCHAR
STARTCHAR oacute
ENCODING 243
SWIDTH 514 0
DWIDTH 6 0
BBX 6 8 0 0
BITMAP
000D30
005600
078890
4B0097
88006B
89006B
4C0086
079880
ENDCHAR
STARTCHAR ocircumflex
ENCODING 244
SWIDTH 514 0
DWIDTH 6 0
BBX 6 8 0 0
BITMAP
009B00
046370
078890
4B0097
88006B
89006B
4C0086
079880
ENDCHAR
STARTCHAR otilde
ENCODING 245
SWIDTH 514 0
DWIDTH 6 0
BBX 6 9 0 0
BITMAP
03C660
051A80
000000
078890
4B0097
88006B
89006B
4C0086
079880
ENDCHAR
STARTCHAR odieresis
ENCODING 246
SWIDTH 514 0
DWIDTH 6 0
BBX 6 8 0 0
BITMAP
0A52D0
010010
078890
4B0097
88006B
89006B
4C0086
079880
ENDCHAR
STARTCHAR divide
ENCODING 247
SWIDTH 720 0
DWIDTH 9 0
BBX 8 7 0 0
BITMAP
0004D000
00002000
00000000
3DDDDDDB
00000000
00013000
0003C000
ENDCHAR
STARTCHAR oslash
ENCODING 248
SWIDTH 514 0
DWIDTH 6 0
BBX 6 6 0 0
BITMAP
0799C2
4B04C6
88176A
89806B
4E2087
499880
ENDCHAR
STARTCHAR ugrave
ENCODING 249
SWIDTH 570 0
DWIDTH 7 0
BBX 7 8 0 0
BITMAP
00B50000
00190000
5E12AA00
0E105A00
0E105A00
0E105A00
0D307A00
06D98C30
ENDCHAR
STARTCHAR uacute
ENCODING 250
SWIDTH 570 0
DWIDTH 7 0
BBX 7 8 0 0
BITMAP
000B5000
00280000
5E12AA00
0E105A00
0E105A00
0E105A00
0D307A00
06D98C30
ENDCHAR
STARTCHAR ucircumflex
ENCODING 251
SWIDTH 570 0
DWIDTH 7 0
BBX 7 8 0 0
BITMAP
006D1000
02818000
5E12AA00
0E105A00
0E105A00
0E105A00
0D307A00
06D98C30
ENDCHAR
STARTCHAR udieresis
ENCODING 252
SWIDTH 570 0
DWIDTH 7 0
BBX 7 8 0 0
BITMAP
0880D200
01101000
5E12AA00
0E105A00
0E105A00
0E105A00
0D307A00
06D98C30
ENDCHAR
STARTCHAR yacute
ENCODING 253
SWIDTH 483 0
DWIDTH 6 0
BBX 7 11 -1 -3
BITMAP
0000D300
00056000
1BD21B80
02E10900
00A60800
004C4300
000C9000
00077000
00072000
01190000
0BC20000
ENDCHAR
STARTCHAR thorn
ENCODING 254
SWIDTH 524 0
DWIDTH 6 0
BBX 6 12 0 -3
BITMAP
7E0000
1F0000
1F0000
1F5CD2
1F309A
1F004D
1F004C
1F0077
1F9780
1F0000
1F0000
7F8100
ENDCHAR
STARTCHAR ydieresis
ENCODING 255
SWIDTH 483 0
DWIDTH 6 0
BBX 7 11 -1 -3
BITMAP
00A52D00
00100100
1BD21B80
02E10900
00A60800
004C4300
000C9000
00077000
00072000
01190000
0BC20000
ENDCHAR
STARTCHAR Amacron
ENCODING 256
SWIDTH 718 0
DWIDTH 9 0
BBX 9 10 0 0
BITMAP
005AAA0000
0000000000
0003B00000
0009F20000
0019A80000
00745E1000
00B00E6000
05B88CD000
0B1002F500
8D3004ED40
ENDCHAR
STARTCHAR amacron
ENCODING 257
SWIDTH 480 0
DWIDTH 6 0
BBX 6 8 0 0
BITMAP
0BBB60
000000
085B30
390680
004A90
2A3690
790690
3EA7D4
ENDCHAR
STARTCHAR Abreve
ENCODING 258
SWIDTH 718 0
DWIDTH 9 0
BBX 9 12 0 0
BITMAP
0010010000
0062080000
001BC50000
0000000000
0003B00000
0009F20000
0019A80000
00745E1000
00B00E6000
05B88CD000
0B1002F500
8D3004ED40
ENDCHAR
STARTCHAR abreve
ENCODING 259
SWIDTH 480 0
DWIDTH 6 0
BBX 6 9 0 0
BITMAP
010010
080260
05BA10
085B30
390680
004A90
2A3690
790690
3EA7D4
ENDCHAR
STARTCHAR Aogonek
ENCODING 260
SWIDTH 719 0
DWIDTH 9 0
BBX 9 11 0 -3
BITMAP
0003B00000
0009E20000
0019A90000
00745E1000
00B00E7000
04B88CD000
0B1003F500
7D3000ED40
0000240000
0000A10000
00009A4000
ENDCHAR
STARTCHAR aogonek
ENCODING 261
SWIDTH 480 0
DWIDTH 6 0
BBX 6 9 0 -3
BITMAP
085B30
390680
004A90
2A3690
790690
3EA7E5
000370
000B10
0008A5
ENDCHAR
STARTCHAR Cacute
ENCODING 262
SWIDTH 670 0
DWIDTH 8 0
BBX 8 11 0 0
BITMAP
00004600
00039100
00000000
007A8CF5
0A900095
2F100034
5D000000
5D000000
3F200000
0AB10044
018DBA60
ENDCHAR
STARTCHAR cacute
ENCODING 263
SWIDTH 446 0
DWIDTH 5 0
BBX 5 8 0 0
BITMAP
002D10
007300
067B70
4802A0
860000
970000
5D2060
09EC40
ENDCHAR
STARTCHAR Ccircumflex
ENCODING 264
SWIDTH 670 0
DWIDTH 8 0
BBX 8 11 0 0
BITMAP
00017100
00094910
00000000
007A8CF5
0A900095
2F100034
5D000000
5D000000
3F200000
0AB10044
018DBA60
ENDCHAR
STARTCHAR ccircumflex
ENCODING 265
SWIDTH 446 0
DWIDTH 5 0
BBX 5 8 0 0
BITMAP
00B900
063540
067B70
4802A0
860000
970000
5D2060
09EC40
ENDCHAR
STARTCHAR Cdotaccent
ENCODING 266
SWIDTH 670 0
DWIDTH 8 0
BBX 8 10 0 0
BITMAP
0001F200
00003000
007A8CF5
0A900095
2F100034
5D000000
5D000000
3F200000
0AB10044
018DBA60
ENDCHAR
STARTCHAR cdotaccent
ENCODING 267
SWIDTH 446 0
DWIDTH 5 0
BBX 5 8 0 0
BITMAP
009600
001000
067B70
4802A0
860000
970000
5D2060
09EC40
ENDCHAR
STARTCHAR Ccaron
ENCODING 268
SWIDTH 670 0
DWIDTH 8 0
BBX 8 11 0 0
BITMAP
00140410
0005C600
00000000
007A8CF5
0A900095
2F100034
5D000000
5D000000
3F200000
0AB10044
018DBA60
ENDCHAR
STARTCHAR ccaron
ENCODING 269
SWIDTH 446 0
DWIDTH 5 0
BBX 5 9 0 0
BITMAP
063540
00B900
000000
067B70
4802A0
860000
970000
5D2060
09EC40
ENDCHAR
STARTCHAR Dcaron
ENCODING 270
SWIDTH 730 0
DWIDTH 9 0
BBX 9 11 0 0
BITMAP
0032040000
000AB20000
0000000000
4CD89B5000
06B002D600
06B0006E00
06B0003F20
06B0002F10
06B0004E00
06B000B600
3BD7895000
ENDCHAR
STARTCHAR dcaron
ENCODING 271
SWIDTH 626 0
DWIDTH 8 0
BBX 8 9 0 0
BITMAP
0003C5B3
0000B5B0
0000A530
0688E500
3A00B500
8700A500
8800A500
5C10B500
0AE9BA10
ENDCHAR
STARTCHAR Dcroat
ENCODING 272
SWIDTH 733 0
DWIDTH 9 0
BBX 9 8 0 0
BITMAP
3BD88B5000
06B002E600
06B0007E00
5BD9704F20
06B0003F20
06B0005E00
06B000C600
3CD78A5000
ENDCHAR
STARTCHAR dcroat
ENCODING 273
SWIDTH 540 0
DWIDTH 6 0
BBX 7 9 0 0
BITMAP
0004C500
0001C500
0048DA10
0698E500
3A00B500
8700A500
8800A500
5C10B500
0AE9BA10
ENDCHAR
STARTCHAR Emacron
ENCODING 274
SWIDTH 626 0
DWIDTH 8 0
BBX 8 10 0 0
BITMAP
009AA600
00000000
3CD88AB0
06B00050
06B00700
06D78C00
06B00600
06B00021
06B00091
3BD88BE0
ENDCHAR
STARTCHAR emacron
ENCODING 275
SWIDTH 464 0
DWIDTH 6 0
BBX 6 8 0 0
BITMAP
0ABB70
000000
078A40
4802E0
8A77B1
870000
4D2051
07ED50
ENDCHAR
STARTCHAR Ebreve
ENCODING 276
SWIDTH 626 0
DWIDTH 8 0
BBX 8 12 0 0
BITMAP
00100100
00802600
004CB100
00000000
3CD88AB0
06B00050
06B00700
06D78C00
06B00600
06B00021
06B00091
3BD88BE0
ENDCHAR
STARTCHAR ebreve
ENCODING 277
SWIDTH 464 0
DWIDTH 6 0
BBX 6 9 0 0
BITMAP
010010
080170
04BA10
078A40
4802E0
8A77B1
870000
4D2051
07ED50
ENDCHAR
STARTCHAR Edotaccent
ENCODING 278
SWIDTH 626 0
DWIDTH 8 0
BBX 8 10 0 0
BITMAP
000B6000
00021000
3CD88AB0
06B00050
06B00700
06D78C00
06B00600
06B00021
06B00091
3BD88BE0
ENDCHAR
STARTCHAR edotaccent
ENCODING 279
SWIDTH 464 0
DWIDTH 6 0
BBX 6 8 0 0
BITMAP
009600
001000
078A40
4802E0
8A77B1
870000
4D2051
07ED50
ENDCHAR
STARTCHAR Eogonek
ENCODING 280
SWIDTH 625 0
DWIDTH 8 0
BBX 8 11 0 -3
BITMAP
3CD88AB0
06A00050
06A00600
06A00800
06D78A00
06A00011
06A00081
3BD88AD0
00000810
00005600
00004C70
ENDCHAR
STARTCHAR eogonek
ENCODING 281
SWIDTH 464 0
DWIDTH 6 0
BBX 6 9 0 -3
BITMAP
078A40
4802E0
8A77B1
870000
4D2051
07EE70
005600
00C000
00A940
ENDCHAR
STARTCHAR Ecaron
ENCODING 282
SWIDTH 626 0
DWIDTH 8 0
BBX 8 11 0 0
BITMAP
00402300
002BA000
00000000
3CD88AB0
06B00050
06B00700
06D78C00
06B00600
06B00021
06B00091
3BD88BE0
ENDCHAR
STARTCHAR ecaron
ENCODING 283
SWIDTH 464 0
DWIDTH 6 0
BBX 6 9 0 0
BITMAP
063540
00B900
000000
078A40
4802E0
8A77B1
870000
4D2051
07ED50
ENDCHAR
STARTCHAR Gcircumflex
ENCODING 284
SWIDTH 720 0
DWIDTH 9 0
BBX 9 11 0 0
BITMAP
0001710000
0019491000
0000000000
00798BF500
0A90009500
2F10003400
5D00000000
5E0005A910
3F1000B600
0B9000A600
019A899200
ENDCHAR
STARTCHAR gcircumflex
ENCODING 285
SWIDTH 484 0
DWIDTH 6 0
BBX 6 11 0 -3
BITMAP
00B900
063540
097CD6
4B02D0
4C03C0
097820
490000
3EEDC3
450058
A50045
5DB960
ENDCHAR
STARTCHAR Gbreve
ENCODING 286
SWIDTH 720 0
DWIDTH 9 0
BBX 9 11 0 0
BITMAP
0026062000
0008C80000
0000000000
00798BF500
0A90009500
2F10003400
5D00000000
5E0005A910
3F1000B600
0B9000A600
019A899200
ENDCHAR
STARTCHAR gbreve
ENCODING 287
SWIDTH 484 0
DWIDTH 6 0
BBX 6 12 0 -3
BITMAP
010010
080170
04BA10
097CD6
4B02D0
4C03C0
097820
490000
3EEDC3
450058
A50045
5DB960
ENDCHAR
STARTCHAR Gdotaccent
ENCODING 288
SWIDTH 720 0
DWIDTH 9 0
BBX 9 10 0 0
BITMAP
0001F10000
0000300000
00798BF500
0A90009500
2F10003400
5D00000000
5E0005A910
3F1000B600
0B9000A600
019A899200
ENDCHAR
STARTCHAR gdotaccent
ENCODING 289
SWIDTH 484 0
DWIDTH 6 0
BBX 6 11 0 -3
BITMAP
009600
001000
097CD6
4B02D0
4C03C0
097820
490000
3EEDC3
450058
A50045
5DB960
ENDCHAR
STARTCHAR Gcommaaccent
ENCODING 290
SWIDTH 720 0
DWIDTH 9 0
BBX 9 12 0 -4
BITMAP
00798BF500
0A90009500
2F10003400
5D00000000
5E0005A910
3F1000B600
0B9000A600
019A899200
0000000000
0005D00000
0000910000
0002300000
ENDCHAR
STARTCHAR gcommaaccent
ENCODING 291
SWIDTH 484 0
DWIDTH 6 0
BBX 6 13 0 -3
BITMAP
000200
008100
00C700
001000
097CD6
4B02D0
4C03C0
097820
490000
3EEDC3
450058
A50045
5DB960
ENDCHAR
STARTCHAR Hcircumflex
ENCODING 292
SWIDTH 777 0
DWIDTH 9 0
BBX 9 11 0 0
BITMAP
0000730000
0008592000
0000000000
3CE503BE60
06B0006B00
06B0006B00
06D777AB00
06B0006B00
06B0006B00
06B0006B00
3BE503BE50
ENDCHAR
STARTCHAR hcircumflex
ENCODING 293
SWIDTH 577 0
DWIDTH 7 0
BBX 7 11 0 0
BITMAP
00370000
02957000
5D300000
0C300000
0C300000
0C7AD400
0C606A00
0C304C00
0C303C00
0C303C00
4E919E40
ENDCHAR
STARTCHAR Hbar
ENCODING 294
SWIDTH 788 0
DWIDTH 9 0
BBX 9 8 0 0
BITMAP
3BE603BE60
05C0005C00
4AD777AD70
05D777AC00
05C0004C00
05C0004C00
05C0005C00
3BE603BE60
ENDCHAR
STARTCHAR hbar
ENCODING 295
SWIDTH 579 0
DWIDTH 7 0
BBX 7 9 0 0
BITMAP
6D300000
0D300000
6D981000
0C6AD400
0C606B00
0C303C00
0C303C00
0C303C00
3E919E40
ENDCHAR
STARTCHAR Itilde
ENCODING 296
SWIDTH 357 0
DWIDTH 4 0
BBX 5 11 0 0
BITMAP
3C6610
51A800
000000
3CE500
06A000
06A000
06A000
06A000
06A000
06A000
3BE500
ENDCHAR
STARTCHAR itilde
ENCODING 297
SWIDTH 285 0
DWIDTH 3 0
BBX 4 8 0 0
BITMAP
ACB2
0000
4D30
0C30
0C30
0C30
0C30
4E90
ENDCHAR
STARTCHAR Imacron
ENCODING 298
SWIDTH 357 0
DWIDTH 4 0
BBX 4 10 0 0
BITMAP
6AA9
0000
3CE5
06A0
06A0
06A0
06A0
06A0
06A0
3BE5
ENDCHAR
STARTCHAR imacron
ENCODING 299
SWIDTH 285 0
DWIDTH 3 0
BBX 4 8 0 0
BITMAP
AAA1
0000
4D30
0C30
0C30
0C30
0C30
4E90
ENDCHAR
STARTCHAR Ibreve
ENCODING 300
SWIDTH 357 0
DWIDTH 4 0
BBX 4 12 0 0
BITMAP
1001
7108
2BC4
0000
3CE5
06A0
06A0
06A0
06A0
06A0
06A0
3BE5
ENDCHAR
STARTCHAR ibreve
ENCODING 301
SWIDTH 285 0
DWIDTH 3 0
BBX 3 9 0 0
BITMAP
5060
8080
5B40
4D30
0C30
0C30
0C30
0C30
4E90
ENDCHAR
STARTCHAR Iogonek
ENCODING 302
SWIDTH 357 0
DWIDTH 4 0
BBX 4 11 0 -3
BITMAP
3CE5
06A0
06A0
06A0
06A0
06A0
06B0
3BE5
0540
0C00
0B93
ENDCHAR
STARTCHAR iogonek
ENCODING 303
SWIDTH 285 0
DWIDTH 3 0
BBX 3 12 0 -3
BITMAP
0C40
0410
0000
4D30
0C30
0C30
0C30
0C30
4E90
0800
6600
4C70
ENDCHAR
STARTCHAR Idotaccent
ENCODING 304
SWIDTH 357 0
DWIDTH 4 0
BBX 4 10 0 0
BITMAP
06B0
0120
3CE5
06A0
06A0
06A0
06A0
06A0
06A0
3BE5
ENDCHAR
STARTCHAR dotlessi
ENCODING 305
SWIDTH 285 0
DWIDTH 3 0
BBX 3 6 0 0
BITMAP
4D30
0C30
0C30
0C30
0C30
4E90
ENDCHAR
STARTCHAR IJ
ENCODING 306
SWIDTH 753 0
DWIDTH 9 0
BBX 9 8 0 0
BITMAP
3CE504CE50
06A0007A00
06A0006A00
06A0006A00
06A0006A00
06A0006A00
06A0426900
3BE57B9300
ENDCHAR
STARTCHAR ij
ENCODING 307
SWIDTH 548 0
DWIDTH 7 0
BBX 6 11 0 -3
BITMAP
0C407A
041023
4D32A9
0C3069
0C3069
0C3069
0C3069
4E9069
000069
003166
007B81
ENDCHAR
STARTCHAR Jcircumflex
ENCODING 308
SWIDTH 396 0
DWIDTH 5 0
BBX 5 11 0 0
BITMAP
006400
066830
000000
06EC30
00B600
00B600
00B600
00B600
00B600
60B500
B9A100
ENDCHAR
STARTCHAR jcircumflex
ENCODING 309
SWIDTH 263 0
DWIDTH 3 0
BBX 6 11 -2 -3
BITMAP
003E40
008181
005D30
000C30
000C30
000C30
000C30
000C30
000C20
040C10
1C9600
ENDCHAR
STARTCHAR Kcommaaccent
ENCODING 310
SWIDTH 702 0
DWIDTH 8 0
BBX 9 12 0 -4
BITMAP
3CE51BD600
06A01A2000
06A1910000
06BA100000
06CC700000
06A1D70000
06B01D7000
3BE51AFA20
0000000000
0006D00000
0000A00000
0003300000
ENDCHAR
STARTCHAR kcommaaccent
ENCODING 311
SWIDTH 542 0
DWIDTH 7 0
BBX 7 13 0 -4
BITMAP
5D300000
0C300000
0C300000
0C34E700
0C382000
0CC50000
0C7D2000
0C36C100
4E81DB30
00000000
005D0000
000A0000
00230000
ENDCHAR
STARTCHAR kgreenlandic
ENCODING 312
SWIDTH 542 0
DWIDTH 7 0
BBX 7 6 0 0
BITMAP
4D33E900
0C365000
0C960000
0C9C1000
0C37C100
3E91DB30
ENDCHAR
STARTCHAR Lacute
ENCODING 313
SWIDTH 585 0
DWIDTH 7 0
BBX 7 11 0 0
BITMAP
00370000
02A20000
00000000
3CE60000
06B00000
06B00000
06B00000
06B00000
06B00020
06B00190
3BE88C80
ENDCHAR
STARTCHAR lacute
ENCODING 314
SWIDTH 283 0
DWIDTH 3 0
BBX 4 11 0 0
BITMAP
0271
1A30
4D30
0C30
0C30
0C30
0C30
0C30
0C30
0C30
4E91
ENDCHAR
STARTCHAR Lcommaaccent
ENCODING 315
SWIDTH 585 0
DWIDTH 7 0
BBX 7 12 0 -4
BITMAP
3CE60000
06B00000
06B00000
06B00000
06B00000
06B00020
06B00190
3BE88C80
00000000
002E2000
00073000
00140000
ENDCHAR
STARTCHAR lcommaaccent
ENCODING 316
SWIDTH 283 0
DWIDTH 3 0
BBX 4 13 0 -4
BITMAP
4D30
0C30
0C30
0C30
0C30
0C30
0C30
0C30
4E91
0000
0D50
0560
0500
ENDCHAR
STARTCHAR Lcaron
ENCODING 317
SWIDTH 585 0
DWIDTH 7 0
BBX 7 8 0 0
BITMAP
3CE60D10
06B00B00
06B00300
06B00000
06B00000
06B00020
06B00190
3BE88C80
ENDCHAR
STARTCHAR lcaron
ENCODING 318
SWIDTH 366 0
DWIDTH 4 0
BBX 5 9 0 0
BITMAP
4D3D10
0C3B00
0C3300
0C3000
0C3000
0C3000
0C3000
0C3000
4E9100
ENDCHAR
STARTCHAR Ldot
ENCODING 319
SWIDTH 605 0
DWIDTH 7 0
BBX 7 8 0 0
BITMAP
3CE60000
06B00000
06B00000
06B00B50
06B00100
06B00020
06B00190
3BE88C80
ENDCHAR
STARTCHAR ldot
ENCODING 320
SWIDTH 357 0
DWIDTH 4 0
BBX 5 9 0 0
BITMAP
4D3000
0C3000
0C3000
0C3000
0C3A50
0C3100
0C3000
0C3000
4E9100
ENDCHAR
STARTCHAR Lslash
ENCODING 321
SWIDTH 590 0
DWIDTH 7 0
BBX 7 8 0 0
BITMAP
2BE70000
05C00000
05C16000
05D60000
3AC00000
15C00020
05C00090
2BE88C90
ENDCHAR
STARTCHAR lslash
ENCODING 322
SWIDTH 290 0
DWIDTH 3 0
BBX 4 9 0 0
BITMAP
4D40
0B40
0B40
0BA2
2D40
5B40
0B40
0B40
3E91
ENDCHAR
STARTCHAR Nacute
ENCODING 323
SWIDTH 742 0
DWIDTH 9 0
BBX 9 11 0 0
BITMAP
0000460000
0003910000
0000000000
4DB001AD30
08E8002800
084F402700
0817E22700
0810AB2700
08101CA700
081002E700
4D91005700
ENDCHAR
STARTCHAR nacute
ENCODING 324
SWIDTH 576 0
DWIDTH 7 0
BBX 7 8 0 0
BITMAP
0006A000
00091000
5D6AD400
0C606A00
0C303B00
0C303C00
0C303C00
4E919E40
ENDCHAR
STARTCHAR Ncommaaccent
ENCODING 325
SWIDTH 742 0
DWIDTH 9 0
BBX 9 12 0 -4
BITMAP
4DB001AD30
08E8002800
084F402700
0817E22700
0810AB2700
08101CA700
081002E700
4D91005700
0000000000
0005D00000
0000910000
0002300000
ENDCHAR
STARTCHAR ncommaaccent
ENCODING 326
SWIDTH 576 0
DWIDTH 7 0
BBX 7 10 0 -4
BITMAP
5D6AD400
0C606A00
0C303B00
0C303C00
0C303C00
4E919E40
00000000
004E1000
00091000
00230000
ENDCHAR
STARTCHAR Ncaron
ENCODING 327
SWIDTH 742 0
DWIDTH 9 0
BBX 9 11 0 0
BITMAP
0004041000
0005C60000
0000000000
4DB001AD30
08E8002800
084F402700
0817E22700
0810AB2700
08101CA700
081002E700
4D91005700
ENDCHAR
STARTCHAR ncaron
ENCODING 328
SWIDTH 576 0
DWIDTH 7 0
BBX 7 9 0 0
BITMAP
00818100
002D5000
00000000
5D6AD400
0C606A00
0C303B00
0C303C00
0C303C00
4E919E40
ENDCHAR
STARTCHAR napostrophe
ENCODING 329
SWIDTH 576 0
DWIDTH 7 0
BBX 9 9 -2 0
BITMAP
AA00000000
3A00000000
4400000000
005D6AD400
000C606A00
000C303B00
000C303C00
000C303C00
004E919E40
ENDCHAR
STARTCHAR Eng
ENCODING 330
SWIDTH 742 0
DWIDTH 9 0
BBX 9 11 0 -3
BITMAP
4DB001AD30
08E7002800
085F402700
0817D12700
0810BB2700
08101E9700
081004F700
4D91007700
0000002700
0000514500
0000AB9000
ENDCHAR
STARTCHAR eng
ENCODING 331
SWIDTH 559 0
DWIDTH 7 0
BBX 6 9 0 -3
BITMAP
5D6AD4
0C606A
0C303B
0C303C
0C303C
4E913C
00003B
002248
005C92
ENDCHAR
STARTCHAR Omacron
ENCODING 332
SWIDTH 738 0
DWIDTH 9 0
BBX 9 10 0 0
BITMAP
003AAA2000
0000000000
00897A7000
0A8000A800
2F10003F10
5E00001F30
5E00001F30
2F10003E00
0A8000A700
0089896000
ENDCHAR
STARTCHAR omacron
ENCODING 333
SWIDTH 514 0
DWIDTH 6 0
BBX 6 8 0 0
BITMAP
07BBA0
000000
078890
4B0097
88006B
89006B
4C0086
079880
ENDCHAR
STARTCHAR Obreve
ENCODING 334
SWIDTH 738 0
DWIDTH 9 0
BBX 9 12 0 0
BITMAP
0010000000
0045071000
0009C70000
0000000000
00897A7000
0A8000A800
2F10003F10
5E00001F30
5E00001F30
2F10003E00
0A8000A700
0089896000
ENDCHAR
STARTCHAR obreve
ENCODING 335
SWIDTH 514 0
DWIDTH 6 0
BBX 6 9 0 0
BITMAP
010010
071070
02BB30
078890
4B0097
88006B
89006B
4C0086
079880
ENDCHAR
STARTCHAR Ohungarumlaut
ENCODING 336
SWIDTH 738 0
DWIDTH 9 0
BBX 9 11 0 0
BITMAP
0000848000
0007592000
0000000000
00897A7000
0A8000A800
2F10003F10
5E00001F30
5E00001F30
2F10003E00
0A8000A700
0089896000
ENDCHAR
STARTCHAR ohungarumlaut
ENCODING 337
SWIDTH 514 0
DWIDTH 6 0
BBX 6 8 0 0
BITMAP
0069B3
00A470
078890
4B0097
88006B
89006B
4C0086
079880
ENDCHAR
STARTCHAR OE
ENCODING 338
SWIDTH 945 0
DWIDTH 11 0
BBX 11 8 0 0
BITMAP
00898DD89B90
0A8007A00050
2F1007A00700
5D0007C79A00
5E0007A00600
3F1007A00040
0A8007A000A0
01898DD88CB0
ENDCHAR
STARTCHAR oe
ENCODING 339
SWIDTH 807 0
DWIDTH 10 0
BBX 10 6 0 0
BITMAP
0788657A50
4B00AB01E1
88007C77A2
89007A0000
4C009F4042
079875DD70
ENDCHAR
STARTCHAR Racute
ENCODING 340
SWIDTH 659 0
DWIDTH 8 0
BBX 8 11 0 0
BITMAP
00037000
001A2000
00000000
3BD79900
06B00C60
06B00A80
06B02D20
06DAC200
06B1C700
07B02E40
3BE506E6
ENDCHAR
STARTCHAR racute
ENCODING 341
SWIDTH 380 0
DWIDTH 5 0
BBX 5 8 0 0
BITMAP
00A600
019000
4D6D50
0C8310
0C3000
0C3000
0C3000
4E9200
ENDCHAR
STARTCHAR Rcommaaccent
ENCODING 342
SWIDTH 659 0
DWIDTH 8 0
BBX 8 12 0 -4
BITMAP
3BD79900
06B00C60
06B00A80
06B02D20
06DAC200
06B1C700
07B02E40
3BE506E6
00000000
00099000
00019000
00041000
ENDCHAR
STARTCHAR rcommaaccent
ENCODING 343
SWIDTH 380 0
DWIDTH 5 0
BBX 5 10 0 -4
BITMAP
4D6D50
0C8310
0C3000
0C3000
0C3000
4E9200
000000
0B8000
028000
051000
ENDCHAR
STARTCHAR Rcaron
ENCODING 344
SWIDTH 659 0
DWIDTH 8 0
BBX 8 11 0 0
BITMAP
00502200
003B9000
00000000
3BD79900
06B00C60
06B00A80
06B02D20
06DAC200
06B1C700
07B02E40
3BE506E6
ENDCHAR
STARTCHAR rcaron
ENCODING 345
SWIDTH 380 0
DWIDTH 5 0
BBX 5 9 0 0
BITMAP
181800
05D200
000000
4D6D50
0C8310
0C3000
0C3000
0C3000
4E9200
ENDCHAR
STARTCHAR Sacute
ENCODING 346
SWIDTH 504 0
DWIDTH 6 0
BBX 6 11 0 0
BITMAP
001720
009400
000000
0889F3
5A0074
4E3012
08F810
003CD2
4000B8
830088
7E9891
ENDCHAR
STARTCHAR sacute
ENCODING 347
SWIDTH 394 0
DWIDTH 5 0
BBX 5 8 0 0
BITMAP
009700
019000
297B10
770610
3E9100
12AE20
710B60
797910
ENDCHAR
STARTCHAR Scircumflex
ENCODING 348
SWIDTH 504 0
DWIDTH 6 0
BBX 6 11 0 0
BITMAP
005500
057750
000000
0889F3
5A0074
4E3012
08F810
003CD2
4000B8
830088
7E9891
ENDCHAR
STARTCHAR scircumflex
ENCODING 349
SWIDTH 394 0
DWIDTH 5 0
BBX 5 8 0 0
BITMAP
05D200
181800
297B10
770610
3E9100
12AE20
710B60
797910
ENDCHAR
STARTCHAR uni015E
ENCODING 350
SWIDTH 504 0
DWIDTH 6 0
BBX 6 11 0 -3
BITMAP
0889F3
5A0074
4E3012
08F810
003CD2
4000B8
830088
7EB891
005900
000910
007700
ENDCHAR
STARTCHAR uni015F
ENCODING 351
SWIDTH 394 0
DWIDTH 5 0
BBX 5 9 0 -3
BITMAP
297B10
770610
3E9100
12AE20
710B60
799910
02A300
004700
058200
ENDCHAR
STARTCHAR Scaron
ENCODING 352
SWIDTH 504 0
DWIDTH 6 0
BBX 6 11 0 0
BITMAP
031140
01AB10
000000
0889F3
5A0074
4E3012
08F810
003CD2
4000B8
830088
7E9891
ENDCHAR
STARTCHAR scaron
ENCODING 353
SWIDTH 394 0
DWIDTH 5 0
BBX 5 9 0 0
BITMAP
181800
05D200
000000
297B10
770610
3E9100
12AE20
710B60
797910
ENDCHAR
STARTCHAR uni0162
ENCODING 354
SWIDTH 603 0
DWIDTH 7 0
BBX 7 11 0 -3
BITMAP
BA8FA9E0
800E3080
100E3010
000E3000
000E3000
000E3000
000E3000
017F9200
00086000
0000B000
00285000
ENDCHAR
STARTCHAR uni0163
ENCODING 355
SWIDTH 315 0
DWIDTH 4 0
BBX 4 11 0 -3
BITMAP
0310
1C10
4E83
0D10
0D10
0D10
0D21
0AD4
0392
0056
0581
ENDCHAR
STARTCHAR Tcaron
ENCODING 356
SWIDTH 603 0
DWIDTH 7 0
BBX 7 11 0 0
BITMAP
00503100
004C7000
00000000
BA8FA9E0
800E3080
100E3010
000E3000
000E3000
000E3000
000E3000
017F9200
ENDCHAR
STARTCHAR tcaron
ENCODING 357
SWIDTH 353 0
DWIDTH 4 0
BBX 5 9 0 0
BITMAP
000D10
031B00
1C1300
4E8300
0D1000
0D1000
0D1000
0D2100
09C400
ENDCHAR
STARTCHAR Tbar
ENCODING 358
SWIDTH 603 0
DWIDTH 7 0
BBX 7 8 0 0
BITMAP
BA8FA9E0
700E3070
000E3000
037F9500
000E3000
000E3000
000E3000
017F9200
ENDCHAR
STARTCHAR tbar
ENCODING 359
SWIDTH 328 0
DWIDTH 4 0
BBX 4 8 0 0
BITMAP
0210
0B20
4E94
0D20
4E94
0D20
0D20
09C5
ENDCHAR
STARTCHAR Utilde
ENCODING 360
SWIDTH 752 0
DWIDTH 9 0
BBX 9 11 0 0
BITMAP
0007B46000
00044C4000
0000000000
5DD4018E50
0980000B00
0980000A00
0980000A00
0980000A00
0890001900
04E1007500
007CBB7000
ENDCHAR
STARTCHAR utilde
ENCODING 361
SWIDTH 570 0
DWIDTH 7 0
BBX 7 9 0 0
BITMAP
02B75200
0409A000
00000000
5E12AA00
0E105A00
0E105A00
0E105A00
0D307A00
06D98C30
ENDCHAR
STARTCHAR Umacron
ENCODING 362
SWIDTH 752 0
DWIDTH 9 0
BBX 9 10 0 0
BITMAP
000AAA5000
0000000000
5DD4018E50
0980000B00
0980000A00
0980000A00
0980000A00
0890001900
04E1007500
007CBB7000
ENDCHAR
STARTCHAR umacron
ENCODING 363
SWIDTH 570 0
DWIDTH 7 0
BBX 7 8 0 0
BITMAP
05BBB100
00000000
5E12AA00
0E105A00
0E105A00
0E105A00
0D307A00
06D98C30
ENDCHAR
STARTCHAR Ubreve
ENCODING 364
SWIDTH 752 0
DWIDTH 9 0
BBX 9 12 0 0
BITMAP
0001001000
0008026000
0005CA1000
0000000000
5DD4018E50
0980000B00
0980000A00
0980000A00
0980000A00
0890001900
04E1007500
007CBB7000
ENDCHAR
STARTCHAR ubreve
ENCODING 365
SWIDTH 570 0
DWIDTH 7 0
BBX 7 9 0 0
BITMAP
01001000
05208000
01AB5000
5E12AA00
0E105A00
0E105A00
0E105A00
0D307A00
06D98C30
ENDCHAR
STARTCHAR Uring
ENCODING 366
SWIDTH 752 0
DWIDTH 9 0
BBX 9 11 0 0
BITMAP
0001760000
0006290000
0001760000
5DD4018E50
0980000B00
0980000A00
0980000A00
0980000A00
0890001900
04E1007500
007CBB7000
ENDCHAR
STARTCHAR uring
ENCODING 367
SWIDTH 570 0
DWIDTH 7 0
BBX 7 9 0 0
BITMAP
00582000
00817000
00582000
5E12AA00
0E105A00
0E105A00
0E105A00
0D307A00
06D98C30
ENDCHAR
STARTCHAR Uhungarumlaut
ENCODING 368
SWIDTH 752 0
DWIDTH 9 0
BBX 9 11 0 0
BITMAP
0000658200
0002965000
0000000000
5DD4018E50
0980000B00
0980000A00
0980000A00
0980000A00
0890001900
04E1007500
007CBB7000
ENDCHAR
STARTCHAR uhungarumlaut
ENCODING 369
SWIDTH 570 0
DWIDTH 7 0
BBX 7 8 0 0
BITMAP
003B9600
00839000
5E12AA00
0E105A00
0E105A00
0E105A00
0D307A00
06D98C30
ENDCHAR
STARTCHAR Uogonek
ENCODING 370
SWIDTH 753 0
DWIDTH 9 0
BBX 9 11 0 -3
BITMAP
5DD4018E50
0980000B00
0980000A00
0980000A00
0980000A00
0890001A00
04E1007700
007CCDD100
0000670000
0000C00000
0000B83000
ENDCHAR
STARTCHAR uogonek
ENCODING 371
SWIDTH 570 0
DWIDTH 7 0
BBX 7 9 0 -3
BITMAP
5E12AA00
0E105A00
0E105A00
0E105A00
0C408A00
06D97C30
00019000
00066000
0003C700
ENDCHAR
STARTCHAR Wcircumflex
ENCODING 372
SWIDTH 944 0
DWIDTH 11 0
BBX 13 11 -1 0
BITMAP
00000171000000
00000949100000
00000000000000
1AF809F901BC20
00D600C5007300
007C008B009000
001F20AF228000
000A845A873000
0004E904D90000
0000D900E70000
00007300820000
ENDCHAR
STARTCHAR wcircumflex
ENCODING 373
SWIDTH 749 0
DWIDTH 9 0
BBX 11 8 -1 0
BITMAP
00004E300000
000081900000
1BD26F608B10
02E10C507200
00B61BA08000
005B53E36000
000E809C1000
0009504A0000
ENDCHAR
STARTCHAR Ycircumflex
ENCODING 374
SWIDTH 647 0
DWIDTH 8 0
BBX 8 11 0 0
BITMAP
00046000
00486500
00000000
8FA105E6
09B00640
01D51900
005E8200
000B8000
000A7000
000A7000
005DC400
ENDCHAR
STARTCHAR ycircumflex
ENCODING 375
SWIDTH 483 0
DWIDTH 6 0
BBX 7 11 -1 -3
BITMAP
0009B000
00463700
1BD21B80
02E10900
00A60800
004C4300
000C9000
00077000
00072000
01190000
0BC20000
ENDCHAR
STARTCHAR Ydieresis
ENCODING 376
SWIDTH 647 0
DWIDTH 8 0
BBX 8 10 0 0
BITMAP
00C52E00
00200300
8FA105E6
09B00640
01D51900
005E8200
000B8000
000A7000
000A7000
005DC400
ENDCHAR
STARTCHAR Zacute
ENCODING 377
SWIDTH 594 0
DWIDTH 7 0
BBX 7 11 0 0
BITMAP
00027000
001A2000
00000000
3EA99E90
44006D10
0002E400
000C8000
007D0000
03E30020
0C700080
8F999C80
ENDCHAR
STARTCHAR zacute
ENCODING 378
SWIDTH 458 0
DWIDTH 6 0
BBX 6 8 0 0
BITMAP
002D10
008300
6B8BD0
511D40
008900
03D100
0D5071
7E89E0
ENDCHAR
STARTCHAR Zdotaccent
ENCODING 379
SWIDTH 594 0
DWIDTH 7 0
BBX 7 10 0 0
BITMAP
000C5000
00021000
3EA99E90
44006D10
0002E400
000C8000
007D0000
03E30020
0C700080
8F999C80
ENDCHAR
STARTCHAR zdotaccent
ENCODING 380
SWIDTH 458 0
DWIDTH 6 0
BBX 6 8 0 0
BITMAP
00A600
001000
6B8BD0
511D40
008900
03D100
0D5071
7E89E0
ENDCHAR
STARTCHAR Zcaron
ENCODING 381
SWIDTH 594 0
DWIDTH 7 0
BBX 7 11 0 0
BITMAP
00502200
003B9000
00000000
3EA99E90
44006D10
0002E400
000C8000
007D0000
03E30020
0C700080
8F999C80
ENDCHAR
STARTCHAR zcaron
ENCODING 382
SWIDTH 458 0
DWIDTH 6 0
BBX 6 9 0 0
BITMAP
063640
00B900
000000
6B8BD0
511D40
008900
03D100
0D5071
7E89E0
ENDCHAR
STARTCHAR longs
ENCODING 383
SWIDTH 285 0
DWIDTH 3 0
BBX 5 9 0 0
BITMAP
028C50
094220
0B3000
5D3000
0C3000
0C3000
0C3000
0C3000
5EA200
ENDCHAR
STARTCHAR uni0180
ENCODING 384
SWIDTH 522 0
DWIDTH 6 0
BBX 6 9 0 0
BITMAP
8D0000
2E0000
7F7720
1E6CC2
1F30A9
1E005C
1E005B
1E0086
0B9780
ENDCHAR
STARTCHAR uni0188
ENCODING 392
SWIDTH 446 0
DWIDTH 5 0
BBX 7 8 0 0
BITMAP
00006B40
00017110
067B9000
4802A000
86000000
97000000
5D206000
09EC4000
ENDCHAR
STARTCHAR uni0190
ENCODING 400
SWIDTH 518 0
DWIDTH 6 0
BBX 6 8 0 0
BITMAP
0888C4
5C0057
2D2000
04DA30
2D2000
7B0000
6D1016
09DC91
ENDCHAR
STARTCHAR uni0192
ENCODING 402
SWIDTH 301 0
DWIDTH 4 0
BBX 6 12 -1 -3
BITMAP
0028C5
009322
00C300
05E940
00C300
00C300
00C300
00C300
00C300
00C200
40C100
C87000
ENDCHAR
STARTCHAR uni0195
ENCODING 405
SWIDTH 798 0
DWIDTH 10 0
BBX 9 9 0 0
BITMAP
5D30000000
0C30000000
0C30000000
0C7BD30870
0C608901C0
0C305A0090
0C305A0070
0C304C0070
4E901BB920
ENDCHAR
STARTCHAR uni0199
ENCODING 409
SWIDTH 538 0
DWIDTH 6 0
BBX 7 9 0 0
BITMAP
027B9000
0A214000
0C200000
0D24E700
0D292000
0DB40000
0D7D1000
0D27C000
4E81EB20
ENDCHAR
STARTCHAR uni019A
ENCODING 410
SWIDTH 287 0
DWIDTH 3 0
BBX 4 9 0 0
BITMAP
4D30
0C30
0C30
0C30
4D81
0C30
0C30
0C30
4E91
ENDCHAR
STARTCHAR uni019B
ENCODING 411
SWIDTH 495 0
DWIDTH 6 0
BBX 7 9 -1 0
BITMAP
07E52200
011B7000
00646000
0003B000
000AB100
002E2600
00980800
01E10720
1AE209A0
ENDCHAR
STARTCHAR uni019E
ENCODING 414
SWIDTH 559 0
DWIDTH 7 0
BBX 7 9 0 -3
BITMAP
5D6AD400
0C606A00
0C303B00
0C303C00
0C303C00
4E913C00
00003C00
00003C00
00003E40
ENDCHAR
STARTCHAR Ohorn
ENCODING 416
SWIDTH 737 0
DWIDTH 9 0
BBX 9 10 0 0
BITMAP
0000000960
0000000760
00898CE400
0A8000B900
2F10003F10
5E00001F30
5E00001F30
2F10003E00
0A8000A600
0089896000
ENDCHAR
STARTCHAR ohorn
ENCODING 417
SWIDTH 516 0
DWIDTH 6 0
BBX 6 8 0 0
BITMAP
00000C
00000A
0789E3
4B0096
88006B
89006B
4C0087
079880
ENDCHAR
STARTCHAR uni01A5
ENCODING 421
SWIDTH 522 0
DWIDTH 6 0
BBX 6 12 0 -3
BITMAP
047C70
0C0240
0E0000
1E6DC2
1F3099
1E005C
1E004B
1E0077
1F9780
1E0000
1F0000
7F7100
ENDCHAR
STARTCHAR uni01AA
ENCODING 426
SWIDTH 298 0
DWIDTH 4 0
BBX 6 12 -1 -3
BITMAP
479000
608500
717800
16A800
007800
007800
007800
007800
007800
006800
004903
0009A9
ENDCHAR
STARTCHAR uni01AB
ENCODING 427
SWIDTH 321 0
DWIDTH 4 0
BBX 4 11 0 -3
BITMAP
0310
1C10
4E83
0D10
0D10
0D10
0D21
09BA
0008
0207
0984
ENDCHAR
STARTCHAR uni01AD
ENCODING 429
SWIDTH 315 0
DWIDTH 4 0
BBX 5 9 0 0
BITMAP
028B90
0A2140
1E1000
4E8300
0D1000
0D1000
0D1000
0D2100
09C400
ENDCHAR
STARTCHAR Uhorn
ENCODING 431
SWIDTH 762 0
DWIDTH 9 0
BBX 10 11 0 0
BITMAP
0000000014
000000004C
0000000016
5DD4018D10
0980000A00
0980000A00
0980000A00
0980000A00
0890001900
04D1007400
007CBB7000
ENDCHAR
STARTCHAR uhorn
ENCODING 432
SWIDTH 574 0
DWIDTH 7 0
BBX 7 8 0 0
BITMAP
000001C0
000000A0
5E12BB10
0E105A00
0E105A00
0E105A00
0D307A00
06D98C30
ENDCHAR
STARTCHAR uni01B5
ENCODING 437
SWIDTH 594 0
DWIDTH 7 0
BBX 7 8 0 0
BITMAP
3EA99E90
34007C00
0004E200
058EA600
009B0000
04E20020
1D700080
8F999C80
ENDCHAR
STARTCHAR uni01BA
ENCODING 442
SWIDTH 430 0
DWIDTH 5 0
BBX 5 9 0 -3
BITMAP
998F50
508900
04B000
06AC30
000790
000A70
079500
620520
388C10
ENDCHAR
STARTCHAR uni01BB
ENCODING 443
SWIDTH 508 0
DWIDTH 6 0
BBX 6 9 0 0
BITMAP
07CD50
4403F2
1000E3
0001D0
388CA5
003800
01A001
0A2027
7FFFF5
ENDCHAR
STARTCHAR uni01BE
ENCODING 446
SWIDTH 406 0
DWIDTH 5 0
BBX 5 8 0 0
BITMAP
022000
1B3000
4D9500
088300
001D30
100970
700960
786910
ENDCHAR
STARTCHAR uni01C0
ENCODING 448
SWIDTH 250 0
DWIDTH 3 0
BBX 1 9 1 0
BITMAP
F0
F0
F0
F0
F0
F0
F0
F0
F0
ENDCHAR
STARTCHAR uni01C1
ENCODING 449
SWIDTH 423 0
DWIDTH 5 0
BBX 4 9 1 0
BITMAP
F0E1
F0E1
F0E1
F0E1
F0E1
F0E1
F0E1
F0E1
F0E1
ENDCHAR
STARTCHAR uni01C2
ENCODING 450
SWIDTH 422 0
DWIDTH 5 0
BBX 5 9 0 0
BITMAP
00E000
00E000
00E000
48F850
00E000
48F850
00E000
00E000
00E000
ENDCHAR
STARTCHAR uni01C3
ENCODING 451
SWIDTH 245 0
DWIDTH 3 0
BBX 3 9 0 0
BITMAP
1E00
1F00
0F00
0D00
0B00
0900
0600
0400
2E10
ENDCHAR
STARTCHAR uni01DE
ENCODING 478
SWIDTH 718 0
DWIDTH 9 0
BBX 9 11 0 0
BITMAP
005AAA0000
00A70E2000
0021030000
0003B00000
0009F20000
0019A80000
00745E1000
00B00E6000
05B88CD000
0B1002F500
8D3004ED40
ENDCHAR
STARTCHAR uni01DF
ENCODING 479
SWIDTH 480 0
DWIDTH 6 0
BBX 6 10 0 0
BITMAP
0BBB60
000000
2D1790
010010
085B30
390680
004A90
2A3690
790690
3EA7D4
ENDCHAR
STARTCHAR uni01F0
ENCODING 496
SWIDTH 263 0
DWIDTH 3 0
BBX 6 12 -2 -3
BITMAP
008181
003D40
000000
005D30
000C30
000C30
000C30
000C30
000C30
000C20
040C10
1C9600
ENDCHAR
STARTCHAR Aringacute
ENCODING 506
SWIDTH 718 0
DWIDTH 9 0
BBX 9 13 0 0
BITMAP
0000640000
0007700000
0006820000
0008270000
0006820000
0003B00000
0009F20000
0019A80000
00745E1000
00B00E6000
05B88CD000
0B1002F500
8D3004ED40
ENDCHAR
STARTCHAR aringacute
ENCODING 507
SWIDTH 480 0
DWIDTH 6 0
BBX 6 11 0 0
BITMAP
002700
01A200
018600
062900
028600
085B30
390680
004A90
2A3690
790690
3EA7D4
ENDCHAR
STARTCHAR AEacute
ENCODING 508
SWIDTH 894 0
DWIDTH 11 0
BBX 12 11 -1 0
BITMAP
000000037000
0000001A2000
000000000000
00004DF989E0
000037F10050
0000A1F10510
000471F10810
000C88F88D10
006701F10013
01A001F10063
2BB218F98AF1
ENDCHAR
STARTCHAR aeacute
ENCODING 509
SWIDTH 709 0
DWIDTH 9 0
BBX 8 8 0 0
BITMAP
0002D100
00082000
195A77B3
4908903D
004BB77B
2A379000
8907D206
4EA48EC4
ENDCHAR
STARTCHAR Oslashacute
ENCODING 510
SWIDTH 737 0
DWIDTH 9 0
BBX 9 11 0 0
BITMAP
0000550000
0005810000
0000000000
00898A8400
0A8002E700
2F10084E10
5E00711F30
6E06301F30
3F55003E10
0BB000A700
0889896000
ENDCHAR
STARTCHAR oslashacute
ENCODING 511
SWIDTH 514 0
DWIDTH 6 0
BBX 6 8 0 0
BITMAP
002D10
008300
0799C2
4B04C6
88176A
89806B
4E2087
499880
ENDCHAR
STARTCHAR uni0218
ENCODING 536
SWIDTH 504 0
DWIDTH 6 0
BBX 6 12 0 -4
BITMAP
0889F3
5A0074
4E3012
08F810
003CD2
4000B8
830088
7E9891
000000
00A800
002900
004100
ENDCHAR
STARTCHAR uni0219
ENCODING 537
SWIDTH 394 0
DWIDTH 5 0
BBX 5 10 0 -4
BITMAP
297B10
770610
3E9100
12AE20
710B60
797910
000000
05D000
009100
023000
ENDCHAR
STARTCHAR uni021A
ENCODING 538
SWIDTH 603 0
DWIDTH 7 0
BBX 7 12 0 -4
BITMAP
BA8FA9E0
800E3080
100E3010
000E3000
000E3000
000E3000
000E3000
017F9200
00000000
001E4000
00055000
00050000
ENDCHAR
STARTCHAR uni021B
ENCODING 539
SWIDTH 315 0
DWIDTH 4 0
BBX 4 12 0 -4
BITMAP
0310
1C10
4E83
0D10
0D10
0D10
0D21
09C4
0000
06C0
00A0
0330
ENDCHAR
STARTCHAR uni0221
ENCODING 545
SWIDTH 674 0
DWIDTH 8 0
BBX 8 11 0 -2
BITMAP
0003C500
0000B500
0000A500
0688E500
3A00C500
8700A500
8800A500
5D10B556
0AE97C76
00002500
00005000
ENDCHAR
STARTCHAR uni0228
ENCODING 552
SWIDTH 626 0
DWIDTH 8 0
BBX 8 11 0 -3
BITMAP
3CD88AB0
06B00050
06B00700
06D78C00
06B00600
06B00021
06B00091
3BDB8BE0
00068000
0000B000
00176000
ENDCHAR
STARTCHAR uni0229
ENCODING 553
SWIDTH 464 0
DWIDTH 6 0
BBX 6 9 0 -3
BITMAP
078A40
4802E0
8A77B1
870000
4D2051
07FD50
006800
000B00
017600
ENDCHAR
STARTCHAR uni0234
ENCODING 564
SWIDTH 399 0
DWIDTH 5 0
BBX 5 11 0 -2
BITMAP
7D0000
1E0000
1E0000
1E0000
1E0000
1E0000
1E0000
0E1760
0BA560
061000
050000
ENDCHAR
STARTCHAR uni0235
ENCODING 565
SWIDTH 702 0
DWIDTH 8 0
BBX 9 8 0 -2
BITMAP
4D69D30000
0C60790000
0C305A0000
0C305A0000
0C305A3630
4E912B9530
0000070000
0000230000
ENDCHAR
STARTCHAR uni0236
ENCODING 566
SWIDTH 406 0
DWIDTH 5 0
BBX 5 10 0 -2
BITMAP
031000
1C1000
4E8400
0D1000
0D1000
0D1000
0D2650
08B660
053000
050000
ENDCHAR
STARTCHAR uni0237
ENCODING 567
SWIDTH 263 0
DWIDTH 3 0
BBX 5 9 -2 -3
BITMAP
005D30
000C30
000C30
000C30
000C30
000C30
000C20
040C10
1C9600
ENDCHAR
STARTCHAR uni0250
ENCODING 592
SWIDTH 475 0
DWIDTH 6 0
BBX 6 6 0 0
BITMAP
8D7CC1
0E20E3
0E1590
0E7300
0D20B0
069670
ENDCHAR
STARTCHAR uni0251
ENCODING 593
SWIDTH 542 0
DWIDTH 7 0
BBX 7 6 0 0
BITMAP
0688C400
3A00B400
8700A400
8700A400
5C00B500
0AD9BA10
ENDCHAR
STARTCHAR uni0252
ENCODING 594
SWIDTH 544 0
DWIDTH 7 0
BBX 7 6 0 0
BITMAP
4E8CE500
0C405D00
0C300F10
0C300E00
0C403A00
0A979100
ENDCHAR
STARTCHAR uni0253
ENCODING 595
SWIDTH 518 0
DWIDTH 6 0
BBX 6 9 0 0
BITMAP
047C60
0C0240
1E0000
1E6DC2
1E20A8
1E005B
1E005B
1E0096
1CA770
ENDCHAR
STARTCHAR uni0254
ENCODING 596
SWIDTH 454 0
DWIDTH 5 0
BBX 5 6 0 0
BITMAP
1AEC20
5209B0
0001F0
0000D0
5602A0
3C7810
ENDCHAR
STARTCHAR uni0255
ENCODING 597
SWIDTH 447 0
DWIDTH 5 0
BBX 5 8 0 -2
BITMAP
067B80
480170
860000
981760
5E9080
09DA60
070000
030000
ENDCHAR
STARTCHAR uni0256
ENCODING 598
SWIDTH 528 0
DWIDTH 6 0
BBX 8 12 0 -3
BITMAP
0004D500
0000B500
0000A500
0688E500
3A00B500
8700A500
8800A500
5C10B500
0AE9B500
00009500
00007523
000029B6
ENDCHAR
STARTCHAR uni0257
ENCODING 599
SWIDTH 542 0
DWIDTH 7 0
BBX 8 9 0 0
BITMAP
000018A8
00007514
00009400
0688E400
3A00B400
8700A400
8800A400
5C10B500
0AD9BA10
ENDCHAR
STARTCHAR uni0258
ENCODING 600
SWIDTH 466 0
DWIDTH 6 0
BBX 6 6 0 0
BITMAP
088940
5B00C0
6977D2
0000D2
4206D0
1AEC30
ENDCHAR
STARTCHAR uni0259
ENCODING 601
SWIDTH 464 0
DWIDTH 6 0
BBX 6 6 0 0
BITMAP
1AEC30
4207D0
0000E2
6977E2
5A00C0
098830
ENDCHAR
STARTCHAR uni025A
ENCODING 602
SWIDTH 642 0
DWIDTH 8 0
BBX 8 6 0 0
BITMAP
09EC2000
5207C844
0000E3B4
6977E200
5A00C000
09883000
ENDCHAR
STARTCHAR uni025B
ENCODING 603
SWIDTH 399 0
DWIDTH 5 0
BBX 5 6 0 0
BITMAP
2A7B40
5A0210
0AB400
590000
880020
2BB910
ENDCHAR
STARTCHAR uni025C
ENCODING 604
SWIDTH 398 0
DWIDTH 5 0
BBX 5 6 0 0
BITMAP
6A7A10
210C20
05C700
000C20
200B50
4AA900
ENDCHAR
STARTCHAR uni025D
ENCODING 605
SWIDTH 575 0
DWIDTH 7 0
BBX 7 6 0 0
BITMAP
6B790000
420C9640
05C80A60
000B1000
200B5000
4AAA1000
ENDCHAR
STARTCHAR uni025E
ENCODING 606
SWIDTH 500 0
DWIDTH 6 0
BBX 6 6 0 0
BITMAP
0687A2
3B0095
873AA0
870095
4B0088
0688B2
ENDCHAR
STARTCHAR uni025F
ENCODING 607
SWIDTH 272 0
DWIDTH 3 0
BBX 5 9 -1 -3
BITMAP
05D400
00C400
00B400
06DA10
00B400
00B400
00B300
40C100
C97000
ENDCHAR
STARTCHAR uni0260
ENCODING 608
SWIDTH 541 0
DWIDTH 6 0
BBX 8 12 0 -3
BITMAP
000017AB
00007506
0000A400
0688E400
3A00C400
8700B400
9800B400
6D10C400
0AD9C400
0000B400
2600C100
2C885000
ENDCHAR
STARTCHAR uni0261
ENCODING 609
SWIDTH 521 0
DWIDTH 6 0
BBX 6 9 0 -3
BITMAP
0688B4
3A00C4
8700B4
9800B4
6D10C4
0AD9C4
0000B4
2600C1
2C8850
ENDCHAR
STARTCHAR uni0262
ENCODING 610
SWIDTH 535 0
DWIDTH 6 0
BBX 7 6 0 0
BITMAP
0697C800
4C001800
89000100
89018910
4D006800
07979500
ENDCHAR
STARTCHAR uni0263
ENCODING 611
SWIDTH 479 0
DWIDTH 6 0
BBX 7 9 -1 -3
BITMAP
1BD21B90
02E00900
00B51800
006B6300
001E9000
000A8000
000BC000
0026D100
0019A000
ENDCHAR
STARTCHAR uni0264
ENCODING 612
SWIDTH 466 0
DWIDTH 6 0
BBX 6 6 0 0
BITMAP
A897A4
60AA34
061C20
070960
070960
057A10
ENDCHAR
STARTCHAR uni0265
ENCODING 613
SWIDTH 553 0
DWIDTH 7 0
BBX 7 9 0 -3
BITMAP
5E119A00
0E105A00
0E105A00
0E205A00
0C407A00
06DA7A00
00005A00
00005A00
00005D40
ENDCHAR
STARTCHAR uni0266
ENCODING 614
SWIDTH 577 0
DWIDTH 7 0
BBX 7 9 0 0
BITMAP
017BA000
09315000
0C300000
0C7AD400
0C606A00
0C304C00
0C303C00
0C303C00
4E919E40
ENDCHAR
STARTCHAR uni0267
ENCODING 615
SWIDTH 562 0
DWIDTH 7 0
BBX 6 12 0 -3
BITMAP
018BA0
093150
0C3000
0C7AD4
0C606A
0C304C
0C303C
0C303C
4E903C
00003B
002249
005C82
ENDCHAR
STARTCHAR uni0268
ENCODING 616
SWIDTH 295 0
DWIDTH 4 0
BBX 4 9 0 0
BITMAP
0B50
0410
0000
3D40
0B40
4D91
0B40
0B40
3D91
ENDCHAR
STARTCHAR uni0269
ENCODING 617
SWIDTH 286 0
DWIDTH 3 0
BBX 4 6 0 0
BITMAP
5E10
0E10
0E10
0E10
0D21
09C4
ENDCHAR
STARTCHAR uni026A
ENCODING 618
SWIDTH 287 0
DWIDTH 3 0
BBX 3 6 0 0
BITMAP
4E90
0C30
0C30
0C30
0C30
3E90
ENDCHAR
STARTCHAR uni026B
ENCODING 619
SWIDTH 290 0
DWIDTH 3 0
BBX 4 9 0 0
BITMAP
5D30
0C30
0C30
0C30
8EB4
0C30
0C30
0C30
4E91
ENDCHAR
STARTCHAR uni026C
ENCODING 620
SWIDTH 318 0
DWIDTH 4 0
BBX 5 9 -1 0
BITMAP
02A800
006800
006800
089800
1A6840
08CC30
006800
006800
01BC30
ENDCHAR
STARTCHAR uni026D
ENCODING 621
SWIDTH 248 0
DWIDTH 3 0
BBX 5 12 0 -3
BITMAP
7D0000
1E0000
1E0000
1E0000
1E0000
1E0000
1E0000
1E0000
1E0000
0E0000
0D0410
059D20
ENDCHAR
STARTCHAR uni026E
ENCODING 622
SWIDTH 590 0
DWIDTH 7 0
BBX 7 12 0 -3
BITMAP
4D300000
0C300000
0C300000
0C988D80
0C304D10
0C31D400
0C38B000
0C326C30
4E9106B0
000003D0
00810690
00996700
ENDCHAR
STARTCHAR uni026F
ENCODING 623
SWIDTH 846 0
DWIDTH 10 0
BBX 10 6 0 0
BITMAP
5E12B707E0
0E108801E0
0E108801E0
0E108801E0
0D30A903E0
06C84D95E6
ENDCHAR
STARTCHAR uni0270
ENCODING 624
SWIDTH 826 0
DWIDTH 10 0
BBX 10 9 0 -3
BITMAP
5E12B707E0
0E108801E0
0E108801E0
0E108801E0
0D30A903E0
06D94DB5E0
00000000E0
00000000E0
00000000F6
ENDCHAR
STARTCHAR uni0271
ENCODING 625
SWIDTH 835 0
DWIDTH 10 0
BBX 10 9 0 -3
BITMAP
5D69D48D90
0C606C11E0
0C305A00E1
0C305A00E1
0C305A00E1
3E92AD30E1
00000000E1
00000140D0
000002D850
ENDCHAR
STARTCHAR uni0272
ENCODING 626
SWIDTH 574 0
DWIDTH 7 0
BBX 9 9 -2 -3
BITMAP
004D69D400
000C606A00
000C304B00
000C304B00
000C304B00
000C319E40
000C200000
040C100000
1C96000000
ENDCHAR
STARTCHAR uni0273
ENCODING 627
SWIDTH 563 0
DWIDTH 7 0
BBX 8 9 0 -3
BITMAP
5D6AD400
0C606A00
0C304B00
0C304C00
0C304C00
4E914C00
00003C00
00001C04
0000079C
ENDCHAR
STARTCHAR uni0274
ENCODING 628
SWIDTH 568 0
DWIDTH 7 0
BBX 7 6 0 0
BITMAP
5F504D40
0BE20800
086C1700
0809A700
0800CB00
6D302A00
ENDCHAR
STARTCHAR uni0275
ENCODING 629
SWIDTH 514 0
DWIDTH 6 0
BBX 6 6 0 0
BITMAP
078780
4A0087
8B77AB
89006B
4D0096
079880
ENDCHAR
STARTCHAR uni0276
ENCODING 630
SWIDTH 732 0
DWIDTH 9 0
BBX 9 6 0 0
BITMAP
06A9F99D10
4D00D20410
8900D89500
8900D20500
4C00D20140
0777F87C30
ENDCHAR
STARTCHAR uni0277
ENCODING 631
SWIDTH 672 0
DWIDTH 8 0
BBX 8 6 0 0
BITMAP
02866830
1C1001C2
79078088
9808907A
6B0570A7
098658A0
ENDCHAR
STARTCHAR uni0278
ENCODING 632
SWIDTH 658 0
DWIDTH 8 0
BBX 8 12 0 -3
BITMAP
003B6000
00096000
00086000
05ACBA50
3D0862E2
890860B6
890860A6
4D0860D2
069BA840
00086000
00096000
002CB200
ENDCHAR
STARTCHAR uni0279
ENCODING 633
SWIDTH 380 0
DWIDTH 5 0
BBX 5 6 0 0
BITMAP
04DA10
00A500
00A500
00A500
31D500
C99910
ENDCHAR
STARTCHAR uni027A
ENCODING 634
SWIDTH 374 0
DWIDTH 4 0
BBX 5 9 0 0
BITMAP
03C500
00A500
00A500
00A500
00A500
00A500
00A500
31D500
C99910
ENDCHAR
STARTCHAR uni027B
ENCODING 635
SWIDTH 375 0
DWIDTH 5 0
BBX 6 9 0 -3
BITMAP
04DA10
00A500
00A500
00A500
31D500
C9A500
009500
007613
0019C6
ENDCHAR
STARTCHAR uni027C
ENCODING 636
SWIDTH 378 0
DWIDTH 5 0
BBX 5 9 0 -3
BITMAP
4D6D50
0C7310
0C3000
0C3000
0C3000
0C3000
0C3000
0C3000
4E9200
ENDCHAR
STARTCHAR uni027D
ENCODING 637
SWIDTH 373 0
DWIDTH 4 0
BBX 5 9 0 -3
BITMAP
4E5D40
0D6210
0D2000
0D2000
0D2000
0D2000
0C2000
0A3320
039C40
ENDCHAR
STARTCHAR uni027E
ENCODING 638
SWIDTH 371 0
DWIDTH 4 0
BBX 5 6 0 0
BITMAP
037C30
0A3100
0C2000
0D2000
0D2000
4E9100
ENDCHAR
STARTCHAR uni027F
ENCODING 639
SWIDTH 371 0
DWIDTH 4 0
BBX 5 6 0 0
BITMAP
B87000
20B200
00A400
00A500
00A500
05EA10
ENDCHAR
STARTCHAR uni0280
ENCODING 640
SWIDTH 494 0
DWIDTH 6 0
BBX 7 6 0 0
BITMAP
3E987000
0C30F100
0C32D000
0CAC2000
0C3A7000
3E81D810
ENDCHAR
STARTCHAR uni0281
ENCODING 641
SWIDTH 494 0
DWIDTH 6 0
BBX 7 6 0 0
BITMAP
3E81D810
0C3A7000
0CAC2000
0C32D000
0C30F100
3E897000
ENDCHAR
STARTCHAR uni0282
ENCODING 642
SWIDTH 395 0
DWIDTH 5 0
BBX 5 9 0 -3
BITMAP
297B10
770610
3E9100
12AE20
710A60
897A10
800000
612000
18B000
ENDCHAR
STARTCHAR uni0283
ENCODING 643
SWIDTH 253 0
DWIDTH 3 0
BBX 7 12 -2 -3
BITMAP
00047D30
000C1310
000E0000
000F0000
000F0000
000F0000
000F0000
000F0000
000F0000
000E0000
130D0000
2C850000
ENDCHAR
STARTCHAR uni0284
ENCODING 644
SWIDTH 286 0
DWIDTH 3 0
BBX 6 12 -1 -3
BITMAP
0018C4
009411
00B400
00C400
00C400
00C400
00C400
00C400
05D810
00C200
10C000
C76000
ENDCHAR
STARTCHAR uni0285
ENCODING 645
SWIDTH 361 0
DWIDTH 4 0
BBX 6 9 0 -3
BITMAP
A97000
40A200
00A500
00A500
00A500
00A500
009500
008513
0029B6
ENDCHAR
STARTCHAR uni0286
ENCODING 646
SWIDTH 253 0
DWIDTH 3 0
BBX 6 12 -1 -3
BITMAP
0048D3
00C141
00E000
00F000
00F000
00F000
00F000
00F000
00F000
58F100
81D700
995000
ENDCHAR
STARTCHAR uni0287
ENCODING 647
SWIDTH 315 0
DWIDTH 4 0
BBX 4 8 0 -2
BITMAP
6D60
15A0
05A0
05A0
05A0
5AD2
0590
0210
ENDCHAR
STARTCHAR uni0288
ENCODING 648
SWIDTH 309 0
DWIDTH 4 0
BBX 5 11 0 -3
BITMAP
021000
0B2000
4E9400
0D2000
0D2000
0D2000
0D2000
0D2000
0C2000
0A3320
039C40
ENDCHAR
STARTCHAR uni0289
ENCODING 649
SWIDTH 580 0
DWIDTH 7 0
BBX 7 6 0 0
BITMAP
4E21AA00
0D204B00
4E869C30
0D204B00
0B407B00
05D97D30
ENDCHAR
STARTCHAR uni028A
ENCODING 650
SWIDTH 548 0
DWIDTH 7 0
BBX 7 6 0 0
BITMAP
2970D500
0B106600
5B002D00
7A001F10
4C003D00
07879200
ENDCHAR
STARTCHAR uni028B
ENCODING 651
SWIDTH 530 0
DWIDTH 6 0
BBX 6 6 0 0
BITMAP
5E10A5
0E104A
0E1009
0E2007
0C4025
05DB70
ENDCHAR
STARTCHAR uni028C
ENCODING 652
SWIDTH 495 0
DWIDTH 6 0
BBX 7 6 -1 0
BITMAP
00087000
000BC000
0054D300
00908900
02802E00
1A903E90
ENDCHAR
STARTCHAR uni028D
ENCODING 653
SWIDTH 764 0
DWIDTH 9 0
BBX 10 6 0 0
BITMAP
009504A000
00BB08E100
054E26A600
0909C15C00
1804D00E30
A904F72CB2
ENDCHAR
STARTCHAR uni028E
ENCODING 654
SWIDTH 492 0
DWIDTH 6 0
BBX 6 9 0 0
BITMAP
0003DA
000911
004500
009400
01BA00
053E20
080980
1802E1
A903E9
ENDCHAR
STARTCHAR uni028F
ENCODING 655
SWIDTH 454 0
DWIDTH 5 0
BBX 7 6 -1 0
BITMAP
1BC11B40
01D22600
006B7000
000C5000
000B4000
003DA100
ENDCHAR
STARTCHAR uni0290
ENCODING 656
SWIDTH 458 0
DWIDTH 6 0
BBX 7 9 0 -3
BITMAP
6B8BD000
511D4000
00890000
03D10000
0D507100
7E89E000
00008000
00007020
000028B0
ENDCHAR
STARTCHAR uni0291
ENCODING 657
SWIDTH 458 0
DWIDTH 6 0
BBX 6 8 0 -2
BITMAP
6B8BD0
611D40
008900
03D100
0D5572
7E9A83
017000
051000
ENDCHAR
STARTCHAR uni0292
ENCODING 658
SWIDTH 443 0
DWIDTH 5 0
BBX 6 9 0 -3
BITMAP
8A8CC0
601E30
00A800
04D100
026C50
0003E0
0000F2
6203C0
6B6810
ENDCHAR
STARTCHAR uni0293
ENCODING 659
SWIDTH 443 0
DWIDTH 5 0
BBX 6 11 0 -5
BITMAP
8A8CC0
601D30
00B700
05D100
014C60
0003E0
4811F1
8074C0
28BB20
000800
000330
ENDCHAR
STARTCHAR uni0294
ENCODING 660
SWIDTH 383 0
DWIDTH 5 0
BBX 5 9 0 0
BITMAP
385A10
840960
000880
000C40
018700
0C3000
0C3000
0C3000
4E9100
ENDCHAR
STARTCHAR uni0295
ENCODING 661
SWIDTH 383 0
DWIDTH 5 0
BBX 5 9 0 0
BITMAP
386A10
C30A30
E20000
B50000
2A5000
009600
009600
009600
03DB20
ENDCHAR
STARTCHAR uni0296
ENCODING 662
SWIDTH 408 0
DWIDTH 5 0
BBX 5 9 0 0
BITMAP
3C5000
0A5000
0A5000
0A5000
028600
000C40
000880
840960
495910
ENDCHAR
STARTCHAR uni0297
ENCODING 663
SWIDTH 437 0
DWIDTH 5 0
BBX 5 8 0 -2
BITMAP
058B70
1B02A0
670000
860000
970000
790000
2E2170
05DC30
ENDCHAR
STARTCHAR uni0298
ENCODING 664
SWIDTH 736 0
DWIDTH 9 0
BBX 9 9 0 0
BITMAP
0077686000
0A60009700
3D00001E10
8900000C50
9803D10A60
8901700C50
3C00001E10
0950009700
0077686000
ENDCHAR
STARTCHAR uni0299
ENCODING 665
SWIDTH 485 0
DWIDTH 6 0
BBX 6 6 0 0
BITMAP
3E9880
0C30F1
0C9B70
0C31B2
0C30B6
3E86A1
ENDCHAR
STARTCHAR uni029A
ENCODING 666
SWIDTH 500 0
DWIDTH 6 0
BBX 6 6 0 0
BITMAP
2A7960
5900C3
0AA378
590078
8800B3
2B8860
ENDCHAR
STARTCHAR uni029B
ENCODING 667
SWIDTH 536 0
DWIDTH 6 0
BBX 8 8 0 0
BITMAP
00000696
00000801
0687C900
4C001800
89000100
89018910
4D006900
07979500
ENDCHAR
STARTCHAR uni029C
ENCODING 668
SWIDTH 599 0
DWIDTH 7 0
BBX 7 6 0 0
BITMAP
4E906F50
0C300F00
0C866F00
0C300F00
0C300F00
3E906F50
ENDCHAR
STARTCHAR uni029D
ENCODING 669
SWIDTH 263 0
DWIDTH 3 0
BBX 5 11 -1 -3
BITMAP
00D400
004100
04D300
00C300
00C300
00C300
00C300
00C300
37D400
80D610
787000
ENDCHAR
STARTCHAR uni029E
ENCODING 670
SWIDTH 542 0
DWIDTH 7 0
BBX 7 9 0 -3
BITMAP
7F73DA10
06D1A400
008BA400
000BC400
0073A400
3BB0A400
0000A400
0000A400
0000AA10
ENDCHAR
STARTCHAR uni029F
ENCODING 671
SWIDTH 440 0
DWIDTH 5 0
BBX 5 6 0 0
BITMAP
5F8000
0E1000
0E1000
0E1000
0E1050
5F76C0
ENDCHAR
STARTCHAR uni02A0
ENCODING 672
SWIDTH 541 0
DWIDTH 6 0
BBX 8 12 0 -3
BITMAP
000018AB
00007506
0000A400
0688E400
3A00C400
8700B400
9800B400
6D10C400
0AD9C400
0000B400
0000B400
0005EA00
ENDCHAR
STARTCHAR uni02A1
ENCODING 673
SWIDTH 393 0
DWIDTH 5 0
BBX 5 9 0 0
BITMAP
385A10
850870
000790
000B60
017800
0B4000
5D9500
0B4000
4E9200
ENDCHAR
STARTCHAR uni02A2
ENCODING 674
SWIDTH 393 0
DWIDTH 5 0
BBX 5 9 0 0
BITMAP
286A10
B40940
D30000
A60000
1A4000
009700
07CB30
008700
03CB20
ENDCHAR
STARTCHAR uni02A3
ENCODING 675
SWIDTH 830 0
DWIDTH 10 0
BBX 10 9 0 0
BITMAP
0003C50000
0000B50000
0000A50000
0698EA88F7
3B00B507C0
8700A52E30
8800A5B700
5C10BBC017
0AE9BFA8C7
ENDCHAR
STARTCHAR uni02A4
ENCODING 676
SWIDTH 838 0
DWIDTH 10 0
BBX 10 12 0 -3
BITMAP
0003C50000
0000B50000
0000A50000
0699EA88E8
3B00B504E1
8700A51D40
8800A59B00
5C10B526C2
0AE9BA107A
000000004C
0000090078
00000A9670
ENDCHAR
STARTCHAR uni02A5
ENCODING 677
SWIDTH 829 0
DWIDTH 10 0
BBX 10 11 0 -2
BITMAP
0003C50000
0000B50000
0000A50000
0699EA88F7
3B00B506C0
8700A52E30
8800A5A700
5C10B9C275
0AE9BFAB76
0000007100
0000005000
ENDCHAR
STARTCHAR uni02A6
ENCODING 678
SWIDTH 614 0
DWIDTH 7 0
BBX 7 8 0 0
BITMAP
02100000
0B100000
3E8D9890
0D1D2060
0D17E600
0D103CA0
0C3001E0
04A77950
ENDCHAR
STARTCHAR uni02A7
ENCODING 679
SWIDTH 513 0
DWIDTH 6 0
BBX 8 12 0 -3
BITMAP
000038C4
0410A232
1C10D200
4E87E200
0D10D200
0D10D200
0D10D200
0D21D200
09C4D200
0000D200
0050D000
01C87000
ENDCHAR
STARTCHAR uni02A8
ENCODING 680
SWIDTH 687 0
DWIDTH 8 0
BBX 8 8 0 0
BITMAP
02100000
0B100000
3E8476B7
0D156026
0D1A4000
0D1A6465
0D25E508
09B79C95
ENDCHAR
STARTCHAR uni02A9
ENCODING 681
SWIDTH 866 0
DWIDTH 10 0
BBX 10 12 0 -3
BITMAP
028C500000
0942300000
0B30000000
5DA8AD6BC1
0C301E20A5
0C301E0087
0C301E0087
0C301E0087
5EA27F5087
0000000086
0000004094
0000009A80
ENDCHAR
STARTCHAR uni02AA
ENCODING 682
SWIDTH 595 0
DWIDTH 7 0
BBX 7 9 0 0
BITMAP
7D000000
1E000000
1E000000
1E077870
1E0D0060
1E0BD400
1E006E70
0E0004B0
07867930
ENDCHAR
STARTCHAR uni02AB
ENCODING 683
SWIDTH 580 0
DWIDTH 7 0
BBX 7 9 0 0
BITMAP
4D300000
0C300000
0C300000
0C988F40
0C307B00
0C32E200
0C3A7000
0C7C0170
4EEB8C60
ENDCHAR
STARTCHAR uni02AC
ENCODING 684
SWIDTH 599 0
DWIDTH 7 0
BBX 7 9 0 0
BITMAP
8B2D43A0
0D1A7520
0784C600
01B09400
78293280
2C0A4250
0C299610
07A3D600
01D09500
ENDCHAR
STARTCHAR uni02AD
ENCODING 685
SWIDTH 479 0
DWIDTH 6 0
BBX 5 8 0 0
BITMAP
2EEED0
2800A0
2800A0
130040
2EEED0
2800A0
2800A0
2800A0
ENDCHAR
STARTCHAR uni02AE
ENCODING 686
SWIDTH 595 0
DWIDTH 7 0
BBX 9 9 -1 -3
BITMAP
4B8204D300
015800C300
005A00C300
005A00C300
004D01D300
000BC7C300
000000C300
000000C300
000000C910
ENDCHAR
STARTCHAR uni02AF
ENCODING 687
SWIDTH 600 0
DWIDTH 7 0
BBX 10 9 -1 -3
BITMAP
4B8204D300
015800C300
005A00C300
005A00C300
004D01D300
000BC7C300
000000C300
0000009332
00000029C4
ENDCHAR
STARTCHAR uni02B0
ENCODING 688
SWIDTH 488 0
DWIDTH 6 0
BBX 6 7 0 3
BITMAP
5D0000
0D0000
0E8C60
0E12C0
0D00D0
0D00D0
4F35E3
ENDCHAR
STARTCHAR uni02B1
ENCODING 689
SWIDTH 488 0
DWIDTH 6 0
BBX 6 8 0 3
BITMAP
026910
0A0520
0D0000
0E8C60
0E12C0
0D00D0
0D00D0
4F35E3
ENDCHAR
STARTCHAR uni02B2
ENCODING 690
SWIDTH 222 0
DWIDTH 3 0
BBX 3 9 -1 1
BITMAP
01D0
0020
04D0
00D0
00D0
00D0
00D0
20C0
A960
ENDCHAR
STARTCHAR uni02B3
ENCODING 691
SWIDTH 325 0
DWIDTH 4 0
BBX 4 5 0 3
BITMAP
5D8A
0E11
0D00
0D00
4E40
ENDCHAR
STARTCHAR uni02B4
ENCODING 692
SWIDTH 325 0
DWIDTH 4 0
BBX 4 5 0 3
BITMAP
04E5
00C1
00C1
11D1
89C6
ENDCHAR
STARTCHAR uni02B5
ENCODING 693
SWIDTH 325 0
DWIDTH 4 0
BBX 5 7 0 1
BITMAP
04E600
00C100
00C100
11D100
89C100
009120
002760
ENDCHAR
STARTCHAR uni02B6
ENCODING 694
SWIDTH 443 0
DWIDTH 5 0
BBX 6 5 0 3
BITMAP
4E46A1
0D2C10
0E9800
0D0860
3E7B30
ENDCHAR
STARTCHAR uni02B7
ENCODING 695
SWIDTH 653 0
DWIDTH 8 0
BBX 8 5 0 3
BITMAP
AB1B9097
1D06A070
0B47C170
05A58A20
00D12C00
ENDCHAR
STARTCHAR uni02B8
ENCODING 696
SWIDTH 427 0
DWIDTH 5 0
BBX 6 7 0 1
BITMAP
AC15B1
1D0530
096700
03C600
00B100
008000
9B2000
ENDCHAR
STARTCHAR uni02B9
ENCODING 697
SWIDTH 296 0
DWIDTH 4 0
BBX 3 4 0 5
BITMAP
0490
0950
0B00
1500
ENDCHAR
STARTCHAR uni02BA
ENCODING 698
SWIDTH 456 0
DWIDTH 5 0
BBX 5 4 0 5
BITMAP
049580
095A40
0B0B00
152400
ENDCHAR
STARTCHAR uni02BB
ENCODING 699
SWIDTH 245 0
DWIDTH 3 0
BBX 3 4 0 5
BITMAP
0410
2700
3E40
0200
ENDCHAR
STARTCHAR uni02BC
ENCODING 700
SWIDTH 244 0
DWIDTH 3 0
BBX 3 3 0 6
BITMAP
4E10
0820
2500
ENDCHAR
STARTCHAR uni02BD
ENCODING 701
SWIDTH 244 0
DWIDTH 3 0
BBX 3 3 0 6
BITMAP
2E30
3700
0610
ENDCHAR
STARTCHAR uni02BE
ENCODING 702
SWIDTH 203 0
DWIDTH 2 0
BBX 3 3 0 6
BITMAP
7900
0A10
7900
ENDCHAR
STARTCHAR uni02BF
ENCODING 703
SWIDTH 203 0
DWIDTH 2 0
BBX 3 3 0 6
BITMAP
4C10
A100
4C10
ENDCHAR
STARTCHAR uni02C0
ENCODING 704
SWIDTH 364 0
DWIDTH 4 0
BBX 4 6 0 4
BITMAP
1762
551C
001D
0087
0A50
0200
ENDCHAR
STARTCHAR uni02C1
ENCODING 705
SWIDTH 364 0
DWIDTH 4 0
BBX 4 6 0 4
BITMAP
0664
6719
8600
3B20
01D1
0020
ENDCHAR
STARTCHAR uni02C2
ENCODING 706
SWIDTH 324 0
DWIDTH 4 0
BBX 4 4 0 5
BITMAP
0195
4B20
1881
0034
ENDCHAR
STARTCHAR uni02C3
ENCODING 707
SWIDTH 324 0
DWIDTH 4 0
BBX 4 4 0 5
BITMAP
6810
03B3
1881
5200
ENDCHAR
STARTCHAR uni02C4
ENCODING 708
SWIDTH 324 0
DWIDTH 4 0
BBX 4 3 0 6
BITMAP
0860
2991
A129
ENDCHAR
STARTCHAR uni02C5
ENCODING 709
SWIDTH 324 0
DWIDTH 4 0
BBX 4 3 0 6
BITMAP
A129
2891
0860
ENDCHAR
STARTCHAR circumflex
ENCODING 710
SWIDTH 342 0
DWIDTH 4 0
BBX 4 2 0 6
BITMAP
0AB0
4546
ENDCHAR
STARTCHAR caron
ENCODING 711
SWIDTH 342 0
DWIDTH 4 0
BBX 4 2 0 7
BITMAP
5546
0AB0
ENDCHAR
STARTCHAR uni02C8
ENCODING 712
SWIDTH 284 0
DWIDTH 3 0
BBX 1 3 1 6
BITMAP
70
70
70
ENDCHAR
STARTCHAR uni02C9
ENCODING 713
SWIDTH 350 0
DWIDTH 4 0
BBX 4 1 0 7
BITMAP
7BBA
ENDCHAR
STARTCHAR uni02CA
ENCODING 714
SWIDTH 222 0
DWIDTH 3 0
BBX 3 2 0 6
BITMAP
1D20
6400
ENDCHAR
STARTCHAR uni02CB
ENCODING 715
SWIDTH 222 0
DWIDTH 3 0
BBX 3 2 0 6
BITMAP
6A00
0820
ENDCHAR
STARTCHAR uni02CC
ENCODING 716
SWIDTH 284 0
DWIDTH 3 0
BBX 1 3 1 -2
BITMAP
70
70
70
ENDCHAR
STARTCHAR uni02CD
ENCODING 717
SWIDTH 342 0
DWIDTH 4 0
BBX 4 1 0 -2
BITMAP
ABBB
ENDCHAR
STARTCHAR uni02CE
ENCODING 718
SWIDTH 222 0
DWIDTH 3 0
BBX 3 2 0 -3
BITMAP
6A00
0820
ENDCHAR
STARTCHAR uni02CF
ENCODING 719
SWIDTH 223 0
DWIDTH 3 0
BBX 3 2 0 -3
BITMAP
1D20
6400
ENDCHAR
STARTCHAR uni02D0
ENCODING 720
SWIDTH 341 0
DWIDTH 4 0
BBX 2 6 1 0
BITMAP
BC
67
00
00
67
BC
ENDCHAR
STARTCHAR uni02D1
ENCODING 721
SWIDTH 341 0
DWIDTH 4 0
BBX 2 3 1 4
BITMAP
11
BC
67
ENDCHAR
STARTCHAR uni02D2
ENCODING 722
SWIDTH 341 0
DWIDTH 4 0
BBX 4 4 0 1
BITMAP
1B70
0092
0092
1B70
ENDCHAR
STARTCHAR uni02D3
ENCODING 723
SWIDTH 341 0
DWIDTH 4 0
BBX 4 4 0 1
BITMAP
06B2
1A00
1A00
06B2
ENDCHAR
STARTCHAR uni02D4
ENCODING 724
SWIDTH 341 0
DWIDTH 4 0
BBX 4 3 0 2
BITMAP
0230
0340
3993
ENDCHAR
STARTCHAR uni02D5
ENCODING 725
SWIDTH 341 0
DWIDTH 4 0
BBX 4 3 0 2
BITMAP
3993
0340
0230
ENDCHAR
STARTCHAR uni02D6
ENCODING 726
SWIDTH 341 0
DWIDTH 4 0
BBX 4 3 0 2
BITMAP
0010
1992
0340
ENDCHAR
STARTCHAR uni02D7
ENCODING 727
SWIDTH 341 0
DWIDTH 4 0
BBX 4 1 0 3
BITMAP
1772
ENDCHAR
STARTCHAR breve
ENCODING 728
SWIDTH 353 0
DWIDTH 4 0
BBX 4 3 0 6
BITMAP
1001
7107
2AB3
ENDCHAR
STARTCHAR dotaccent
ENCODING 729
SWIDTH 194 0
DWIDTH 2 0
BBX 2 2 0 6
BITMAP
5A
01
ENDCHAR
STARTCHAR ring
ENCODING 730
SWIDTH 265 0
DWIDTH 3 0
BBX 3 3 0 6
BITMAP
3840
8090
3850
ENDCHAR
STARTCHAR ogonek
ENCODING 731
SWIDTH 277 0
DWIDTH 3 0
BBX 3 3 0 -3
BITMAP
0500
7410
5A50
ENDCHAR
STARTCHAR tilde
ENCODING 732
SWIDTH 381 0
DWIDTH 5 0
BBX 5 2 0 7
BITMAP
2B7520
51A900
ENDCHAR
STARTCHAR hungarumlaut
ENCODING 733
SWIDTH 350 0
DWIDTH 4 0
BBX 4 2 0 6
BITMAP
1C88
64A1
ENDCHAR
STARTCHAR uni02DE
ENCODING 734
SWIDTH 205 0
DWIDTH 2 0
BBX 4 2 -1 2
BITMAP
3A13
06B1
ENDCHAR
STARTCHAR uni02DF
ENCODING 735
SWIDTH 302 0
DWIDTH 4 0
BBX 4 3 0 6
BITMAP
5371
0C80
56A1
ENDCHAR
STARTCHAR uni02E0
ENCODING 736
SWIDTH 413 0
DWIDTH 5 0
BBX 5 7 0 1
BITMAP
AC06A0
1D0610
0A4700
04C400
00E100
049600
048400
ENDCHAR
STARTCHAR uni02E1
ENCODING 737
SWIDTH 244 0
DWIDTH 3 0
BBX 3 7 0 3
BITMAP
5D00
0D00
0D00
0D00
0D00
0D00
4E30
ENDCHAR
STARTCHAR uni02E2
ENCODING 738
SWIDTH 337 0
DWIDTH 4 0
BBX 4 5 0 3
BITMAP
4886
8704
1BC2
506A
8785
ENDCHAR
STARTCHAR uni02E3
ENCODING 739
SWIDTH 445 0
DWIDTH 5 0
BBX 5 5 0 3
BITMAP
4E4880
068700
00D400
064C10
5B0CA0
ENDCHAR
STARTCHAR uni02E4
ENCODING 740
SWIDTH 364 0
DWIDTH 4 0
BBX 5 7 0 3
BITMAP
195B20
670520
780000
1C4000
019600
007600
02BA10
ENDCHAR
STARTCHAR uni02E5
ENCODING 741
SWIDTH 423 0
DWIDTH 5 0
BBX 5 9 0 0
BITMAP
5BBB80
000090
000090
000090
000090
000090
000090
000090
000030
ENDCHAR
STARTCHAR uni02E6
ENCODING 742
SWIDTH 414 0
DWIDTH 5 0
BBX 5 10 0 -1
BITMAP
000010
000270
000270
6BBC70
000270
000270
000270
000270
000270
000130
ENDCHAR
STARTCHAR uni02E7
ENCODING 743
SWIDTH 414 0
DWIDTH 5 0
BBX 5 9 0 0
BITMAP
000150
000270
000270
000270
6BBC70
000270
000270
000270
000260
ENDCHAR
STARTCHAR uni02E8
ENCODING 744
SWIDTH 414 0
DWIDTH 5 0
BBX 5 10 0 -1
BITMAP
000010
000270
000270
000270
000270
000270
6BBC70
000270
000270
000130
ENDCHAR
STARTCHAR uni02E9
ENCODING 745
SWIDTH 414 0
DWIDTH 5 0
BBX 5 9 0 0
BITMAP
000150
000270
000270
000270
000270
000270
000270
000270
6BBC60
ENDCHAR
STARTCHAR uni02EC
ENCODING 748
SWIDTH 341 0
DWIDTH 4 0
BBX 4 3 0 -2
BITMAP
4215
2B93
0780
ENDCHAR
STARTCHAR uni02ED
ENCODING 749
SWIDTH 380 0
DWIDTH 5 0
BBX 5 2 0 7
BITMAP
6BBB10
6BBB10
ENDCHAR
STARTCHAR uni02F7
ENCODING 759
SWIDTH 381 0
DWIDTH 5 0
BBX 5 2 0 -2
BITMAP
2B7510
51A900
ENDCHAR
STARTCHAR uni0300
ENCODING 768
SWIDTH 0 0
DWIDTH 0 0
BBX 2 2 -4 6
BITMAP
C4
29
ENDCHAR
STARTCHAR uni0301
ENCODING 769
SWIDTH 0 0
DWIDTH 0 0
BBX 3 2 -4 6
BITMAP
0C50
3700
ENDCHAR
STARTCHAR uni0302
ENCODING 770
SWIDTH 0 0
DWIDTH 0 0
BBX 4 2 -5 6
BITMAP
07C1
2727
ENDCHAR
STARTCHAR uni0303
ENCODING 771
SWIDTH 0 0
DWIDTH 0 0
BBX 5 2 -5 7
BITMAP
2B7520
41A900
ENDCHAR
STARTCHAR uni0304
ENCODING 772
SWIDTH 0 0
DWIDTH 0 0
BBX 4 1 -5 7
BITMAP
6BBB
ENDCHAR
STARTCHAR uni0305
ENCODING 773
SWIDTH 0 0
DWIDTH 0 0
BBX 5 1 -5 7
BITMAP
9BBBB0
ENDCHAR
STARTCHAR uni0306
ENCODING 774
SWIDTH 0 0
DWIDTH 0 0
BBX 4 3 -5 6
BITMAP
1001
6208
1AB5
ENDCHAR
STARTCHAR uni0307
ENCODING 775
SWIDTH 0 0
DWIDTH 0 0
BBX 2 2 -4 6
BITMAP
4B
01
ENDCHAR
STARTCHAR uni0308
ENCODING 776
SWIDTH 0 0
DWIDTH 0 0
BBX 5 2 -5 6
BITMAP
970D20
100100
ENDCHAR
STARTCHAR uni0309
ENCODING 777
SWIDTH 0 0
DWIDTH 0 0
BBX 3 3 -4 6
BITMAP
5720
2560
0800
ENDCHAR
STARTCHAR uni030A
ENCODING 778
SWIDTH 0 0
DWIDTH 0 0
BBX 3 3 -4 6
BITMAP
6810
8260
6820
ENDCHAR
STARTCHAR uni030B
ENCODING 779
SWIDTH 0 0
DWIDTH 0 0
BBX 4 2 -4 6
BITMAP
4AA5
9380
ENDCHAR
STARTCHAR uni030C
ENCODING 780
SWIDTH 0 0
DWIDTH 0 0
BBX 4 2 -5 7
BITMAP
2727
07C1
ENDCHAR
STARTCHAR uni030D
ENCODING 781
SWIDTH 0 0
DWIDTH 0 0
BBX 2 3 -4 6
BITMAP
17
19
19
ENDCHAR
STARTCHAR uni030E
ENCODING 782
SWIDTH 0 0
DWIDTH 0 0
BBX 3 3 -4 6
BITMAP
9350
A460
A460
ENDCHAR
STARTCHAR uni030F
ENCODING 783
SWIDTH 0 0
DWIDTH 0 0
BBX 4 2 -5 6
BITMAP
C6B0
3883
ENDCHAR
STARTCHAR uni0310
ENCODING 784
SWIDTH 0 0
DWIDTH 0 0
BBX 4 3 -5 6
BITMAP
24B2
6218
1AB4
ENDCHAR
STARTCHAR uni0311
ENCODING 785
SWIDTH 0 0
DWIDTH 0 0
BBX 4 3 -5 6
BITMAP
1AB4
6208
1001
ENDCHAR
STARTCHAR uni0312
ENCODING 786
SWIDTH 0 0
DWIDTH 0 0
BBX 2 4 -4 6
BITMAP
03
54
7C
01
ENDCHAR
STARTCHAR uni0313
ENCODING 787
SWIDTH 0 0
DWIDTH 0 0
BBX 2 3 -4 6
BITMAP
6D
0A
32
ENDCHAR
STARTCHAR uni0314
ENCODING 788
SWIDTH 0 0
DWIDTH 0 0
BBX 2 3 -4 6
BITMAP
6C
64
05
ENDCHAR
STARTCHAR uni0315
ENCODING 789
SWIDTH 0 0
DWIDTH 0 0
BBX 2 3 -3 6
BITMAP
C2
B0
30
ENDCHAR
STARTCHAR uni0316
ENCODING 790
SWIDTH 0 0
DWIDTH 0 0
BBX 2 2 -4 -3
BITMAP
C4
29
ENDCHAR
STARTCHAR uni0317
ENCODING 791
SWIDTH 0 0
DWIDTH 0 0
BBX 3 2 -4 -3
BITMAP
0A70
1900
ENDCHAR
STARTCHAR uni0318
ENCODING 792
SWIDTH 0 0
DWIDTH 0 0
BBX 3 3 -4 -3
BITMAP
0100
5A10
0610
ENDCHAR
STARTCHAR uni0319
ENCODING 793
SWIDTH 0 0
DWIDTH 0 0
BBX 3 3 -4 -3
BITMAP
1000
8710
7000
ENDCHAR
STARTCHAR uni031A
ENCODING 794
SWIDTH 0 0
DWIDTH 0 0
BBX 4 3 -5 6
BITMAP
1BC7
0028
0027
ENDCHAR
STARTCHAR uni031B
ENCODING 795
SWIDTH 0 0
DWIDTH 0 0
BBX 3 3 -3 5
BITMAP
0030
01C0
1540
ENDCHAR
STARTCHAR uni031C
ENCODING 796
SWIDTH 0 0
DWIDTH 0 0
BBX 2 3 -4 -3
BITMAP
37
90
37
ENDCHAR
STARTCHAR uni031D
ENCODING 797
SWIDTH 0 0
DWIDTH 0 0
BBX 3 3 -4 -3
BITMAP
0200
0700
7930
ENDCHAR
STARTCHAR uni031E
ENCODING 798
SWIDTH 0 0
DWIDTH 0 0
BBX 3 3 -4 -3
BITMAP
7930
0700
0200
ENDCHAR
STARTCHAR uni031F
ENCODING 799
SWIDTH 0 0
DWIDTH 0 0
BBX 3 3 -4 -3
BITMAP
0100
6B30
0700
ENDCHAR
STARTCHAR uni0320
ENCODING 800
SWIDTH 0 0
DWIDTH 0 0
BBX 3 1 -4 -2
BITMAP
6730
ENDCHAR
STARTCHAR uni0321
ENCODING 801
SWIDTH 0 0
DWIDTH 0 0
BBX 5 4 -6 -3
BITMAP
000920
000C20
180C00
098300
ENDCHAR
STARTCHAR uni0322
ENCODING 802
SWIDTH 0 0
DWIDTH 0 0
BBX 4 4 -3 -3
BITMAP
9200
B300
8454
17A3
ENDCHAR
STARTCHAR uni0323
ENCODING 803
SWIDTH 0 0
DWIDTH 0 0
BBX 2 2 -4 -3
BITMAP
4B
01
ENDCHAR
STARTCHAR uni0324
ENCODING 804
SWIDTH 0 0
DWIDTH 0 0
BBX 5 2 -5 -3
BITMAP
970D20
100100
ENDCHAR
STARTCHAR uni0325
ENCODING 805
SWIDTH 0 0
DWIDTH 0 0
BBX 3 3 -4 -3
BITMAP
6810
8260
6820
ENDCHAR
STARTCHAR uni0326
ENCODING 806
SWIDTH 0 0
DWIDTH 0 0
BBX 2 3 -4 -4
BITMAP
6D
0A
33
ENDCHAR
STARTCHAR uni0327
ENCODING 807
SWIDTH 0 0
DWIDTH 0 0
BBX 3 4 -4 -3
BITMAP
1200
3920
0560
5810
ENDCHAR
STARTCHAR uni0328
ENCODING 808
SWIDTH 0 0
DWIDTH 0 0
BBX 3 3 -4 -3
BITMAP
2400
B010
8930
ENDCHAR
STARTCHAR uni0329
ENCODING 809
SWIDTH 0 0
DWIDTH 0 0
BBX 2 3 -4 -3
BITMAP
01
19
19
ENDCHAR
STARTCHAR uni032A
ENCODING 810
SWIDTH 0 0
DWIDTH 0 0
BBX 4 2 -5 -2
BITMAP
3877
3305
ENDCHAR
STARTCHAR uni032B
ENCODING 811
SWIDTH 0 0
DWIDTH 0 0
BBX 5 2 -5 -2
BITMAP
615410
488800
ENDCHAR
STARTCHAR uni032C
ENCODING 812
SWIDTH 0 0
DWIDTH 0 0
BBX 4 2 -5 -2
BITMAP
2727
07C1
ENDCHAR
STARTCHAR uni032D
ENCODING 813
SWIDTH 0 0
DWIDTH 0 0
BBX 4 2 -5 -2
BITMAP
07D1
2728
ENDCHAR
STARTCHAR uni032E
ENCODING 814
SWIDTH 0 0
DWIDTH 0 0
BBX 4 3 -5 -3
BITMAP
1001
6208
1AB5
ENDCHAR
STARTCHAR uni032F
ENCODING 815
SWIDTH 0 0
DWIDTH 0 0
BBX 4 2 -5 -2
BITMAP
1BB5
5107
ENDCHAR
STARTCHAR uni0330
ENCODING 816
SWIDTH 0 0
DWIDTH 0 0
BBX 4 2 -5 -2
BITMAP
3C66
51B8
ENDCHAR
STARTCHAR uni0331
ENCODING 817
SWIDTH 0 0
DWIDTH 0 0
BBX 4 1 -5 -2
BITMAP
6BBB
ENDCHAR
STARTCHAR uni0332
ENCODING 818
SWIDTH 0 0
DWIDTH 0 0
BBX 7 1 -6 -2
BITMAP
9BBBBB40
ENDCHAR
STARTCHAR uni0333
ENCODING 819
SWIDTH 0 0
DWIDTH 0 0
BBX 7 2 -6 -3
BITMAP
9BBBBB40
9BBBBB40
ENDCHAR
STARTCHAR uni0334
ENCODING 820
SWIDTH 0 0
DWIDTH 0 0
BBX 5 2 -5 2
BITMAP
4C6620
51A900
ENDCHAR
STARTCHAR uni0335
ENCODING 821
SWIDTH 0 0
DWIDTH 0 0
BBX 5 1 -5 3
BITMAP
588810
ENDCHAR
STARTCHAR uni0336
ENCODING 822
SWIDTH 0 0
DWIDTH 0 0
BBX 7 1 -6 3
BITMAP
78888830
ENDCHAR
STARTCHAR uni0337
ENCODING 823
SWIDTH 0 0
DWIDTH 0 0
BBX 4 3 -5 3
BITMAP
0016
0481
2500
ENDCHAR
STARTCHAR uni0338
ENCODING 824
SWIDTH 0 0
DWIDTH 0 0
BBX 6 11 -6 -2
BITMAP
000005
000037
000091
000190
000730
000A00
004500
00A000
028000
082000
190000
ENDCHAR
STARTCHAR uni0339
ENCODING 825
SWIDTH 0 0
DWIDTH 0 0
BBX 3 3 -4 -3
BITMAP
3700
0710
3700
ENDCHAR
STARTCHAR uni033A
ENCODING 826
SWIDTH 0 0
DWIDTH 0 0
BBX 4 2 -5 -2
BITMAP
3306
3877
ENDCHAR
STARTCHAR uni033B
ENCODING 827
SWIDTH 0 0
DWIDTH 0 0
BBX 3 3 -4 -3
BITMAP
8840
7350
8830
ENDCHAR
STARTCHAR uni033C
ENCODING 828
SWIDTH 0 0
DWIDTH 0 0
BBX 4 2 -5 -2
BITMAP
6A7B
1270
ENDCHAR
STARTCHAR uni033D
ENCODING 829
SWIDTH 0 0
DWIDTH 0 0
BBX 3 3 -4 6
BITMAP
6430
5B00
4220
ENDCHAR
STARTCHAR uni033E
ENCODING 830
SWIDTH 0 0
DWIDTH 0 0
BBX 2 5 -4 6
BITMAP
01
37
48
0B
35
ENDCHAR
STARTCHAR uni033F
ENCODING 831
SWIDTH 0 0
DWIDTH 0 0
BBX 6 2 -6 6
BITMAP
1BBBB7
1BBBB7
ENDCHAR
STARTCHAR uni0346
ENCODING 838
SWIDTH 0 0
DWIDTH 0 0
BBX 4 2 -5 6
BITMAP
7CBC
830A
ENDCHAR
STARTCHAR uni0347
ENCODING 839
SWIDTH 0 0
DWIDTH 0 0
BBX 5 2 -5 -3
BITMAP
8BBB20
8BBB20
ENDCHAR
STARTCHAR uni034C
ENCODING 844
SWIDTH 0 0
DWIDTH 0 0
BBX 5 3 -5 6
BITMAP
3BB900
2B7520
41A900
ENDCHAR
STARTCHAR uni034D
ENCODING 845
SWIDTH 0 0
DWIDTH 0 0
BBX 6 3 -6 -4
BITMAP
050032
6EBBCD
050032
ENDCHAR
STARTCHAR uni0359
ENCODING 857
SWIDTH 0 0
DWIDTH 0 0
BBX 4 4 -5 -5
BITMAP
1181
4898
4799
0180
ENDCHAR
STARTCHAR uni035C
ENCODING 860
SWIDTH 0 0
DWIDTH 0 0
BBX 8 3 -4 -3
BITMAP
10000000
A3000039
29BBBB92
ENDCHAR
STARTCHAR uni0360
ENCODING 864
SWIDTH 0 0
DWIDTH 0 0
BBX 6 2 -3 6
BITMAP
7C9304
503AC7
ENDCHAR
STARTCHAR uni0361
ENCODING 865
SWIDTH 0 0
DWIDTH 0 0
BBX 6 2 -3 7
BITMAP
3ABBA2
810017
ENDCHAR
STARTCHAR uni0362
ENCODING 866
SWIDTH 0 0
DWIDTH 0 0
BBX 10 3 -5 -4
BITMAP
0000000050
5BBBBBBBD7
0000000050
ENDCHAR
STARTCHAR uni037E
ENCODING 894
SWIDTH 261 0
DWIDTH 3 0
BBX 3 8 0 -2
BITMAP
0D20
0000
0000
0000
0000
1E50
0460
0600
ENDCHAR
STARTCHAR tonos
ENCODING 900
SWIDTH 165 0
DWIDTH 2 0
BBX 2 3 0 7
BITMAP
11
87
91
ENDCHAR
STARTCHAR dieresistonos
ENCODING 901
SWIDTH 426 0
DWIDTH 5 0
BBX 5 3 0 7
BITMAP
001000
77D780
009000
ENDCHAR
STARTCHAR Alphatonos
ENCODING 902
SWIDTH 718 0
DWIDTH 9 0
BBX 9 10 0 0
BITMAP
1200000000
4A00000000
6403B00000
0009F20000
0019A80000
00745E1000
00B00E6000
05B88CD000
0B1002F500
8D3004ED40
ENDCHAR
STARTCHAR anoteleia
ENCODING 903
SWIDTH 261 0
DWIDTH 3 0
BBX 2 1 1 5
BITMAP
D2
ENDCHAR
STARTCHAR Epsilontonos
ENCODING 904
SWIDTH 745 0
DWIDTH 9 0
BBX 10 10 -1 0
BITMAP
0200000000
0E00000000
2818F989D3
0000F20032
0000F20340
0000F87C40
0000F20330
0000F20004
0000F20037
0017F989E5
ENDCHAR
STARTCHAR Etatonos
ENCODING 905
SWIDTH 896 0
DWIDTH 11 0
BBX 12 10 -1 0
BITMAP
020000000000
0E0000000000
2818F9207F92
0000F2000E20
0000F2000E20
0000F8777F20
0000F2000E20
0000F2000E20
0000F2000E20
0017F9207F92
ENDCHAR
STARTCHAR Iotatonos
ENCODING 906
SWIDTH 478 0
DWIDTH 6 0
BBX 7 10 -1 0
BITMAP
02000000
0E000000
2817F920
0000F200
0000E200
0000E200
0000E200
0000E200
0000E200
0017F920
ENDCHAR
STARTCHAR Omicrontonos
ENCODING 908
SWIDTH 806 0
DWIDTH 10 0
BBX 10 10 -1 0
BITMAP
0200000000
0E00000000
2801987A50
000C6001D5
005D00006D
008B00003F
008B00004F
005E00006C
000C6000C4
0001998940
ENDCHAR
STARTCHAR Upsilontonos
ENCODING 910
SWIDTH 787 0
DWIDTH 9 0
BBX 11 10 -1 0
BITMAP
120000000000
4B0000000000
542BF601AC30
0001D7009100
00004E245000
00000AA90000
000001F40000
000000E20000
000000E20000
000017FA2000
ENDCHAR
STARTCHAR Omegatonos
ENCODING 911
SWIDTH 830 0
DWIDTH 10 0
BBX 11 10 -1 0
BITMAP
020000000000
0E0000000000
28019EFD6000
000CC315E700
004F20007E00
005E00004F00
003F00006C00
001B5000B510
0082A2067450
009FF90FFF30
ENDCHAR
STARTCHAR iotadieresistonos
ENCODING 912
SWIDTH 259 0
DWIDTH 3 0
BBX 5 9 -1 0
BITMAP
00D300
86B780
001000
02E000
03C000
03A000
038000
039000
01DA00
ENDCHAR
STARTCHAR Alpha
ENCODING 913
SWIDTH 718 0
DWIDTH 9 0
BBX 9 8 0 0
BITMAP
0003B00000
0009F20000
0019A80000
00745E1000
00B00E6000
05B88CD000
0B1002F500
8D3004ED40
ENDCHAR
STARTCHAR Beta
ENCODING 914
SWIDTH 618 0
DWIDTH 7 0
BBX 7 8 0 0
BITMAP
3CD89A10
06B00A80
06B00B70
06D8C800
06B00960
06B005E0
06B006D0
3CD67A30
ENDCHAR
STARTCHAR Gamma
ENCODING 915
SWIDTH 569 0
DWIDTH 7 0
BBX 7 8 0 0
BITMAP
8FFFFF80
08A01480
06A00030
06A00000
06A00000
06A00000
08C10000
8FFE0000
ENDCHAR
STARTCHAR Delta
ENCODING 916
SWIDTH 667 0
DWIDTH 8 0
BBX 8 8 0 0
BITMAP
00067000
000BD000
0054D500
00907B00
04601F30
09100A90
280004F1
8FFFFFF7
ENDCHAR
STARTCHAR Epsilon
ENCODING 917
SWIDTH 626 0
DWIDTH 8 0
BBX 8 8 0 0
BITMAP
3CD88AB0
06B00050
06B00700
06D78C00
06B00600
06B00021
06B00091
3BD88BE0
ENDCHAR
STARTCHAR Zeta
ENCODING 918
SWIDTH 594 0
DWIDTH 7 0
BBX 7 8 0 0
BITMAP
3EA99E90
44006D10
0002E400
000C8000
007D0000
03E30020
0C700080
8F999C80
ENDCHAR
STARTCHAR Eta
ENCODING 919
SWIDTH 777 0
DWIDTH 9 0
BBX 9 8 0 0
BITMAP
3CE503BE60
06B0006B00
06B0006B00
06D777AB00
06B0006B00
06B0006B00
06B0006B00
3BE503BE50
ENDCHAR
STARTCHAR Theta
ENCODING 920
SWIDTH 738 0
DWIDTH 9 0
BBX 9 8 0 0
BITMAP
008DFD6000
0AD415E700
2F31015E10
5E1EED2F30
5F16272F30
2F30005F10
0AD314D800
008DFD7000
ENDCHAR
STARTCHAR Iota
ENCODING 921
SWIDTH 357 0
DWIDTH 4 0
BBX 4 8 0 0
BITMAP
3CE5
06A0
06A0
06A0
06A0
06A0
06A0
3BE5
ENDCHAR
STARTCHAR Kappa
ENCODING 922
SWIDTH 702 0
DWIDTH 8 0
BBX 9 8 0 0
BITMAP
3CE51BD600
06A01A2000
06A1910000
06BA100000
06CC700000
06A1D70000
06B01D7000
3BE51AFA20
ENDCHAR
STARTCHAR Lambda
ENCODING 923
SWIDTH 710 0
DWIDTH 9 0
BBX 9 8 0 0
BITMAP
0005A00000
0009E20000
0036990000
00913E1000
02800B8000
082005E100
3C0001F910
EF800BFF70
ENDCHAR
STARTCHAR Mu
ENCODING 924
SWIDTH 895 0
DWIDTH 11 0
BBX 11 8 0 0
BITMAP
4DE10004F910
08D6000AE200
087D0028E200
082E4082E200
0819A090E200
0812F740E200
0810BD00E200
4D914707F910
ENDCHAR
STARTCHAR Nu
ENCODING 925
SWIDTH 742 0
DWIDTH 9 0
BBX 9 8 0 0
BITMAP
4DB001AD30
08E8002800
084F402700
0817E22700
0810AB2700
08101CA700
081002E700
4D91005700
ENDCHAR
STARTCHAR Xi
ENCODING 926
SWIDTH 648 0
DWIDTH 8 0
BBX 8 8 0 0
BITMAP
3FFFFFF0
35000180
01500700
01FEED00
01722700
10000011
64111172
5FFFFFF1
ENDCHAR
STARTCHAR Omicron
ENCODING 927
SWIDTH 738 0
DWIDTH 9 0
BBX 9 8 0 0
BITMAP
00897A7000
0A8000A800
2F10003F10
5E00001F30
5E00001F30
2F10003E00
0A8000A700
0089896000
ENDCHAR
STARTCHAR Pi
ENCODING 928
SWIDTH 759 0
DWIDTH 9 0
BBX 9 8 0 0
BITMAP
8FFFFFFFA0
09B0009A00
06B0009800
06B0009800
06B0009800
06B0009800
08C101BA10
8FFC0BFFA0
ENDCHAR
STARTCHAR Rho
ENCODING 929
SWIDTH 569 0
DWIDTH 7 0
BBX 7 8 0 0
BITMAP
2BD8A900
06B00D60
06B00A70
06B01D20
06D88300
06B00000
06B00000
3BE60000
ENDCHAR
STARTCHAR Sigma
ENCODING 931
SWIDTH 604 0
DWIDTH 7 0
BBX 7 8 0 0
BITMAP
8FFFFF70
1C701570
02D50030
003E2000
001A0000
00910030
09300290
7FFFFF90
ENDCHAR
STARTCHAR Tau
ENCODING 932
SWIDTH 603 0
DWIDTH 7 0
BBX 7 8 0 0
BITMAP
BA8FA9E0
800E3080
100E3010
000E3000
000E3000
000E3000
000E3000
017F9200
ENDCHAR
STARTCHAR Upsilon
ENCODING 933
SWIDTH 647 0
DWIDTH 8 0
BBX 8 8 0 0
BITMAP
8FA105E6
09B00640
01D51900
005E8200
000B8000
000A7000
000A7000
005DC400
ENDCHAR
STARTCHAR Phi
ENCODING 934
SWIDTH 718 0
DWIDTH 9 0
BBX 9 8 0 0
BITMAP
007FFF0000
0029E51000
1B76D4B700
7B04D02F10
8A04D01F20
3E24D06C00
038AE77100
007FFF0000
ENDCHAR
STARTCHAR Chi
ENCODING 935
SWIDTH 664 0
DWIDTH 8 0
BBX 8 8 0 0
BITMAP
5DE308D5
03F30920
008B5500
001DA000
001AE200
00919B00
06501E60
7E402DE6
ENDCHAR
STARTCHAR Psi
ENCODING 936
SWIDTH 720 0
DWIDTH 9 0
BBX 9 8 0 0
BITMAP
D76FFF1B80
5E06E24E10
3E03D04C00
3F03D05C00
0E73D1CA00
04DFFFB100
0005E20000
006FFF1000
ENDCHAR
STARTCHAR Omega
ENCODING 937
SWIDTH 777 0
DWIDTH 9 0
BBX 9 8 0 0
BITMAP
006CFE9100
07E513CC00
0E70002F40
0F40000E50
0D60001F30
16B0006A10
537602A280
4FFF0AFF80
ENDCHAR
STARTCHAR Iotadieresis
ENCODING 938
SWIDTH 357 0
DWIDTH 4 0
BBX 5 10 0 0
BITMAP
B62F10
210300
3CE500
06A000
06A000
06A000
06A000
06A000
06A000
3BE500
ENDCHAR
STARTCHAR Upsilondieresis
ENCODING 939
SWIDTH 647 0
DWIDTH 8 0
BBX 8 10 0 0
BITMAP
00C52E00
00200300
8FA105E6
09B00640
01D51900
005E8200
000B8000
000A7000
000A7000
005DC400
ENDCHAR
STARTCHAR alphatonos
ENCODING 940
SWIDTH 561 0
DWIDTH 7 0
BBX 7 10 0 0
BITMAP
00020000
000E0000
00280000
00000000
07EC2E20
4A13B900
8100B100
8000C000
6507A220
1CD46D40
ENDCHAR
STARTCHAR epsilontonos
ENCODING 941
SWIDTH 381 0
DWIDTH 5 0
BBX 5 10 0 0
BITMAP
001200
004A00
006400
000000
19EE30
581300
187100
364100
771510
2CFC10
ENDCHAR
STARTCHAR etatonos
ENCODING 942
SWIDTH 510 0
DWIDTH 6 0
BBX 6 13 0 -3
BITMAP
000210
000B40
000A00
000000
9D1DB0
4A8393
087055
093045
0C2055
0E1075
000094
0000C3
000091
ENDCHAR
STARTCHAR iotatonos
ENCODING 943
SWIDTH 259 0
DWIDTH 3 0
BBX 3 10 0 0
BITMAP
0210
0B40
0A00
0000
2E00
3C00
3A00
3800
3900
1DA0
ENDCHAR
STARTCHAR upsilondieresistonos
ENCODING 944
SWIDTH 491 0
DWIDTH 6 0
BBX 7 9 -1 0
BITMAP
000A6000
059A5A00
00010000
09D03600
13D00920
00B00750
00900940
00B14D10
007FD400
ENDCHAR
STARTCHAR alpha
ENCODING 945
SWIDTH 561 0
DWIDTH 7 0
BBX 7 6 0 0
BITMAP
07EC2E20
4A13B900
8100B100
8000C000
6507A220
1CD46D40
ENDCHAR
STARTCHAR beta
ENCODING 946
SWIDTH 530 0
DWIDTH 6 0
BBX 6 12 0 -3
BITMAP
007ED2
049148
091017
0A0171
0A6B70
2A0037
3B000B
4D404B
4A9EC3
5A0000
6A0000
440000
ENDCHAR
STARTCHAR gamma
ENCODING 947
SWIDTH 466 0
DWIDTH 6 0
BBX 6 9 0 -3
BITMAP
9D10E4
3764C0
018950
008B00
00A600
00B100
01D000
05C000
059000
ENDCHAR
STARTCHAR delta
ENCODING 948
SWIDTH 479 0
DWIDTH 6 0
BBX 6 9 0 0
BITMAP
05ED50
0824C1
01A200
029E40
1C65D0
7200A3
800094
6714D1
1BFC30
ENDCHAR
STARTCHAR epsilon
ENCODING 949
SWIDTH 381 0
DWIDTH 5 0
BBX 5 6 0 0
BITMAP
19EE30
581300
187100
364100
771510
2CFC10
ENDCHAR
STARTCHAR zeta
ENCODING 950
SWIDTH 386 0
DWIDTH 5 0
BBX 5 13 0 -4
BITMAP
015000
0573C0
01BC50
04B100
0B1000
540000
700000
810000
4E9500
05AE70
000190
018920
017100
ENDCHAR
STARTCHAR eta
ENCODING 951
SWIDTH 510 0
DWIDTH 6 0
BBX 6 9 0 -3
BITMAP
9D1DB0
4A8393
087055
093045
0C2055
0E1075
000094
0000C3
000091
ENDCHAR
STARTCHAR theta
ENCODING 952
SWIDTH 514 0
DWIDTH 6 0
BBX 6 9 0 0
BITMAP
02CE50
0B42C1
280056
540018
6EEEE9
552228
370036
0B32B1
03DE50
ENDCHAR
STARTCHAR iota
ENCODING 953
SWIDTH 259 0
DWIDTH 3 0
BBX 3 6 0 0
BITMAP
2E00
3C00
3A00
3800
3900
1DA0
ENDCHAR
STARTCHAR kappa
ENCODING 954
SWIDTH 495 0
DWIDTH 6 0
BBX 7 6 -1 0
BITMAP
09E11A70
13B3B810
00995000
00996000
00A3A220
00D24E70
ENDCHAR
STARTCHAR lambda
ENCODING 955
SWIDTH 506 0
DWIDTH 6 0
BBX 7 9 0 0
BITMAP
07C10000
04760000
00080000
002B0000
00AA0000
02B81000
0A574000
2E04A210
A901DA00
ENDCHAR
STARTCHAR mu
ENCODING 956
SWIDTH 552 0
DWIDTH 7 0
BBX 7 9 0 -3
BITMAP
2E00A600
2C00A300
2A00A100
1900D000
2D17A220
5AD85D40
67000000
78000000
43000000
ENDCHAR
STARTCHAR nu
ENCODING 957
SWIDTH 453 0
DWIDTH 5 0
BBX 7 7 -1 -1
BITMAP
0AD02B00
13A40E20
00551E00
00456900
0036C100
004D3000
00120000
ENDCHAR
STARTCHAR xi
ENCODING 958
SWIDTH 390 0
DWIDTH 5 0
BBX 5 12 0 -3
BITMAP
080000
097B80
097200
1A0000
079D10
350100
800000
7A4100
1BFE50
0026A0
000270
00E900
ENDCHAR
STARTCHAR omicron
ENCODING 959
SWIDTH 475 0
DWIDTH 6 0
BBX 6 6 0 0
BITMAP
06EE50
3A22B1
810053
800053
6913B0
09EC40
ENDCHAR
STARTCHAR pi
ENCODING 960
SWIDTH 591 0
DWIDTH 7 0
BBX 7 6 0 0
BITMAP
3CFFFFC0
41706300
00808100
0290A100
0860B420
1E207E40
ENDCHAR
STARTCHAR rho
ENCODING 961
SWIDTH 515 0
DWIDTH 6 0
BBX 6 9 0 -3
BITMAP
02BEB1
0A5168
190009
2A0009
3D4186
49AE90
4A0000
4B0000
260000
ENDCHAR
STARTCHAR uni03C2
ENCODING 962
SWIDTH 377 0
DWIDTH 5 0
BBX 5 9 0 -3
BITMAP
07EE30
481210
700000
820000
4D6000
07ED20
001770
001450
01D700
ENDCHAR
STARTCHAR sigma
ENCODING 963
SWIDTH 545 0
DWIDTH 7 0
BBX 7 6 0 0
BITMAP
06DFFF70
3B318100
72006400
82006600
5913C300
0AFD6000
ENDCHAR
STARTCHAR tau
ENCODING 964
SWIDTH 392 0
DWIDTH 5 0
BBX 5 6 0 0
BITMAP
6EFFA0
518000
009000
029000
03B210
01DB00
ENDCHAR
STARTCHAR upsilon
ENCODING 965
SWIDTH 491 0
DWIDTH 6 0
BBX 7 6 -1 0
BITMAP
09D03600
13D00920
00B00750
00900940
00B14D10
007FD400
ENDCHAR
STARTCHAR phi
ENCODING 966
SWIDTH 603 0
DWIDTH 7 0
BBX 7 10 0 -3
BITMAP
00100000
08E2CD20
4A185390
710A0090
710A00A0
391A2950
06DFC500
000D0000
002E0000
00270000
ENDCHAR
STARTCHAR chi
ENCODING 967
SWIDTH 462 0
DWIDTH 6 0
BBX 7 9 -1 -3
BITMAP
0BC009A0
12652E10
00099600
0009B000
000C3000
007A5000
02D19000
0B60B220
5D005E50
ENDCHAR
STARTCHAR psi
ENCODING 968
SWIDTH 620 0
DWIDTH 7 0
BBX 7 12 0 -3
BITMAP
00087000
00086000
00074000
9D184630
3D1831B0
0A0830C0
090921C0
0B395B70
03DFD700
000B2000
000C3000
00071000
ENDCHAR
STARTCHAR omega
ENCODING 969
SWIDTH 660 0
DWIDTH 8 0
BBX 8 6 0 0
BITMAP
05A00350
3C2340A1
72098066
80084057
571951B4
0BE49E90
ENDCHAR
STARTCHAR iotadieresis
ENCODING 970
SWIDTH 259 0
DWIDTH 3 0
BBX 5 8 -1 0
BITMAP
5A0A50
000000
02E000
03C000
03A000
038000
039000
01DA00
ENDCHAR
STARTCHAR upsilondieresis
ENCODING 971
SWIDTH 491 0
DWIDTH 6 0
BBX 7 8 -1 0
BITMAP
02D07800
00000000
09D03600
13D00920
00B00750
00900940
00B14D10
007FD400
ENDCHAR
STARTCHAR omicrontonos
ENCODING 972
SWIDTH 475 0
DWIDTH 6 0
BBX 6 10 0 0
BITMAP
000200
000E10
001800
000000
06EE50
3A22B1
810053
800053
6913B0
09EC40
ENDCHAR
STARTCHAR upsilontonos
ENCODING 973
SWIDTH 491 0
DWIDTH 6 0
BBX 7 10 -1 0
BITMAP
00012000
0004B000
00054000
00000000
09D03600
13D00920
00B00750
00900940
00B14D10
007FD400
ENDCHAR
STARTCHAR omegatonos
ENCODING 974
SWIDTH 660 0
DWIDTH 8 0
BBX 8 10 0 0
BITMAP
00002000
0003B000
00055000
00000000
05A00350
3C2340A1
72098066
80084057
571951B4
0BE49E90
ENDCHAR
STARTCHAR uni03D0
ENCODING 976
SWIDTH 438 0
DWIDTH 5 0
BBX 5 9 0 0
BITMAP
007E80
057180
0B5170
28AF60
4BCC30
5C4380
3B0060
0E4290
04DD30
ENDCHAR
STARTCHAR uni03D1
ENCODING 977
SWIDTH 541 0
DWIDTH 6 0
BBX 7 9 0 0
BITMAP
01CE5000
0742B100
07005400
04501800
006DEF10
4D401800
58602700
0471A300
01CF8000
ENDCHAR
STARTCHAR uni03D2
ENCODING 978
SWIDTH 616 0
DWIDTH 7 0
BBX 8 8 0 0
BITMAP
5EC21BE3
22B884B4
003B8000
000E6000
000D4000
000D3000
002E6000
02FFF700
ENDCHAR
STARTCHAR uni03D5
ENCODING 981
SWIDTH 575 0
DWIDTH 7 0
BBX 7 12 0 -3
BITMAP
00053000
000B4000
000C2000
02AEB300
1D7D6D10
730C0460
800B0260
760B0930
1CCED800
005C2000
004A0000
006A0000
ENDCHAR
STARTCHAR uni03D6
ENCODING 982
SWIDTH 821 0
DWIDTH 10 0
BBX 10 6 0 0
BITMAP
5DFFFFFFFC
51B2120650
04505B0390
05405802A0
02A1771970
008E76EB00
ENDCHAR
STARTCHAR uni03D8
ENCODING 984
SWIDTH 627 0
DWIDTH 8 0
BBX 8 8 0 0
BITMAP
04CFE910
3F613CB0
8C0004F1
8B0003F0
3E0006A0
05977910
000C4000
006EA300
ENDCHAR
STARTCHAR uni03D9
ENCODING 985
SWIDTH 475 0
DWIDTH 6 0
BBX 6 9 0 -3
BITMAP
06EE50
3B22C1
820053
800053
6812B1
0AFD40
00A100
00C300
009200
ENDCHAR
STARTCHAR uni03DA
ENCODING 986
SWIDTH 578 0
DWIDTH 7 0
BBX 7 8 0 0
BITMAP
04CFFF50
2E612B50
7B000340
8B000000
4F610000
06EFD000
0004E000
002AF700
ENDCHAR
STARTCHAR uni03DB
ENCODING 987
SWIDTH 490 0
DWIDTH 6 0
BBX 6 9 0 -3
BITMAP
04BEFD
293101
700000
820000
4D5000
08FC10
001950
001620
04D500
ENDCHAR
STARTCHAR uni03DC
ENCODING 988
SWIDTH 588 0
DWIDTH 7 0
BBX 7 8 0 0
BITMAP
3CD88AC0
06B00050
06B00700
06D79C00
06B00600
06B00000
06B00000
3BE60000
ENDCHAR
STARTCHAR uni03DD
ENCODING 989
SWIDTH 386 0
DWIDTH 5 0
BBX 7 10 -2 -4
BITMAP
001FFF70
000C0000
000B0000
000DBA00
000A0100
00080000
00260000
10820000
2EA00000
01000000
ENDCHAR
STARTCHAR uni03DE
ENCODING 990
SWIDTH 525 0
DWIDTH 6 0
BBX 6 8 0 0
BITMAP
08FF20
01A200
071000
6EEEEC
122265
000180
001A30
00CFD0
ENDCHAR
STARTCHAR uni03DF
ENCODING 991
SWIDTH 434 0
DWIDTH 5 0
BBX 7 8 -1 0
BITMAP
1C900000
22B00000
00800000
0176A300
05D9A000
00008000
0000B210
0000DA00
ENDCHAR
STARTCHAR uni03E0
ENCODING 992
SWIDTH 697 0
DWIDTH 8 0
BBX 9 8 0 0
BITMAP
001E300000
0008B00000
0009E40000
00458C0000
00A09E5000
065556D000
1A0A02F800
74650CFF60
ENDCHAR
STARTCHAR uni03E1
ENCODING 993
SWIDTH 458 0
DWIDTH 6 0
BBX 6 11 -1 -3
BITMAP
2D5000
05E800
002C50
0005D1
06D875
02202A
003BAB
00250A
00000A
000009
000007
ENDCHAR
STARTCHAR uni03F0
ENCODING 1008
SWIDTH 504 0
DWIDTH 6 0
BBX 7 6 0 0
BITMAP
8D008C00
3843D200
044C4000
04BC0000
09B64110
5E21CC00
ENDCHAR
STARTCHAR uni03F1
ENCODING 1009
SWIDTH 467 0
DWIDTH 6 0
BBX 6 9 0 -3
BITMAP
03DE60
0A22B1
360072
5A01B1
5AEF70
1C2100
05E700
001A00
05D400
ENDCHAR
STARTCHAR uni03F4
ENCODING 1012
SWIDTH 737 0
DWIDTH 9 0
BBX 9 8 0 0
BITMAP
008DFD7000
0AB314C800
2F10003E10
5FEEEEEF30
5E22223F30
2F30005E00
0AC314D700
008DFD6000
ENDCHAR
STARTCHAR uni03F5
ENCODING 1013
SWIDTH 380 0
DWIDTH 5 0
BBX 5 6 0 0
BITMAP
07EE20
451200
8EE700
832000
591610
09EC10
ENDCHAR
STARTCHAR uni03F6
ENCODING 1014
SWIDTH 382 0
DWIDTH 5 0
BBX 5 6 0 0
BITMAP
7ED300
112800
0DEE10
012910
523C00
6ED400
ENDCHAR
STARTCHAR uni0400
ENCODING 1024
SWIDTH 626 0
DWIDTH 8 0
BBX 8 11 0 0
BITMAP
00370000
00068000
00000000
3CD88AB0
06B00050
06B00700
06D78C00
06B00600
06B00021
06B00091
3BD88BE0
ENDCHAR
STARTCHAR uni0401
ENCODING 1025
SWIDTH 626 0
DWIDTH 8 0
BBX 8 10 0 0
BITMAP
01F16B00
00301200
3CD88AB0
06B00050
06B00700
06D78C00
06B00600
06B00021
06B00091
3BD88BE0
ENDCHAR
STARTCHAR uni0402
ENCODING 1026
SWIDTH 731 0
DWIDTH 9 0
BBX 9 8 0 0
BITMAP
AB8F99E200
800E205300
000E200000
000E99B600
000E302E30
000E200B60
000E330C40
006F4D5800
ENDCHAR
STARTCHAR uni0403
ENCODING 1027
SWIDTH 548 0
DWIDTH 7 0
BBX 7 11 0 0
BITMAP
00037000
002A2000
00000000
3CD89D40
06B00440
06B00120
06B00000
06B00000
06B00000
06B00000
3BE60000
ENDCHAR
STARTCHAR uni0404
ENCODING 1028
SWIDTH 668 0
DWIDTH 8 0
BBX 8 8 0 0
BITMAP
01898CF4
0B6000A4
3E000033
5E888600
5D000000
3F100000
0BA00064
019CBB50
ENDCHAR
STARTCHAR uni0405
ENCODING 1029
SWIDTH 504 0
DWIDTH 6 0
BBX 6 8 0 0
BITMAP
0889F3
5A0074
4E3012
08F810
003CD2
4000B8
830088
7E9891
ENDCHAR
STARTCHAR uni0406
ENCODING 1030
SWIDTH 357 0
DWIDTH 4 0
BBX 4 8 0 0
BITMAP
3CE5
06A0
06A0
06A0
06A0
06A0
06A0
3BE5
ENDCHAR
STARTCHAR uni0407
ENCODING 1031
SWIDTH 357 0
DWIDTH 4 0
BBX 5 10 0 0
BITMAP
B62F10
210300
3CE500
06A000
06A000
06A000
06A000
06A000
06A000
3BE500
ENDCHAR
STARTCHAR uni0408
ENCODING 1032
SWIDTH 396 0
DWIDTH 5 0
BBX 5 8 0 0
BITMAP
06EC30
00B600
00B600
00B600
00B600
00B600
60B500
B9A100
ENDCHAR
STARTCHAR uni0409
ENCODING 1033
SWIDTH 924 0
DWIDTH 11 0
BBX 12 8 -1 0
BITMAP
0028B8CC4000
000360980000
000450980000
0006309B8960
0008009801D7
00090098008A
0557009800B7
2EB004DB8A80
ENDCHAR
STARTCHAR uni040A
ENCODING 1034
SWIDTH 1013 0
DWIDTH 12 0
BBX 12 8 0 0
BITMAP
3CE504CD4000
06B000890000
06B000890000
06D999CC9A70
06B0008901C8
06B00089007B
06B0008900A8
3BE503DC8991
ENDCHAR
STARTCHAR uni040B
ENCODING 1035
SWIDTH 761 0
DWIDTH 9 0
BBX 9 8 0 0
BITMAP
AB8F99E200
800E205300
000E200000
000E89B400
000E304E00
000E201F10
000E201F10
017F918F70
ENDCHAR
STARTCHAR uni040C
ENCODING 1036
SWIDTH 658 0
DWIDTH 8 0
BBX 8 11 0 0
BITMAP
00005500
00058000
00000000
3BE504E9
06B00923
06B03600
06D8C000
06B0B700
06B03E10
06B00B80
3BE504E7
ENDCHAR
STARTCHAR uni040D
ENCODING 1037
SWIDTH 780 0
DWIDTH 9 0
BBX 9 11 0 0
BITMAP
0037000000
0005800000
0000000000
3CE503BE60
06B0008C00
06B005AC00
06B0375C00
06B1805C00
06B9005C00
06E2005C00
3BE503BE60
ENDCHAR
STARTCHAR uni040E
ENCODING 1038
SWIDTH 625 0
DWIDTH 8 0
BBX 8 11 0 0
BITMAP
00C21D00
00566500
00000000
8F9007E5
0A700460
02E10900
00982600
001E9100
00087000
05291000
0CE40000
ENDCHAR
STARTCHAR uni040F
ENCODING 1039
SWIDTH 759 0
DWIDTH 9 0
BBX 9 11 0 -3
BITMAP
3CE504DC40
06B0009800
06B0009800
06B0009800
06B0009800
06B0009800
06B0009800
3BD888CC40
0000900000
0000E10000
0000D10000
ENDCHAR
STARTCHAR uni0410
ENCODING 1040
SWIDTH 718 0
DWIDTH 9 0
BBX 9 8 0 0
BITMAP
0003B00000
0009F20000
0019A80000
00745E1000
00B00E6000
05B88CD000
0B1002F500
8D3004ED40
ENDCHAR
STARTCHAR uni0411
ENCODING 1041
SWIDTH 617 0
DWIDTH 7 0
BBX 7 8 0 0
BITMAP
3CD89D60
06B00260
06B00000
06D89700
06B00B90
06B006D0
06B008A0
3CD89A10
ENDCHAR
STARTCHAR uni0412
ENCODING 1042
SWIDTH 618 0
DWIDTH 7 0
BBX 7 8 0 0
BITMAP
3CD89A10
06B00A80
06B00B70
06D8C800
06B00960
06B005E0
06B006D0
3CD67A30
ENDCHAR
STARTCHAR uni0413
ENCODING 1043
SWIDTH 548 0
DWIDTH 7 0
BBX 7 8 0 0
BITMAP
3CD89D40
06B00440
06B00120
06B00000
06B00000
06B00000
06B00000
3BE60000
ENDCHAR
STARTCHAR uni0414
ENCODING 1044
SWIDTH 663 0
DWIDTH 8 0
BBX 8 11 0 -3
BITMAP
04C98DB3
00900C50
00900C50
00900C50
01900C50
05400C50
0A000C50
AB777DB3
D2000087
90000026
20000002
ENDCHAR
STARTCHAR uni0415
ENCODING 1045
SWIDTH 626 0
DWIDTH 8 0
BBX 8 8 0 0
BITMAP
3CD88AB0
06B00050
06B00700
06D78C00
06B00600
06B00021
06B00091
3BD88BE0
ENDCHAR
STARTCHAR uni0416
ENCODING 1046
SWIDTH 937 0
DWIDTH 11 0
BBX 12 8 0 0
BITMAP
9D307F921CD0
33900E207340
00720E208000
001D8E8C3000
00890E26B000
01E20E20D400
08A00E206C00
7E307F920D82
ENDCHAR
STARTCHAR uni0417
ENCODING 1047
SWIDTH 545 0
DWIDTH 7 0
BBX 7 8 0 0
BITMAP
3B87A300
48007B00
3200A900
007D9000
00008800
00002F10
43007E00
07ACC300
ENDCHAR
STARTCHAR uni0418
ENCODING 1048
SWIDTH 780 0
DWIDTH 9 0
BBX 9 8 0 0
BITMAP
3CE503BE60
06B0008C00
06B005AC00
06B0375C00
06B1805C00
06B9005C00
06E2005C00
3BE503BE60
ENDCHAR
STARTCHAR uni0419
ENCODING 1049
SWIDTH 780 0
DWIDTH 9 0
BBX 9 11 0 0
BITMAP
002C078000
003B069000
0005671000
3CE503BE60
06B0008C00
06B005AC00
06B0375C00
06B1805C00
06B9005C00
06E2005C00
3BE503BE60
ENDCHAR
STARTCHAR uni041A
ENCODING 1050
SWIDTH 658 0
DWIDTH 8 0
BBX 8 8 0 0
BITMAP
3BE504E9
06B00923
06B03600
06D8C000
06B0B700
06B03E10
06B00B80
3BE504E7
ENDCHAR
STARTCHAR uni041B
ENCODING 1051
SWIDTH 684 0
DWIDTH 8 0
BBX 9 8 -1 0
BITMAP
0029B8CD50
0003608900
0004508900
0006308900
0008008900
0009008900
0557008900
2EB104CD50
ENDCHAR
STARTCHAR uni041C
ENCODING 1052
SWIDTH 895 0
DWIDTH 11 0
BBX 11 8 0 0
BITMAP
4DE10004F910
08D6000AE200
087D0028E200
082E4082E200
0819A090E200
0812F740E200
0810BD00E200
4D914707F910
ENDCHAR
STARTCHAR uni041D
ENCODING 1053
SWIDTH 777 0
DWIDTH 9 0
BBX 9 8 0 0
BITMAP
3CE503BE60
06B0006B00
06B0006B00
06D777AB00
06B0006B00
06B0006B00
06B0006B00
3BE503BE50
ENDCHAR
STARTCHAR uni041E
ENCODING 1054
SWIDTH 738 0
DWIDTH 9 0
BBX 9 8 0 0
BITMAP
00897A7000
0A8000A800
2F10003F10
5E00001F30
5E00001F30
2F10003E00
0A8000A700
0089896000
ENDCHAR
STARTCHAR uni041F
ENCODING 1055
SWIDTH 759 0
DWIDTH 9 0
BBX 9 8 0 0
BITMAP
8FFFFFFFA0
09B0009A00
06B0009800
06B0009800
06B0009800
06B0009800
08C101BA10
8FFC0BFFA0
ENDCHAR
STARTCHAR uni0420
ENCODING 1056
SWIDTH 569 0
DWIDTH 7 0
BBX 7 8 0 0
BITMAP
2BD8A900
06B00D60
06B00A70
06B01D20
06D88300
06B00000
06B00000
3BE60000
ENDCHAR
STARTCHAR uni0421
ENCODING 1057
SWIDTH 670 0
DWIDTH 8 0
BBX 8 8 0 0
BITMAP
007A8CF5
0A900095
2F100034
5D000000
5D000000
3F200000
0AB10044
018DBA60
ENDCHAR
STARTCHAR uni0422
ENCODING 1058
SWIDTH 603 0
DWIDTH 7 0
BBX 7 8 0 0
BITMAP
BA8FA9E0
800E3080
100E3010
000E3000
000E3000
000E3000
000E3000
017F9200
ENDCHAR
STARTCHAR uni0423
ENCODING 1059
SWIDTH 625 0
DWIDTH 8 0
BBX 8 8 0 0
BITMAP
8F9007E5
0A700460
02E10900
00982600
001E9100
00087000
05291000
0CE40000
ENDCHAR
STARTCHAR uni0424
ENCODING 1060
SWIDTH 725 0
DWIDTH 9 0
BBX 9 8 0 0
BITMAP
0029F60000
0398E89200
3D13D06D00
7A03D00E30
7A03D00E20
2E33D06B00
0289E76000
0029F60000
ENDCHAR
STARTCHAR uni0425
ENCODING 1061
SWIDTH 664 0
DWIDTH 8 0
BBX 8 8 0 0
BITMAP
5DE308D5
03F30920
008B5500
001DA000
001AE200
00919B00
06501E60
7E402DE6
ENDCHAR
STARTCHAR uni0426
ENCODING 1062
SWIDTH 756 0
DWIDTH 9 0
BBX 9 11 0 -3
BITMAP
3CE505DC40
06B000A700
06B000A700
06B000A700
06B000A700
06B000A700
06B000A700
3BD777CC40
0000000680
0000000180
0000000020
ENDCHAR
STARTCHAR uni0427
ENCODING 1063
SWIDTH 650 0
DWIDTH 8 0
BBX 8 8 0 0
BITMAP
7F907FA2
0F200E30
0F200E30
0D500E30
04B97E30
00000E30
00000E30
00017FA2
ENDCHAR
STARTCHAR uni0428
ENCODING 1064
SWIDTH 1053 0
DWIDTH 13 0
BBX 13 8 0 0
BITMAP
3CE42AF618F810
06A004D001F100
06A003D000F100
06A003D000F100
06A003D000F100
06A003D000F100
06A003D000F100
3BD88AE889F810
ENDCHAR
STARTCHAR uni0429
ENCODING 1065
SWIDTH 1044 0
DWIDTH 13 0
BBX 12 11 0 -3
BITMAP
3CE42AE519F7
06A004C003E0
06A004C003E0
06A004C003E0
06A004C003E0
06A004C003E0
06A004C003E0
3BD88AD889F9
00000000001D
000000000009
000000000002
ENDCHAR
STARTCHAR uni042A
ENCODING 1066
SWIDTH 723 0
DWIDTH 9 0
BBX 9 8 0 0
BITMAP
BA8E920000
700D300000
000D300000
000D99A300
000D305E10
000D300F40
000D302F20
007F98A400
ENDCHAR
STARTCHAR uni042B
ENCODING 1067
SWIDTH 887 0
DWIDTH 11 0
BBX 11 8 0 0
BITMAP
3BE60018F810
06B00001F100
06B00001F100
06D89601F100
06B01D61F100
06B008A1F100
06B00B71F100
3CD89828F810
ENDCHAR
STARTCHAR uni042C
ENCODING 1068
SWIDTH 606 0
DWIDTH 7 0
BBX 7 8 0 0
BITMAP
4CE60000
06B00000
06B00000
06D8A710
06B00BA0
06B006D0
06B008A0
3CD89A10
ENDCHAR
STARTCHAR uni042D
ENCODING 1069
SWIDTH 667 0
DWIDTH 8 0
BBX 8 8 0 0
BITMAP
4FC9A910
4A0006C0
430000E3
006888E6
000000D5
000001F2
45000A90
05BBC800
ENDCHAR
STARTCHAR uni042E
ENCODING 1070
SWIDTH 1042 0
DWIDTH 13 0
BBX 12 8 0 0
BITMAP
4DE702988A40
06A00D6001E4
06A05E00008A
06D7BB00005D
06A06C00005D
06A03E00007A
06A00B5000C3
3BE501876840
ENDCHAR
STARTCHAR uni042F
ENCODING 1071
SWIDTH 654 0
DWIDTH 8 0
BBX 8 8 0 0
BITMAP
02A87EA2
0A900D40
0C600D40
07C10D40
007E8E40
00C70D40
07C00D40
7E406FA2
ENDCHAR
STARTCHAR uni0430
ENCODING 1072
SWIDTH 480 0
DWIDTH 6 0
BBX 6 6 0 0
BITMAP
085B30
390680
004A90
2A3690
790690
3EA7D4
ENDCHAR
STARTCHAR uni0431
ENCODING 1073
SWIDTH 520 0
DWIDTH 6 0
BBX 6 9 0 0
BITMAP
000376
03CD81
1C3000
6688A1
8B0088
8A005C
6A004C
2D0087
059880
ENDCHAR
STARTCHAR uni0432
ENCODING 1074
SWIDTH 505 0
DWIDTH 6 0
BBX 6 6 0 0
BITMAP
3E98A1
0C40A6
0C40B3
0C9991
0C4098
3E97B4
ENDCHAR
STARTCHAR uni0433
ENCODING 1075
SWIDTH 429 0
DWIDTH 5 0
BBX 5 6 0 0
BITMAP
3E98D0
0C4080
0C4010
0C4000
0C4000
3E9100
ENDCHAR
STARTCHAR uni0434
ENCODING 1076
SWIDTH 530 0
DWIDTH 6 0
BBX 7 9 0 -3
BITMAP
06A6E600
0160E100
0250E100
0620E100
0900E100
9A66E800
D1001C10
80000800
10000100
ENDCHAR
STARTCHAR uni0435
ENCODING 1077
SWIDTH 464 0
DWIDTH 6 0
BBX 6 6 0 0
BITMAP
078A40
4802E0
8A77B1
870000
4D2051
07ED50
ENDCHAR
STARTCHAR uni0436
ENCODING 1078
SWIDTH 754 0
DWIDTH 9 0
BBX 9 6 0 0
BITMAP
9C05F60BA0
2340E03320
0070E07000
00A8F7B000
06A0E0A700
6E14F51D70
ENDCHAR
STARTCHAR uni0437
ENCODING 1079
SWIDTH 435 0
DWIDTH 5 0
BBX 5 6 0 0
BITMAP
686A20
610970
02AB10
000860
3007A0
39AB30
ENDCHAR
STARTCHAR uni0438
ENCODING 1080
SWIDTH 609 0
DWIDTH 7 0
BBX 7 6 0 0
BITMAP
3E904F70
0C404F10
0C436E10
0C570E10
0C900E10
3E904F70
ENDCHAR
STARTCHAR uni0439
ENCODING 1081
SWIDTH 609 0
DWIDTH 7 0
BBX 7 9 0 0
BITMAP
01503300
05B07900
00556100
3E904F70
0C404F10
0C436E10
0C570E10
0C900E10
3E904F70
ENDCHAR
STARTCHAR uni043A
ENCODING 1082
SWIDTH 521 0
DWIDTH 6 0
BBX 7 6 0 0
BITMAP
4E908E00
0C416200
0C452000
0C9C1000
0C47A000
4E80C920
ENDCHAR
STARTCHAR uni043B
ENCODING 1083
SWIDTH 553 0
DWIDTH 7 0
BBX 8 6 -1 0
BITMAP
003C7CA1
00080960
00080960
00070960
02530960
1DA02CA1
ENDCHAR
STARTCHAR uni043C
ENCODING 1084
SWIDTH 697 0
DWIDTH 8 0
BBX 8 6 0 0
BITMAP
5F8003F8
0BE008E2
08B517D2
085C62D2
080D90D2
5C3644E8
ENDCHAR
STARTCHAR uni043D
ENCODING 1085
SWIDTH 605 0
DWIDTH 7 0
BBX 7 6 0 0
BITMAP
4E905F70
0C400F00
0C977F00
0C400F00
0C400F00
4E905F60
ENDCHAR
STARTCHAR uni043E
ENCODING 1086
SWIDTH 514 0
DWIDTH 6 0
BBX 6 6 0 0
BITMAP
078890
4B0097
88006B
89006B
4C0086
079880
ENDCHAR
STARTCHAR uni043F
ENCODING 1087
SWIDTH 591 0
DWIDTH 7 0
BBX 7 6 0 0
BITMAP
4E978F50
0C402D00
0C402D00
0C402D00
0C402D00
4E907F40
ENDCHAR
STARTCHAR uni0440
ENCODING 1088
SWIDTH 537 0
DWIDTH 6 0
BBX 6 9 0 -3
BITMAP
5E5CD4
0D507C
0D202F
0D202E
0D3059
0DA791
0D2000
0D2000
5F9200
ENDCHAR
STARTCHAR uni0441
ENCODING 1089
SWIDTH 446 0
DWIDTH 5 0
BBX 5 6 0 0
BITMAP
067B70
4802A0
860000
970000
5D2060
09EC40
ENDCHAR
STARTCHAR uni0442
ENCODING 1090
SWIDTH 456 0
DWIDTH 5 0
BBX 6 6 0 0
BITMAP
C8D9C5
70C425
10C401
00C400
00C400
04E910
ENDCHAR
STARTCHAR uni0443
ENCODING 1091
SWIDTH 483 0
DWIDTH 6 0
BBX 7 9 -1 -3
BITMAP
1BD21B80
02E10900
00A60800
004C4300
000C9000
00077000
00072000
01190000
0BC20000
ENDCHAR
STARTCHAR uni0444
ENCODING 1092
SWIDTH 710 0
DWIDTH 9 0
BBX 8 12 0 -3
BITMAP
00025000
001AB000
0003B000
0999D7B4
4C04C03C
8903B01F
7903B01F
4B04B03B
0989D7A3
0003B000
0003B000
0019E400
ENDCHAR
STARTCHAR uni0445
ENCODING 1093
SWIDTH 479 0
DWIDTH 6 0
BBX 6 6 0 0
BITMAP
6F62D4
098540
01D700
019C00
081980
9B06F6
ENDCHAR
STARTCHAR uni0446
ENCODING 1094
SWIDTH 590 0
DWIDTH 7 0
BBX 7 8 0 -2
BITMAP
4E908E40
0C403C00
0C403C00
0C403C00
0C403C00
5E979E60
000002B0
00000080
ENDCHAR
STARTCHAR uni0447
ENCODING 1095
SWIDTH 535 0
DWIDTH 6 0
BBX 6 6 0 0
BITMAP
8E34E9
3C00C3
2E00C3
0797E3
0000C3
0004E8
ENDCHAR
STARTCHAR uni0448
ENCODING 1096
SWIDTH 812 0
DWIDTH 10 0
BBX 10 6 0 0
BITMAP
4E82DA1BC2
0C30950780
0C30950780
0C30950780
0C30950780
4E86DA6BC2
ENDCHAR
STARTCHAR uni0449
ENCODING 1097
SWIDTH 814 0
DWIDTH 10 0
BBX 10 8 0 -2
BITMAP
4E82CA1BB2
0C30950770
0C30950770
0C30950770
0C30950770
5E97DA7CC4
0000000067
0000000016
ENDCHAR
STARTCHAR uni044A
ENCODING 1098
SWIDTH 568 0
DWIDTH 7 0
BBX 7 6 0 0
BITMAP
C8D81000
60C40000
00C98700
00C40C60
00C40A60
03E98A10
ENDCHAR
STARTCHAR uni044B
ENCODING 1099
SWIDTH 728 0
DWIDTH 9 0
BBX 9 6 0 0
BITMAP
3E9002BC20
0C40007800
0C98607800
0C40D47800
0C40B57800
3E9892BB20
ENDCHAR
STARTCHAR uni044C
ENCODING 1100
SWIDTH 489 0
DWIDTH 6 0
BBX 6 6 0 0
BITMAP
3E9000
0C4000
0C9870
0C40B6
0C4097
3E98A1
ENDCHAR
STARTCHAR uni044D
ENCODING 1101
SWIDTH 467 0
DWIDTH 6 0
BBX 6 6 0 0
BITMAP
686830
6101D0
0288F2
0000F2
3004D0
19AB30
ENDCHAR
STARTCHAR uni044E
ENCODING 1102
SWIDTH 774 0
DWIDTH 9 0
BBX 9 6 0 0
BITMAP
5EA0597A10
0C32E10890
0C99C004C0
0C33C004C0
0C30C00680
4E90386810
ENDCHAR
STARTCHAR uni044F
ENCODING 1103
SWIDTH 518 0
DWIDTH 6 0
BBX 6 6 0 0
BITMAP
0876F5
3D00F0
1E10F0
03D8F0
07A0F0
7E26F6
ENDCHAR
STARTCHAR uni0450
ENCODING 1104
SWIDTH 464 0
DWIDTH 6 0
BBX 6 8 0 0
BITMAP
03D000
005500
078A40
4802E0
8A77B1
870000
4D2051
07ED50
ENDCHAR
STARTCHAR uni0451
ENCODING 1105
SWIDTH 464 0
DWIDTH 6 0
BBX 6 8 0 0
BITMAP
0D25B0
010010
078A40
4802E0
8A77B1
870000
4D2051
07ED50
ENDCHAR
STARTCHAR uni0452
ENCODING 1106
SWIDTH 563 0
DWIDTH 7 0
BBX 6 12 0 -3
BITMAP
152000
5E4000
6EA810
0C6AE4
0C706B
0C403D
0C402D
0C402D
3E912C
00003A
004055
00AB70
ENDCHAR
STARTCHAR uni0453
ENCODING 1107
SWIDTH 429 0
DWIDTH 5 0
BBX 5 8 0 0
BITMAP
006A00
00A100
3E98D0
0C4080
0C4010
0C4000
0C4000
3E9100
ENDCHAR
STARTCHAR uni0454
ENCODING 1108
SWIDTH 460 0
DWIDTH 6 0
BBX 6 6 0 0
BITMAP
0679A0
4A0060
8C8700
890000
4D1041
08CB60
ENDCHAR
STARTCHAR uni0455
ENCODING 1109
SWIDTH 394 0
DWIDTH 5 0
BBX 5 6 0 0
BITMAP
297B10
770610
3E9100
12AE20
710B60
797910
ENDCHAR
STARTCHAR uni0456
ENCODING 1110
SWIDTH 285 0
DWIDTH 3 0
BBX 3 8 0 0
BITMAP
0C40
0410
4D30
0C30
0C30
0C30
0C30
4E90
ENDCHAR
STARTCHAR uni0457
ENCODING 1111
SWIDTH 285 0
DWIDTH 3 0
BBX 5 8 -1 0
BITMAP
3D0C30
140410
04D300
00C300
00C300
00C300
00C300
04E900
ENDCHAR
STARTCHAR uni0458
ENCODING 1112
SWIDTH 263 0
DWIDTH 3 0
BBX 5 11 -2 -3
BITMAP
000D40
000410
005D30
000C30
000C30
000C30
000C30
000C30
000C20
040C10
1C9600
ENDCHAR
STARTCHAR uni0459
ENCODING 1113
SWIDTH 742 0
DWIDTH 9 0
BBX 10 6 -1 0
BITMAP
003B7C9100
00080A5000
00080A9870
00070A50A7
02530A5098
1EA03D98A1
ENDCHAR
STARTCHAR uni045A
ENCODING 1114
SWIDTH 790 0
DWIDTH 9 0
BBX 10 6 0 0
BITMAP
4E906F5000
0C300F0000
0C877F7950
0C300F01E2
0C301F00E3
4E906F7980
ENDCHAR
STARTCHAR uni045B
ENCODING 1115
SWIDTH 579 0
DWIDTH 7 0
BBX 7 9 0 0
BITMAP
6D300000
0D300000
6D981000
0C6AD400
0C606B00
0C303C00
0C303C00
0C303C00
3E919E40
ENDCHAR
STARTCHAR uni045C
ENCODING 1116
SWIDTH 521 0
DWIDTH 6 0
BBX 7 8 0 0
BITMAP
000D3000
00550000
4E908E00
0C416200
0C452000
0C9C1000
0C47A000
4E80C920
ENDCHAR
STARTCHAR uni045D
ENCODING 1117
SWIDTH 609 0
DWIDTH 7 0
BBX 7 8 0 0
BITMAP
00970000
000A0000
3E904F70
0C404F10
0C436E10
0C570E10
0C900E10
3E904F70
ENDCHAR
STARTCHAR uni045E
ENCODING 1118
SWIDTH 483 0
DWIDTH 6 0
BBX 7 12 -1 -3
BITMAP
00410600
00D31E10
00365400
1BD21B80
02E10900
00B60800
004C4400
000D9000
00078000
00063000
01190000
0BC30000
ENDCHAR
STARTCHAR uni045F
ENCODING 1119
SWIDTH 587 0
DWIDTH 7 0
BBX 7 9 0 -3
BITMAP
4E908E40
0C403C00
0C403C00
0C403C00
0C403C00
4E979E40
000A0000
001F1000
00060000
ENDCHAR
STARTCHAR uni0462
ENCODING 1122
SWIDTH 727 0
DWIDTH 9 0
BBX 9 9 0 0
BITMAP
017A710000
998F88A700
901F001800
201F000200
001F799200
001F006E10
001F001F30
001F003E10
019F88A400
ENDCHAR
STARTCHAR uni0463
ENCODING 1123
SWIDTH 561 0
DWIDTH 7 0
BBX 7 9 0 0
BITMAP
03610000
00D20000
00C20000
C7E8B500
50C21400
00C88700
00C20C50
00C20B60
04E88A00
ENDCHAR
STARTCHAR uni046A
ENCODING 1130
SWIDTH 881 0
DWIDTH 11 0
BBX 12 8 -1 0
BITMAP
001EC999C600
0005D101A000
0000A9082000
00001E770000
00029AE96000
001D54C0C700
008B04C03E20
17F319E50AC5
ENDCHAR
STARTCHAR uni046B
ENCODING 1131
SWIDTH 667 0
DWIDTH 8 0
BBX 10 6 -1 0
BITMAP
008E77A500
000B618000
0002EA1000
003CAAC300
00C5775C00
19D1BB1D81
ENDCHAR
STARTCHAR uni0472
ENCODING 1138
SWIDTH 737 0
DWIDTH 9 0
BBX 9 8 0 0
BITMAP
00898A7000
0A8000A800
2F10003F10
5D7E922F30
5E12AD7F30
2F10003E00
0A70009700
0088796000
ENDCHAR
STARTCHAR uni0473
ENCODING 1139
SWIDTH 514 0
DWIDTH 6 0
BBX 6 6 0 0
BITMAP
079890
4C0097
8AB46B
882B9B
4B0086
078780
ENDCHAR
STARTCHAR uni0474
ENCODING 1140
SWIDTH 705 0
DWIDTH 8 0
BBX 10 8 -1 0
BITMAP
1AFA1004E9
00D7000B33
006D003700
001E409100
0009A09000
0002F65000
0000BD0000
0000580000
ENDCHAR
STARTCHAR uni0475
ENCODING 1141
SWIDTH 520 0
DWIDTH 6 0
BBX 8 6 -1 0
BITMAP
1BE304E6
02E00921
00B52600
005B6100
000E8000
00095000
ENDCHAR
STARTCHAR uni0490
ENCODING 1168
SWIDTH 525 0
DWIDTH 6 0
BBX 7 10 0 0
BITMAP
00000430
00001930
3CD88810
06B00000
06B00000
06B00000
06B00000
06B00000
06B00000
3BE60000
ENDCHAR
STARTCHAR uni0491
ENCODING 1169
SWIDTH 404 0
DWIDTH 5 0
BBX 5 8 0 0
BITMAP
000030
0001A0
3E9750
0C4000
0C4000
0C4000
0C4000
3E9100
ENDCHAR
STARTCHAR uni1D00
ENCODING 7424
SWIDTH 511 0
DWIDTH 6 0
BBX 8 6 -1 0
BITMAP
00078000
0007E000
0042A600
00758C00
02500E30
1B602DC2
ENDCHAR
STARTCHAR uni1D07
ENCODING 7431
SWIDTH 495 0
DWIDTH 6 0
BBX 6 6 0 0
BITMAP
3E87B3
0C3022
0C3060
0C8870
0C3005
3E87A5
ENDCHAR
STARTCHAR uni1D1C
ENCODING 7452
SWIDTH 584 0
DWIDTH 7 0
BBX 7 6 0 0
BITMAP
5F702C50
0E100800
0E100800
0E200800
0C400800
04BA9300
ENDCHAR
STARTCHAR uni1D81
ENCODING 7553
SWIDTH 539 0
DWIDTH 6 0
BBX 7 12 0 -3
BITMAP
0003C500
0000B500
0000A500
0688E500
3A00B500
8700A500
8800A500
5C10B500
0AE9BB20
00000520
00011610
0003A700
ENDCHAR
STARTCHAR uni1D84
ENCODING 7556
SWIDTH 542 0
DWIDTH 7 0
BBX 7 12 0 -3
BITMAP
5D300000
0C300000
0C300000
0C34E700
0C382000
0CC50000
0C7D2000
0C36C100
4E81DB30
00000170
00002260
0000B810
ENDCHAR
STARTCHAR uni1D85
ENCODING 7557
SWIDTH 283 0
DWIDTH 3 0
BBX 4 12 0 -3
BITMAP
4D30
0C30
0C30
0C30
0C30
0C30
0C30
0C30
4E91
0062
1170
4A70
ENDCHAR
STARTCHAR uni1D8A
ENCODING 7562
SWIDTH 395 0
DWIDTH 5 0
BBX 5 9 0 -3
BITMAP
297B10
770610
3E9100
12AE20
710A60
797C20
000710
011700
04A700
ENDCHAR
STARTCHAR uni1D8D
ENCODING 7565
SWIDTH 479 0
DWIDTH 6 0
BBX 6 9 0 -3
BITMAP
6F62D4
098540
01D700
019C00
081980
9B06F6
000008
000207
000894
ENDCHAR
STARTCHAR uni1D8E
ENCODING 7566
SWIDTH 458 0
DWIDTH 6 0
BBX 6 9 0 -3
BITMAP
6B8BD0
511D40
008900
03D100
0D5071
7E89E0
000080
002070
006A60
ENDCHAR
STARTCHAR uni1D98
ENCODING 7576
SWIDTH 368 0
DWIDTH 4 0
BBX 6 12 0 -3
BITMAP
0018B7
007613
009600
009600
009600
009600
009600
309500
C9A100
800000
802000
597000
ENDCHAR
STARTCHAR uni1D9B
ENCODING 7579
SWIDTH 462 0
DWIDTH 6 0
BBX 6 5 0 3
BITMAP
7C8D60
2B01E0
2B00C1
2B00C0
2C7830
ENDCHAR
STARTCHAR uni1DA3
ENCODING 7587
SWIDTH 488 0
DWIDTH 6 0
BBX 6 7 0 1
BITMAP
5E35E3
0D01D0
0D01D0
0D01D0
08B7D0
0001D0
0001E3
ENDCHAR
STARTCHAR uni1E00
ENCODING 7680
SWIDTH 718 0
DWIDTH 9 0
BBX 9 11 0 -3
BITMAP
0003B00000
0009F20000
0019A80000
00745E1000
00B00E6000
05B88CD000
0B1002F500
8D3004ED40
0007700000
0026530000
0007700000
ENDCHAR
STARTCHAR uni1E01
ENCODING 7681
SWIDTH 480 0
DWIDTH 6 0
BBX 6 9 0 -3
BITMAP
085B30
390680
004A90
2A3690
790690
3EA7D4
018600
062900
028600
ENDCHAR
STARTCHAR uni1E02
ENCODING 7682
SWIDTH 618 0
DWIDTH 7 0
BBX 7 10 0 0
BITMAP
001F2000
00030000
3CD89A10
06B00A80
06B00B70
06D8C800
06B00960
06B005E0
06B006D0
3CD67A30
ENDCHAR
STARTCHAR uni1E03
ENCODING 7683
SWIDTH 522 0
DWIDTH 6 0
BBX 6 10 0 0
BITMAP
008900
7D1100
1E0000
1E0000
1E6CC2
1F30A9
1E005C
1E005B
1E0086
0B9780
ENDCHAR
STARTCHAR uni1E04
ENCODING 7684
SWIDTH 618 0
DWIDTH 7 0
BBX 7 11 0 -3
BITMAP
3CD89A10
06B00A80
06B00B70
06D8C800
06B00960
06B005E0
06B006D0
3CD67A30
00000000
001D2000
00010000
ENDCHAR
STARTCHAR uni1E05
ENCODING 7685
SWIDTH 522 0
DWIDTH 6 0
BBX 6 12 0 -3
BITMAP
7D0000
1E0000
1E0000
1E6CC2
1F30A9
1E005C
1E005B
1E0086
0B9780
000000
007800
001100
ENDCHAR
STARTCHAR uni1E06
ENCODING 7686
SWIDTH 618 0
DWIDTH 7 0
BBX 7 10 0 -2
BITMAP
3CD89A10
06B00A80
06B00B70
06D8C800
06B00960
06B005E0
06B006D0
3CD67A30
00000000
02BBB300
ENDCHAR
STARTCHAR uni1E07
ENCODING 7687
SWIDTH 522 0
DWIDTH 6 0
BBX 6 11 0 -2
BITMAP
7D0000
1E0000
1E0000
1E6CC2
1F30A9
1E005C
1E005B
1E0086
0B9780
000000
08BB90
ENDCHAR
STARTCHAR uni1E08
ENCODING 7688
SWIDTH 670 0
DWIDTH 8 0
BBX 8 14 0 -3
BITMAP
00004600
00039100
00000000
007A8CF5
0A900095
2F100034
5D000000
5D000000
3F200000
0AB10044
018EDA60
00039200
00005500
00058100
ENDCHAR
STARTCHAR uni1E09
ENCODING 7689
SWIDTH 446 0
DWIDTH 5 0
BBX 5 11 0 -3
BITMAP
002D10
008300
067B70
3802A0
860000
870000
5D1060
09EC40
006000
006800
006A10
ENDCHAR
STARTCHAR uni1E0A
ENCODING 7690
SWIDTH 730 0
DWIDTH 9 0
BBX 9 10 0 0
BITMAP
0007A00000
0001200000
4CD89B5000
06B002D600
06B0006E00
06B0003F20
06B0002F10
06B0004E00
06B000B600
3BD7895000
ENDCHAR
STARTCHAR uni1E0B
ENCODING 7691
SWIDTH 539 0
DWIDTH 6 0
BBX 7 10 0 0
BITMAP
005C0000
0016C500
0000B500
0000A500
0688E500
3A00B500
8700A500
8800A500
5C10B500
0AE9BA10
ENDCHAR
STARTCHAR uni1E0C
ENCODING 7692
SWIDTH 730 0
DWIDTH 9 0
BBX 9 11 0 -3
BITMAP
4CD89B5000
06B002D600
06B0006E00
06B0003F20
06B0002F10
06B0004E00
06B000B600
3BD7895000
0000000000
000A600000
0001000000
ENDCHAR
STARTCHAR uni1E0D
ENCODING 7693
SWIDTH 539 0
DWIDTH 6 0
BBX 7 12 0 -3
BITMAP
0003C500
0000B500
0000A500
0688E500
3A00B500
8700A500
8800A500
5C10B500
0AE9BA10
00000000
005B0000
00010000
ENDCHAR
STARTCHAR uni1E0E
ENCODING 7694
SWIDTH 730 0
DWIDTH 9 0
BBX 9 10 0 -2
BITMAP
4CD89B5000
06B002D600
06B0006E00
06B0003F20
06B0002F10
06B0004E00
06B000B600
3BD7895000
0000000000
00ABB70000
ENDCHAR
STARTCHAR uni1E0F
ENCODING 7695
SWIDTH 539 0
DWIDTH 6 0
BBX 7 11 0 -2
BITMAP
0003C500
0000B500
0000A500
0688E500
3A00B500
8700A500
8800A500
5C10B500
0AE9BA10
00000000
06BBB000
ENDCHAR
STARTCHAR uni1E10
ENCODING 7696
SWIDTH 730 0
DWIDTH 9 0
BBX 9 12 0 -4
BITMAP
4CD89B5000
06B002D600
06B0006E00
06B0003F20
06B0002F10
06B0004E00
06B000B600
3BD7895000
0000000000
000B700000
0002800000
0005100000
ENDCHAR
STARTCHAR uni1E11
ENCODING 7697
SWIDTH 539 0
DWIDTH 6 0
BBX 7 13 0 -4
BITMAP
0003C500
0000B500
0000A500
0688E500
3A00B500
8700A500
8800A500
5C10B500
0AE9BA10
00000000
006C0000
000A0000
00330000
ENDCHAR
STARTCHAR uni1E12
ENCODING 7698
SWIDTH 730 0
DWIDTH 9 0
BBX 9 10 0 -2
BITMAP
4CD89B5000
06B002D600
06B0006E00
06B0003F20
06B0002F10
06B0004E00
06B000B600
3BD7895000
000C900000
0073640000
ENDCHAR
STARTCHAR uni1E13
ENCODING 7699
SWIDTH 539 0
DWIDTH 6 0
BBX 7 11 0 -2
BITMAP
0003C500
0000B500
0000A500
0688E500
3A00B500
8700A500
8800A500
5C10B500
0AE9BA10
007C1000
03727000
ENDCHAR
STARTCHAR uni1E14
ENCODING 7700
SWIDTH 626 0
DWIDTH 8 0
BBX 8 12 0 0
BITMAP
00370000
00068000
009AA600
00000000
3CD88AB0
06B00050
06B00700
06D78C00
06B00600
06B00021
06B00091
3BD88BE0
ENDCHAR
STARTCHAR uni1E15
ENCODING 7701
SWIDTH 464 0
DWIDTH 6 0
BBX 6 10 0 0
BITMAP
03D000
005500
0ABB70
000000
078A40
4802E0
8A77B1
870000
4D2051
07ED50
ENDCHAR
STARTCHAR uni1E16
ENCODING 7702
SWIDTH 626 0
DWIDTH 8 0
BBX 8 12 0 0
BITMAP
00027100
001A3000
009AA600
00000000
3CD88AB0
06B00050
06B00700
06D78C00
06B00600
06B00021
06B00091
3BD88BE0
ENDCHAR
STARTCHAR uni1E17
ENCODING 7703
SWIDTH 464 0
DWIDTH 6 0
BBX 6 10 0 0
BITMAP
002D10
007300
0ABB70
000000
078A40
4802E0
8A77B1
870000
4D2051
07ED50
ENDCHAR
STARTCHAR uni1E18
ENCODING 7704
SWIDTH 626 0
DWIDTH 8 0
BBX 8 10 0 -2
BITMAP
3CD88AB0
06B00050
06B00700
06D78C00
06B00600
06B00021
06B00091
3BD88BE0
000C8000
00736300
ENDCHAR
STARTCHAR uni1E19
ENCODING 7705
SWIDTH 464 0
DWIDTH 6 0
BBX 6 8 0 -2
BITMAP
078A40
4802E0
8A77B1
870000
4D2051
07ED50
00B900
063640
ENDCHAR
STARTCHAR uni1E1A
ENCODING 7706
SWIDTH 626 0
DWIDTH 8 0
BBX 8 10 0 -2
BITMAP
3CD88AB0
06B00050
06B00700
06D78C00
06B00600
06B00021
06B00091
3BD88BE0
008B3500
0145C300
ENDCHAR
STARTCHAR uni1E1B
ENCODING 7707
SWIDTH 464 0
DWIDTH 6 0
BBX 6 8 0 -2
BITMAP
078A40
4802E0
8A77B1
870000
4D2051
07ED50
07B460
044C40
ENDCHAR
STARTCHAR uni1E1C
ENCODING 7708
SWIDTH 626 0
DWIDTH 8 0
BBX 8 15 0 -3
BITMAP
00100100
00802600
004CB100
00000000
3CD88AB0
06B00050
06B00700
06D78C00
06B00600
06B00021
06B00091
3BDB8BE0
00068000
0000B000
00176000
ENDCHAR
STARTCHAR uni1E1D
ENCODING 7709
SWIDTH 464 0
DWIDTH 6 0
BBX 6 12 0 -3
BITMAP
010010
080170
04BA10
078A40
4802E0
8A77B1
870000
4D2051
07FD50
006800
000B00
017600
ENDCHAR
STARTCHAR uni1E1E
ENCODING 7710
SWIDTH 588 0
DWIDTH 7 0
BBX 7 10 0 0
BITMAP
000A7000
00021000
3CD88AC0
06B00050
06B00700
06D79C00
06B00600
06B00000
06B00000
3BE60000
ENDCHAR
STARTCHAR uni1E1F
ENCODING 7711
SWIDTH 307 0
DWIDTH 4 0
BBX 5 10 0 0
BITMAP
0C5000
049C50
094220
0B3000
5D9500
0C3000
0C3000
0C3000
0C3000
5EA200
ENDCHAR
STARTCHAR uni1E20
ENCODING 7712
SWIDTH 720 0
DWIDTH 9 0
BBX 9 10 0 0
BITMAP
003AAA3000
0000000000
00798BF500
0A90009500
2F10003400
5D00000000
5E0005A910
3F1000B600
0B9000A600
019A899200
ENDCHAR
STARTCHAR uni1E21
ENCODING 7713
SWIDTH 484 0
DWIDTH 6 0
BBX 6 11 0 -3
BITMAP
0ABB70
000000
097CD6
4B02D0
4C03C0
097820
490000
3EEDC3
450058
A50045
5DB960
ENDCHAR
STARTCHAR uni1E22
ENCODING 7714
SWIDTH 777 0
DWIDTH 9 0
BBX 9 10 0 0
BITMAP
0000D40000
0000200000
3CE503BE60
06B0006B00
06B0006B00
06D777AB00
06B0006B00
06B0006B00
06B0006B00
3BE503BE50
ENDCHAR
STARTCHAR uni1E23
ENCODING 7715
SWIDTH 577 0
DWIDTH 7 0
BBX 7 10 0 0
BITMAP
001F2000
5D330000
0C300000
0C300000
0C7AD400
0C606A00
0C304C00
0C303C00
0C303C00
4E919E40
ENDCHAR
STARTCHAR uni1E24
ENCODING 7716
SWIDTH 777 0
DWIDTH 9 0
BBX 9 11 0 -3
BITMAP
3CE503BE60
06B0006B00
06B0006B00
06D777AB00
06B0006B00
06B0006B00
06B0006B00
3BE503BE50
0000000000
0000C30000
0000100000
ENDCHAR
STARTCHAR uni1E25
ENCODING 7717
SWIDTH 577 0
DWIDTH 7 0
BBX 7 12 0 -3
BITMAP
5D300000
0C300000
0C300000
0C7AD400
0C606A00
0C304C00
0C303C00
0C303C00
4E919E40
00000000
001D1000
00010000
ENDCHAR
STARTCHAR uni1E26
ENCODING 7718
SWIDTH 777 0
DWIDTH 9 0
BBX 9 10 0 0
BITMAP
003E089000
0002011000
3CE503BE60
06B0006B00
06B0006B00
06D777AB00
06B0006B00
06B0006B00
06B0006B00
3BE503BE50
ENDCHAR
STARTCHAR uni1E27
ENCODING 7719
SWIDTH 577 0
DWIDTH 7 0
BBX 7 10 0 0
BITMAP
06B0B600
5E502100
0C300000
0C300000
0C7AD400
0C606A00
0C304C00
0C303C00
0C303C00
4E919E40
ENDCHAR
STARTCHAR uni1E28
ENCODING 7720
SWIDTH 777 0
DWIDTH 9 0
BBX 9 11 0 -3
BITMAP
3CE503BE60
06B0006B00
06B0006B00
06D777AB00
06B0006B00
06B0006B00
06B0006B00
3DE503BE50
0491000000
0074000000
0680000000
ENDCHAR
STARTCHAR uni1E29
ENCODING 7721
SWIDTH 577 0
DWIDTH 7 0
BBX 7 12 0 -3
BITMAP
5D300000
0C300000
0C300000
0C7AD400
0C606A00
0C304C00
0C303C00
0C303C00
4F919E40
08600000
00B00000
28400000
ENDCHAR
STARTCHAR uni1E2A
ENCODING 7722
SWIDTH 777 0
DWIDTH 9 0
BBX 9 11 0 -3
BITMAP
3CE503BE60
06B0006B00
06B0006B00
06D777AB00
06B0006B00
06B0006B00
06B0006B00
3BE503BE50
0001001000
0007034000
0006B90000
ENDCHAR
STARTCHAR uni1E2B
ENCODING 7723
SWIDTH 577 0
DWIDTH 7 0
BBX 7 12 0 -3
BITMAP
5D300000
0C300000
0C300000
0C7AD400
0C606A00
0C304C00
0C303C00
0C303C00
4E919E40
00000000
02606200
008B8000
ENDCHAR
STARTCHAR uni1E2C
ENCODING 7724
SWIDTH 357 0
DWIDTH 4 0
BBX 4 10 0 -2
BITMAP
3CE5
06A0
06A0
06A0
06A0
06A0
06A0
3BE5
4B56
52B7
ENDCHAR
STARTCHAR uni1E2D
ENCODING 7725
SWIDTH 285 0
DWIDTH 3 0
BBX 5 10 -1 -2
BITMAP
00C400
004100
04D300
00C300
00C300
00C300
00C300
04E900
09A350
236C20
ENDCHAR
STARTCHAR uni1E2E
ENCODING 7726
SWIDTH 357 0
DWIDTH 4 0
BBX 5 13 0 0
BITMAP
007300
086000
000000
B61F10
210300
3CE500
06A000
06A000
06A000
06A000
06A000
06A000
3BE500
ENDCHAR
STARTCHAR uni1E2F
ENCODING 7727
SWIDTH 285 0
DWIDTH 3 0
BBX 5 10 -1 0
BITMAP
008800
00A000
3D0C30
140410
04D300
00C300
00C300
00C300
00C300
04E900
ENDCHAR
STARTCHAR uni1E30
ENCODING 7728
SWIDTH 702 0
DWIDTH 8 0
BBX 9 11 0 0
BITMAP
0000630000
0007700000
0000000000
3CE51BD600
06A01A2000
06A1910000
06BA100000
06CC700000
06A1D70000
06B01D7000
3BE51AFA20
ENDCHAR
STARTCHAR uni1E31
ENCODING 7729
SWIDTH 542 0
DWIDTH 7 0
BBX 7 11 0 0
BITMAP
00064000
00670000
5D300000
0C300000
0C300000
0C34E700
0C382000
0CC50000
0C7D2000
0C36C100
4E81DB30
ENDCHAR
STARTCHAR uni1E32
ENCODING 7730
SWIDTH 702 0
DWIDTH 8 0
BBX 9 11 0 -3
BITMAP
3CE51BD600
06A01A2000
06A1910000
06BA100000
06CC700000
06A1D70000
06B01D7000
3BE51AFA20
0000000000
0004B00000
0000100000
ENDCHAR
STARTCHAR uni1E33
ENCODING 7731
SWIDTH 542 0
DWIDTH 7 0
BBX 7 12 0 -3
BITMAP
5D300000
0C300000
0C300000
0C34E700
0C382000
0CC50000
0C7D2000
0C36C100
4E81DB30
00000000
004C0000
00010000
ENDCHAR
STARTCHAR uni1E34
ENCODING 7732
SWIDTH 702 0
DWIDTH 8 0
BBX 9 10 0 -2
BITMAP
3CE51BD600
06A01A2000
06A1910000
06BA100000
06CC700000
06A1D70000
06B01D7000
3BE51AFA20
0000000000
006BBB0000
ENDCHAR
STARTCHAR uni1E35
ENCODING 7733
SWIDTH 542 0
DWIDTH 7 0
BBX 7 11 0 -2
BITMAP
5D300000
0C300000
0C300000
0C34E700
0C382000
0CC50000
0C7D2000
0C36C100
4E81DB30
00000000
05BBB000
ENDCHAR
STARTCHAR uni1E36
ENCODING 7734
SWIDTH 585 0
DWIDTH 7 0
BBX 7 11 0 -3
BITMAP
3CE60000
06B00000
06B00000
06B00000
06B00000
06B00020
06B00190
3BE88C80
00000000
001D1000
00010000
ENDCHAR
STARTCHAR uni1E37
ENCODING 7735
SWIDTH 283 0
DWIDTH 3 0
BBX 4 12 0 -3
BITMAP
4D30
0C30
0C30
0C30
0C30
0C30
0C30
0C30
4E91
0000
0C30
0100
ENDCHAR
STARTCHAR uni1E38
ENCODING 7736
SWIDTH 585 0
DWIDTH 7 0
BBX 7 13 0 -3
BITMAP
6AA90000
00000000
3CE60000
06B00000
06B00000
06B00000
06B00000
06B00020
06B00190
3BE88C80
00000000
001D1000
00010000
ENDCHAR
STARTCHAR uni1E39
ENCODING 7737
SWIDTH 283 0
DWIDTH 3 0
BBX 5 13 -1 -3
BITMAP
1AAA40
04D300
00C300
00C300
00C300
00C300
00C300
00C300
00C300
04E910
000000
00C300
001000
ENDCHAR
STARTCHAR uni1E3A
ENCODING 7738
SWIDTH 585 0
DWIDTH 7 0
BBX 7 10 0 -2
BITMAP
3CE60000
06B00000
06B00000
06B00000
06B00000
06B00020
06B00190
3BE88C80
00000000
03BBB300
ENDCHAR
STARTCHAR uni1E3B
ENCODING 7739
SWIDTH 283 0
DWIDTH 3 0
BBX 5 11 -1 -2
BITMAP
04D300
00C300
00C300
00C300
00C300
00C300
00C300
00C300
04E910
000000
1BBB50
ENDCHAR
STARTCHAR uni1E3C
ENCODING 7740
SWIDTH 585 0
DWIDTH 7 0
BBX 7 10 0 -2
BITMAP
3CE60000
06B00000
06B00000
06B00000
06B00000
06B00020
06B00190
3BE88C80
004E3000
00919000
ENDCHAR
STARTCHAR uni1E3D
ENCODING 7741
SWIDTH 283 0
DWIDTH 3 0
BBX 4 11 0 -2
BITMAP
4D30
0C30
0C30
0C30
0C30
0C30
0C30
0C30
4E91
2D60
8182
ENDCHAR
STARTCHAR uni1E3E
ENCODING 7742
SWIDTH 895 0
DWIDTH 11 0
BBX 11 11 0 0
BITMAP
000007300000
000077000000
000000000000
4DE10004F910
08D6000AE200
087D0028E200
082E4082E200
0819A090E200
0812F740E200
0810BD00E200
4D914707F910
ENDCHAR
STARTCHAR uni1E3F
ENCODING 7743
SWIDTH 852 0
DWIDTH 10 0
BBX 10 8 0 0
BITMAP
00000C4000
0000460000
4D69D48C90
0C606C11E0
0C305A00E1
0C305A00E1
0C305A00E1
3E92AD35F7
ENDCHAR
STARTCHAR uni1E40
ENCODING 7744
SWIDTH 895 0
DWIDTH 11 0
BBX 11 10 0 0
BITMAP
00005C000000
000012000000
4DE10004F910
08D6000AE200
087D0028E200
082E4082E200
0819A090E200
0812F740E200
0810BD00E200
4D914707F910
ENDCHAR
STARTCHAR uni1E41
ENCODING 7745
SWIDTH 852 0
DWIDTH 10 0
BBX 10 8 0 0
BITMAP
00005A0000
0000010000
4D69D48C90
0C606C11E0
0C305A00E1
0C305A00E1
0C305A00E1
3E92AD35F7
ENDCHAR
STARTCHAR uni1E42
ENCODING 7746
SWIDTH 895 0
DWIDTH 11 0
BBX 11 11 0 -3
BITMAP
4DE10004F910
08D6000AE200
087D0028E200
082E4082E200
0819A090E200
0812F740E200
0810BD00E200
4D914707F910
000000000000
000079000000
000001000000
ENDCHAR
STARTCHAR uni1E43
ENCODING 7747
SWIDTH 852 0
DWIDTH 10 0
BBX 10 9 0 -3
BITMAP
4D69D48C90
0C606C11E0
0C305A00E1
0C305A00E1
0C305A00E1
3E92AD35F7
0000000000
00005A0000
0000010000
ENDCHAR
STARTCHAR uni1E44
ENCODING 7748
SWIDTH 742 0
DWIDTH 9 0
BBX 9 10 0 0
BITMAP
0001F10000
0000300000
4DB001AD30
08E8002800
084F402700
0817E22700
0810AB2700
08101CA700
081002E700
4D91005700
ENDCHAR
STARTCHAR uni1E45
ENCODING 7749
SWIDTH 576 0
DWIDTH 7 0
BBX 7 8 0 0
BITMAP
000D2000
00010000
5D6AD400
0C606A00
0C303B00
0C303C00
0C303C00
4E919E40
ENDCHAR
STARTCHAR uni1E46
ENCODING 7750
SWIDTH 742 0
DWIDTH 9 0
BBX 9 11 0 -3
BITMAP
4DB001AD30
08E8002800
084F402700
0817E22700
0810AB2700
08101CA700
081002E700
4D91005700
0000000000
0004C00000
0000100000
ENDCHAR
STARTCHAR uni1E47
ENCODING 7751
SWIDTH 576 0
DWIDTH 7 0
BBX 7 9 0 -3
BITMAP
5D6AD400
0C606A00
0C303B00
0C303C00
0C303C00
4E919E40
00000000
001D1000
00010000
ENDCHAR
STARTCHAR uni1E48
ENCODING 7752
SWIDTH 742 0
DWIDTH 9 0
BBX 9 10 0 -2
BITMAP
4DB001AD30
08E8002800
084F402700
0817E22700
0810AB2700
08101CA700
081002E700
4D91005700
0000000000
005BBB0000
ENDCHAR
STARTCHAR uni1E49
ENCODING 7753
SWIDTH 576 0
DWIDTH 7 0
BBX 7 8 0 -2
BITMAP
5D6AD400
0C606A00
0C303B00
0C303C00
0C303C00
4E919E40
00000000
03BBB300
ENDCHAR
STARTCHAR uni1E4A
ENCODING 7754
SWIDTH 742 0
DWIDTH 9 0
BBX 9 10 0 -2
BITMAP
4DB001AD30
08E8002800
084F402700
0817E22700
0810AB2700
08101CA700
081002E700
4D91005700
0007D10000
0028280000
ENDCHAR
STARTCHAR uni1E4B
ENCODING 7755
SWIDTH 576 0
DWIDTH 7 0
BBX 7 8 0 -2
BITMAP
5D6AD400
0C606A00
0C303B00
0C303C00
0C303C00
4E919E40
004E3000
00919000
ENDCHAR
STARTCHAR uni1E4C
ENCODING 7756
SWIDTH 738 0
DWIDTH 9 0
BBX 9 13 0 0
BITMAP
0000550000
0005810000
001B934000
00418B1000
0000000000
00897A7000
0A8000A800
2F10003F10
5E00001F30
5E00001F30
2F10003E00
0A8000A700
0089896000
ENDCHAR
STARTCHAR uni1E4D
ENCODING 7757
SWIDTH 514 0
DWIDTH 6 0
BBX 6 10 0 0
BITMAP
000D30
03FC60
051A80
000000
078890
4B0097
88006B
89006B
4C0086
079880
ENDCHAR
STARTCHAR uni1E4E
ENCODING 7758
SWIDTH 738 0
DWIDTH 9 0
BBX 9 11 0 0
BITMAP
008F9F9000
00528D1000
0000000000
00897A7000
0A8000A800
2F10003F10
5E00001F30
5E00001F30
2F10003E00
0A8000A700
0089896000
ENDCHAR
STARTCHAR uni1E4F
ENCODING 7759
SWIDTH 514 0
DWIDTH 6 0
BBX 6 10 0 0
BITMAP
0A52D0
04C670
051A80
000000
078890
4B0097
88006B
89006B
4C0086
079880
ENDCHAR
STARTCHAR uni1E50
ENCODING 7760
SWIDTH 738 0
DWIDTH 9 0
BBX 9 12 0 0
BITMAP
0006400000
0001930000
003AAA2000
0000000000
00897A7000
0A8000A800
2F10003F10
5E00001F30
5E00001F30
2F10003E00
0A8000A700
0089896000
ENDCHAR
STARTCHAR uni1E51
ENCODING 7761
SWIDTH 514 0
DWIDTH 6 0
BBX 6 10 0 0
BITMAP
01D200
003800
07BBA0
000000
078890
4B0097
88006B
89006B
4C0086
079880
ENDCHAR
STARTCHAR uni1E52
ENCODING 7762
SWIDTH 738 0
DWIDTH 9 0
BBX 9 12 0 0
BITMAP
0000550000
0005810000
003AAA2000
0000000000
00897A7000
0A8000A800
2F10003F10
5E00001F30
5E00001F30
2F10003E00
0A8000A700
0089896000
ENDCHAR
STARTCHAR uni1E53
ENCODING 7763
SWIDTH 514 0
DWIDTH 6 0
BBX 6 10 0 0
BITMAP
000D30
005600
07BBA0
000000
078890
4B0097
88006B
89006B
4C0086
079880
ENDCHAR
STARTCHAR uni1E54
ENCODING 7764
SWIDTH 569 0
DWIDTH 7 0
BBX 7 11 0 0
BITMAP
00045000
00491000
00000000
2BD8A900
06B00D60
06B00A70
06B01D20
06D88300
06B00000
06B00000
3BE60000
ENDCHAR
STARTCHAR uni1E55
ENCODING 7765
SWIDTH 537 0
DWIDTH 6 0
BBX 6 11 0 -3
BITMAP
000C50
003700
5E5CD4
0D507C
0D202F
0D202E
0D3059
0DA791
0D2000
0D2000
5F9200
ENDCHAR
STARTCHAR uni1E56
ENCODING 7766
SWIDTH 569 0
DWIDTH 7 0
BBX 7 10 0 0
BITMAP
001F1000
00030000
2BD8A900
06B00D60
06B00A70
06B01D20
06D88300
06B00000
06B00000
3BE60000
ENDCHAR
STARTCHAR uni1E57
ENCODING 7767
SWIDTH 537 0
DWIDTH 6 0
BBX 6 11 0 -3
BITMAP
004B00
000100
5E5CD4
0D507C
0D202F
0D202E
0D3059
0DA791
0D2000
0D2000
5F9200
ENDCHAR
STARTCHAR uni1E58
ENCODING 7768
SWIDTH 659 0
DWIDTH 8 0
BBX 8 10 0 0
BITMAP
000C5000
00020000
3BD79900
06B00C60
06B00A80
06B02D20
06DAC200
06B1C700
07B02E40
3BE506E6
ENDCHAR
STARTCHAR uni1E59
ENCODING 7769
SWIDTH 380 0
DWIDTH 5 0
BBX 5 8 0 0
BITMAP
03C000
001000
4D6D50
0C8310
0C3000
0C3000
0C3000
4E9200
ENDCHAR
STARTCHAR uni1E5A
ENCODING 7770
SWIDTH 659 0
DWIDTH 8 0
BBX 8 11 0 -3
BITMAP
3BD79900
06B00C60
06B00A80
06B02D20
06DAC200
06B1C700
07B02E40
3BE506E6
00000000
00088000
00011000
ENDCHAR
STARTCHAR uni1E5B
ENCODING 7771
SWIDTH 380 0
DWIDTH 5 0
BBX 5 9 0 -3
BITMAP
4D6D50
0C8310
0C3000
0C3000
0C3000
4E9200
000000
0A5000
010000
ENDCHAR
STARTCHAR uni1E5C
ENCODING 7772
SWIDTH 659 0
DWIDTH 8 0
BBX 8 13 0 -3
BITMAP
00AAA500
00000000
3BD79900
06B00C60
06B00A80
06B02D20
06DAC200
06B1C700
07B02E40
3BE506E6
00000000
00088000
00011000
ENDCHAR
STARTCHAR uni1E5D
ENCODING 7773
SWIDTH 380 0
DWIDTH 5 0
BBX 5 11 0 -3
BITMAP
5BBB10
000000
4D6D50
0C8310
0C3000
0C3000
0C3000
4E9200
000000
0A5000
010000
ENDCHAR
STARTCHAR uni1E5E
ENCODING 7774
SWIDTH 659 0
DWIDTH 8 0
BBX 8 10 0 -2
BITMAP
3BD79900
06B00C60
06B00A80
06B02D20
06DAC200
06B1C700
07B02E40
3BE506E6
00000000
008BB800
ENDCHAR
STARTCHAR uni1E5F
ENCODING 7775
SWIDTH 380 0
DWIDTH 5 0
BBX 5 8 0 -2
BITMAP
4D6D50
0C8310
0C3000
0C3000
0C3000
4E9200
000000
ABB700
ENDCHAR
STARTCHAR uni1E60
ENCODING 7776
SWIDTH 504 0
DWIDTH 6 0
BBX 6 10 0 0
BITMAP
008900
001200
0889F3
5A0074
4E3012
08F810
003CD2
4000B8
830088
7E9891
ENDCHAR
STARTCHAR uni1E61
ENCODING 7777
SWIDTH 394 0
DWIDTH 5 0
BBX 5 8 0 0
BITMAP
03D000
001000
297B10
770610
3E9100
12AE20
710B60
797910
ENDCHAR
STARTCHAR uni1E62
ENCODING 7778
SWIDTH 504 0
DWIDTH 6 0
BBX 6 11 0 -3
BITMAP
0889F3
5A0074
4E3012
08F810
003CD2
4000B8
830088
7E9891
000000
009700
001000
ENDCHAR
STARTCHAR uni1E63
ENCODING 7779
SWIDTH 394 0
DWIDTH 5 0
BBX 5 9 0 -3
BITMAP
297B10
770610
3E9100
12AE20
710B60
797910
000000
03C000
001000
ENDCHAR
STARTCHAR uni1E64
ENCODING 7780
SWIDTH 504 0
DWIDTH 6 0
BBX 6 11 0 0
BITMAP
069460
003A20
000000
0889F3
5A0074
4E3012
08F810
003CD2
4000B8
830088
7E9891
ENDCHAR
STARTCHAR uni1E65
ENCODING 7781
SWIDTH 394 0
DWIDTH 5 0
BBX 5 9 0 0
BITMAP
081000
067A00
00A100
297B10
770610
3E9100
12AE20
710B60
797910
ENDCHAR
STARTCHAR uni1E66
ENCODING 7782
SWIDTH 504 0
DWIDTH 6 0
BBX 6 12 0 0
BITMAP
002300
037840
01AB10
000000
0889F3
5A0074
4E3012
08F810
003CD2
4000B8
830088
7E9891
ENDCHAR
STARTCHAR uni1E67
ENCODING 7783
SWIDTH 394 0
DWIDTH 5 0
BBX 5 10 0 0
BITMAP
018000
197800
05D200
000000
297B10
770610
3E9100
12AE20
710B60
797910
ENDCHAR
STARTCHAR uni1E68
ENCODING 7784
SWIDTH 504 0
DWIDTH 6 0
BBX 6 13 0 -3
BITMAP
008900
001200
0889F3
5A0074
4E3012
08F810
003CD2
4000B8
830088
7E9891
000000
009700
001000
ENDCHAR
STARTCHAR uni1E69
ENCODING 7785
SWIDTH 394 0
DWIDTH 5 0
BBX 5 11 0 -3
BITMAP
03D000
001000
297B10
770610
3E9100
12AE20
710B60
797910
000000
03C000
001000
ENDCHAR
STARTCHAR uni1E6A
ENCODING 7786
SWIDTH 603 0
DWIDTH 7 0
BBX 7 10 0 0
BITMAP
000E3000
00020000
BA8FA9E0
800E3080
100E3010
000E3000
000E3000
000E3000
000E3000
017F9200
ENDCHAR
STARTCHAR uni1E6B
ENCODING 7787
SWIDTH 315 0
DWIDTH 4 0
BBX 4 9 0 0
BITMAP
0970
0310
1C10
4E83
0D10
0D10
0D10
0D21
09C4
ENDCHAR
STARTCHAR uni1E6C
ENCODING 7788
SWIDTH 603 0
DWIDTH 7 0
BBX 7 11 0 -3
BITMAP
BA8FA9E0
800E3080
100E3010
000E3000
000E3000
000E3000
000E3000
017F9200
00000000
000D3000
00010000
ENDCHAR
STARTCHAR uni1E6D
ENCODING 7789
SWIDTH 315 0
DWIDTH 4 0
BBX 4 11 0 -3
BITMAP
0310
1C10
4E83
0D10
0D10
0D10
0D21
09C4
0000
05B0
0010
ENDCHAR
STARTCHAR uni1E6E
ENCODING 7790
SWIDTH 603 0
DWIDTH 7 0
BBX 7 10 0 -2
BITMAP
BA8FA9E0
800E3080
100E3010
000E3000
000E3000
000E3000
000E3000
017F9200
00000000
01BBB400
ENDCHAR
STARTCHAR uni1E6F
ENCODING 7791
SWIDTH 315 0
DWIDTH 4 0
BBX 4 10 0 -2
BITMAP
0310
1C10
4E83
0D10
0D10
0D10
0D21
09C4
0000
6BBB
ENDCHAR
STARTCHAR uni1E70
ENCODING 7792
SWIDTH 603 0
DWIDTH 7 0
BBX 7 10 0 -2
BITMAP
BA8FA9E0
800E3080
100E3010
000E3000
000E3000
000E3000
000E3000
017F9200
002D5000
00818100
ENDCHAR
STARTCHAR uni1E71
ENCODING 7793
SWIDTH 315 0
DWIDTH 4 0
BBX 4 10 0 -2
BITMAP
0310
1C10
4E83
0D10
0D10
0D10
0D21
09C4
07C1
3727
ENDCHAR
STARTCHAR uni1E72
ENCODING 7794
SWIDTH 752 0
DWIDTH 9 0
BBX 9 11 0 -3
BITMAP
5DD4018E50
0980000B00
0980000A00
0980000A00
0980000A00
0890001900
04E1007500
007CBB7000
0000000000
004B0A6000
0001010000
ENDCHAR
STARTCHAR uni1E73
ENCODING 7795
SWIDTH 570 0
DWIDTH 7 0
BBX 7 9 0 -3
BITMAP
5E12AA00
0E105A00
0E105A00
0E105A00
0D307A00
06D98C30
00000000
0880D200
01101000
ENDCHAR
STARTCHAR uni1E74
ENCODING 7796
SWIDTH 752 0
DWIDTH 9 0
BBX 9 10 0 -2
BITMAP
5DD4018E50
0980000B00
0980000A00
0980000A00
0980000A00
0890001900
04E1007500
007CBB7000
001B844000
00418B1000
ENDCHAR
STARTCHAR uni1E75
ENCODING 7797
SWIDTH 570 0
DWIDTH 7 0
BBX 7 8 0 -2
BITMAP
5E12AA00
0E105A00
0E105A00
0E105A00
0D307A00
06D98C30
03B66100
051A8000
ENDCHAR
STARTCHAR uni1E76
ENCODING 7798
SWIDTH 752 0
DWIDTH 9 0
BBX 9 10 0 -2
BITMAP
5DD4018E50
0980000B00
0980000A00
0980000A00
0980000A00
0890001900
04E1007500
007CBB7000
0003E40000
0009191000
ENDCHAR
STARTCHAR uni1E77
ENCODING 7799
SWIDTH 570 0
DWIDTH 7 0
BBX 7 8 0 -2
BITMAP
5E12AA00
0E105A00
0E105A00
0E105A00
0D307A00
06D98C30
006D1000
02828000
ENDCHAR
STARTCHAR uni1E78
ENCODING 7800
SWIDTH 752 0
DWIDTH 9 0
BBX 9 13 0 0
BITMAP
0000270000
0001A30000
0007B46000
00044C4000
0000000000
5DD4018E50
0980000B00
0980000A00
0980000A00
0980000A00
0890001900
04E1007500
007CBB7000
ENDCHAR
STARTCHAR uni1E79
ENCODING 7801
SWIDTH 570 0
DWIDTH 7 0
BBX 7 10 0 0
BITMAP
000B5000
02DF5200
0409A000
00000000
5E12AA00
0E105A00
0E105A00
0E105A00
0D307A00
06D98C30
ENDCHAR
STARTCHAR uni1E7A
ENCODING 7802
SWIDTH 752 0
DWIDTH 9 0
BBX 9 11 0 0
BITMAP
002F17A000
000CAB7000
0000000000
5DD4018E50
0980000B00
0980000A00
0980000A00
0980000A00
0890001900
04E1007500
007CBB7000
ENDCHAR
STARTCHAR uni1E7B
ENCODING 7803
SWIDTH 570 0
DWIDTH 7 0
BBX 7 9 0 0
BITMAP
0880D200
06CBD100
00000000
5E12AA00
0E105A00
0E105A00
0E105A00
0D307A00
06D98C30
ENDCHAR
STARTCHAR uni1E7C
ENCODING 7804
SWIDTH 680 0
DWIDTH 8 0
BBX 10 11 -1 0
BITMAP
0004C66000
00051B8000
0000000000
1AF9102BB1
00D7000910
006D001900
001E407300
0009A09000
0002F46000
0000BD1000
0000590000
ENDCHAR
STARTCHAR uni1E7D
ENCODING 7805
SWIDTH 481 0
DWIDTH 6 0
BBX 7 9 -1 0
BITMAP
005B5600
0052B600
00000000
1AD21A90
02E10900
00B51800
005B6200
000E9000
00096000
ENDCHAR
STARTCHAR uni1E7E
ENCODING 7806
SWIDTH 680 0
DWIDTH 8 0
BBX 10 11 -1 -3
BITMAP
1AF9102BB1
00D7000910
006D001900
001E407300
0009A09000
0002F46000
0000BD1000
0000590000
0000000000
0000690000
0000010000
ENDCHAR
STARTCHAR uni1E7F
ENCODING 7807
SWIDTH 481 0
DWIDTH 6 0
BBX 7 9 -1 -3
BITMAP
1AD21A90
02E10900
00B51800
005B6200
000E9000
00096000
00000000
00096000
00010000
ENDCHAR
STARTCHAR Wgrave
ENCODING 7808
SWIDTH 944 0
DWIDTH 11 0
BBX 13 11 -1 0
BITMAP
00000550000000
00000194000000
00000000000000
1AF809F901BC20
00D600C5007300
007C008B009000
001F20AF228000
000A845A873000
0004E904D90000
0000D900E70000
00007300820000
ENDCHAR
STARTCHAR wgrave
ENCODING 7809
SWIDTH 749 0
DWIDTH 9 0
BBX 11 8 -1 0
BITMAP
000098000000
00000A000000
1BD26F608B10
02E10C507200
00B61BA08000
005B53E36000
000E809C1000
0009504A0000
ENDCHAR
STARTCHAR Wacute
ENCODING 7810
SWIDTH 944 0
DWIDTH 11 0
BBX 13 11 -1 0
BITMAP
00000046000000
00000391000000
00000000000000
1AF809F901BC20
00D600C5007300
007C008B009000
001F20AF228000
000A845A873000
0004E904D90000
0000D900E70000
00007300820000
ENDCHAR
STARTCHAR wacute
ENCODING 7811
SWIDTH 749 0
DWIDTH 9 0
BBX 11 8 -1 0
BITMAP
000008800000
00000A000000
1BD26F608B10
02E10C507200
00B61BA08000
005B53E36000
000E809C1000
0009504A0000
ENDCHAR
STARTCHAR Wdieresis
ENCODING 7812
SWIDTH 944 0
DWIDTH 11 0
BBX 13 10 -1 0
BITMAP
00006B0B600000
00001202100000
1AF809F901BC20
00D600C5007300
007C008B009000
001F20AF228000
000A845A873000
0004E904D90000
0000D900E70000
00007300820000
ENDCHAR
STARTCHAR wdieresis
ENCODING 7813
SWIDTH 749 0
DWIDTH 9 0
BBX 11 8 -1 0
BITMAP
0005A0B50000
000010100000
1BD26F608B10
02E10C507200
00B61BA08000
005B53E36000
000E809C1000
0009504A0000
ENDCHAR
STARTCHAR uni1E86
ENCODING 7814
SWIDTH 944 0
DWIDTH 11 0
BBX 13 10 -1 0
BITMAP
000001F2000000
00000030000000
1AF809F901BC20
00D600C5007300
007C008B009000
001F20AF228000
000A845A873000
0004E904D90000
0000D900E70000
00007300820000
ENDCHAR
STARTCHAR uni1E87
ENCODING 7815
SWIDTH 749 0
DWIDTH 9 0
BBX 11 8 -1 0
BITMAP
00001D100000
000001000000
1BD26F608B10
02E10C507200
00B61BA08000
005B53E36000
000E809C1000
0009504A0000
ENDCHAR
STARTCHAR uni1E88
ENCODING 7816
SWIDTH 944 0
DWIDTH 11 0
BBX 13 11 -1 -3
BITMAP
1AF809F901BC20
00D600C5007300
007C008B009000
001F20AF228000
000A845A873000
0004E904D90000
0000D900E70000
00007300820000
00000000000000
000000B4000000
00000010000000
ENDCHAR
STARTCHAR uni1E89
ENCODING 7817
SWIDTH 749 0
DWIDTH 9 0
BBX 11 9 -1 -3
BITMAP
1BD26F608B10
02E10C507200
00B61BA08000
005B53E36000
000E809C1000
0009504A0000
000000000000
00001D100000
000001000000
ENDCHAR
STARTCHAR uni1E8A
ENCODING 7818
SWIDTH 664 0
DWIDTH 8 0
BBX 8 10 0 0
BITMAP
0007A000
00012000
5DE308D5
03F30920
008B5500
001DA000
001AE200
00919B00
06501E60
7E402DE6
ENDCHAR
STARTCHAR uni1E8B
ENCODING 7819
SWIDTH 479 0
DWIDTH 6 0
BBX 6 8 0 0
BITMAP
009700
001000
6F62D4
098540
01D700
019C00
081980
9B06F6
ENDCHAR
STARTCHAR uni1E8C
ENCODING 7820
SWIDTH 664 0
DWIDTH 8 0
BBX 8 10 0 0
BITMAP
00C52E00
00210300
5DE308D5
03F30920
008B5500
001DA000
001AE200
00919B00
06501E60
7E402DE6
ENDCHAR
STARTCHAR uni1E8D
ENCODING 7821
SWIDTH 479 0
DWIDTH 6 0
BBX 6 8 0 0
BITMAP
0D24B0
010010
6F62D4
098540
01D700
019C00
081980
9B06F6
ENDCHAR
STARTCHAR uni1E8E
ENCODING 7822
SWIDTH 647 0
DWIDTH 8 0
BBX 8 10 0 0
BITMAP
0007A000
00012000
8FA105E6
09B00640
01D51900
005E8200
000B8000
000A7000
000A7000
005DC400
ENDCHAR
STARTCHAR uni1E8F
ENCODING 7823
SWIDTH 483 0
DWIDTH 6 0
BBX 7 11 -1 -3
BITMAP
00079000
00001000
1BD21B80
02E10900
00A60800
004C4300
000C9000
00077000
00072000
01190000
0BC20000
ENDCHAR
STARTCHAR uni1E90
ENCODING 7824
SWIDTH 594 0
DWIDTH 7 0
BBX 7 11 0 0
BITMAP
00073000
00758200
00000000
3EA99E90
44006D10
0002E400
000C8000
007D0000
03E30020
0C700080
8F999C80
ENDCHAR
STARTCHAR uni1E91
ENCODING 7825
SWIDTH 458 0
DWIDTH 6 0
BBX 6 8 0 0
BITMAP
00B900
063640
6B8BD0
511D40
008900
03D100
0D5071
7E89E0
ENDCHAR
STARTCHAR uni1E92
ENCODING 7826
SWIDTH 594 0
DWIDTH 7 0
BBX 7 11 0 -3
BITMAP
3EA99E90
44006D10
0002E400
000C8000
007D0000
03E30020
0C700080
8F999C80
00000000
001D1000
00010000
ENDCHAR
STARTCHAR uni1E93
ENCODING 7827
SWIDTH 458 0
DWIDTH 6 0
BBX 6 9 0 -3
BITMAP
6B8BD0
511D40
008900
03D100
0D5071
7E89E0
000000
00B400
001000
ENDCHAR
STARTCHAR uni1E94
ENCODING 7828
SWIDTH 594 0
DWIDTH 7 0
BBX 7 10 0 -2
BITMAP
3EA99E90
44006D10
0002E400
000C8000
007D0000
03E30020
0C700080
8F999C80
00000000
03BBB200
ENDCHAR
STARTCHAR uni1E95
ENCODING 7829
SWIDTH 458 0
DWIDTH 6 0
BBX 6 8 0 -2
BITMAP
6B8BD0
511D40
008900
03D100
0D5071
7E89E0
000000
0BBB60
ENDCHAR
STARTCHAR uni1E96
ENCODING 7830
SWIDTH 577 0
DWIDTH 7 0
BBX 7 11 0 -2
BITMAP
5D300000
0C300000
0C300000
0C7AD400
0C606A00
0C304C00
0C303C00
0C303C00
4E919E40
00000000
02BBB300
ENDCHAR
STARTCHAR uni1E97
ENCODING 7831
SWIDTH 315 0
DWIDTH 4 0
BBX 4 9 0 0
BITMAP
D24B
1311
1C10
4E83
0D10
0D10
0D10
0D21
09C4
ENDCHAR
STARTCHAR uni1E98
ENCODING 7832
SWIDTH 749 0
DWIDTH 9 0
BBX 11 9 -1 0
BITMAP
000048300000
000080900000
000048400000
1BD26F608B10
02E10C507200
00B61BA08000
005B53E36000
000E809C1000
0009504A0000
ENDCHAR
STARTCHAR uni1E99
ENCODING 7833
SWIDTH 483 0
DWIDTH 6 0
BBX 7 12 -1 -3
BITMAP
00078100
00274400
00078100
1BD21B80
02E10900
00A60800
004C4300
000C9000
00077000
00072000
01190000
0BC20000
ENDCHAR
STARTCHAR uni1E9A
ENCODING 7834
SWIDTH 480 0
DWIDTH 6 0
BBX 6 9 0 0
BITMAP
007300
000800
007300
085B30
390680
004A90
2A3690
790690
3EA7D4
ENDCHAR
STARTCHAR uni1E9B
ENCODING 7835
SWIDTH 285 0
DWIDTH 3 0
BBX 5 10 0 0
BITMAP
0C5000
049C50
094220
0B3000
5D3000
0C3000
0C3000
0C3000
0C3000
5EA200
ENDCHAR
STARTCHAR uni1E9C
ENCODING 7836
SWIDTH 300 0
DWIDTH 4 0
BBX 5 9 0 0
BITMAP
018C70
075130
0A5000
4D6200
0AA100
5D5000
1A5000
0A5000
4DB300
ENDCHAR
STARTCHAR uni1E9D
ENCODING 7837
SWIDTH 285 0
DWIDTH 3 0
BBX 5 9 0 0
BITMAP
018D40
074550
5D9300
5D3000
0C3000
0C3000
0C3000
0C3000
5EA200
ENDCHAR
STARTCHAR uni1E9E
ENCODING 7838
SWIDTH 684 0
DWIDTH 8 0
BBX 8 8 0 0
BITMAP
005A89C2
03D107B0
07902E20
0980AB20
098004E4
0980008A
09840089
4D889591
ENDCHAR
STARTCHAR uni1E9F
ENCODING 7839
SWIDTH 517 0
DWIDTH 6 0
BBX 6 9 0 0
BITMAP
028881
0A4082
06C200
00AE40
1C43E3
6A008A
88005B
5C0087
089780
ENDCHAR
STARTCHAR uni1EA0
ENCODING 7840
SWIDTH 718 0
DWIDTH 9 0
BBX 9 11 0 -3
BITMAP
0003B00000
0009F20000
0019A80000
00745E1000
00B00E6000
05B88CD000
0B1002F500
8D3004ED40
0000000000
0007800000
0001100000
ENDCHAR
STARTCHAR uni1EA1
ENCODING 7841
SWIDTH 480 0
DWIDTH 6 0
BBX 6 9 0 -3
BITMAP
085B30
390680
004A90
2A3690
790690
3EA7D4
000000
00B500
001000
ENDCHAR
STARTCHAR uni1EA2
ENCODING 7842
SWIDTH 718 0
DWIDTH 9 0
BBX 9 11 0 0
BITMAP
0005720000
0002560000
0000700000
0003B00000
0009F20000
0019A80000
00745E1000
00B00E6000
05B88CD000
0B1002F500
8D3004ED40
ENDCHAR
STARTCHAR uni1EA3
ENCODING 7843
SWIDTH 480 0
DWIDTH 6 0
BBX 6 9 0 0
BITMAP
017600
001B00
006200
085B30
390680
004A90
2A3690
790690
3EA7D4
ENDCHAR
STARTCHAR uni1EA4
ENCODING 7844
SWIDTH 718 0
DWIDTH 9 0
BBX 9 12 0 0
BITMAP
0000004500
0003739100
0027370000
0000000000
0003B00000
0009F20000
0019A80000
00745E1000
00B00E6000
05B88CD000
0B1002F500
8D3004ED40
ENDCHAR
STARTCHAR uni1EA5
ENCODING 7845
SWIDTH 480 0
DWIDTH 6 0
BBX 6 9 0 0
BITMAP
000086
01C860
072720
085B30
390680
004A90
2A3690
790690
3EA7D4
ENDCHAR
STARTCHAR uni1EA6
ENCODING 7846
SWIDTH 718 0
DWIDTH 9 0
BBX 9 12 0 0
BITMAP
0000150000
0004977000
0028471000
0000000000
0003B00000
0009F20000
0019A80000
00745E1000
00B00E6000
05B88CD000
0B1002F500
8D3004ED40
ENDCHAR
STARTCHAR uni1EA7
ENCODING 7847
SWIDTH 480 0
DWIDTH 6 0
BBX 6 9 0 0
BITMAP
000950
01C860
072620
085B30
390680
004A90
2A3690
790690
3EA7D4
ENDCHAR
STARTCHAR uni1EA8
ENCODING 7848
SWIDTH 718 0
DWIDTH 9 0
BBX 9 12 0 0
BITMAP
0000176000
000002B000
0008C72000
0024160000
0003B00000
0009F20000
0019A80000
00745E1000
00B00E6000
05B88CD000
0B1002F500
8D3004ED40
ENDCHAR
STARTCHAR uni1EA9
ENCODING 7849
SWIDTH 480 0
DWIDTH 6 0
BBX 6 10 0 0
BITMAP
000572
000165
01C850
061520
085B30
390680
004A90
2A3690
790690
3EA7D4
ENDCHAR
STARTCHAR uni1EAA
ENCODING 7850
SWIDTH 718 0
DWIDTH 9 0
BBX 9 12 0 0
BITMAP
003AB90000
0006B10000
0038380000
0000000000
0003B00000
0009F20000
0019A80000
00745E1000
00B00E6000
05B88CD000
0B1002F500
8D3004ED40
ENDCHAR
STARTCHAR uni1EAB
ENCODING 7851
SWIDTH 480 0
DWIDTH 6 0
BBX 6 10 0 0
BITMAP
035020
077B40
01D700
072730
085B30
390680
004A90
2A3690
790690
3EA7D4
ENDCHAR
STARTCHAR uni1EAC
ENCODING 7852
SWIDTH 718 0
DWIDTH 9 0
BBX 9 14 0 -3
BITMAP
0003700000
0029570000
0000000000
0003B00000
0009F20000
0019A80000
00745E1000
00B00E6000
05B88CD000
0B1002F500
8D3004ED40
0000000000
0007800000
0001100000
ENDCHAR
STARTCHAR uni1EAD
ENCODING 7853
SWIDTH 480 0
DWIDTH 6 0
BBX 6 11 0 -3
BITMAP
01C700
072730
085B30
390680
004A90
2A3690
790690
3EA7D4
000000
00B500
001000
ENDCHAR
STARTCHAR uni1EAE
ENCODING 7854
SWIDTH 718 0
DWIDTH 9 0
BBX 9 12 0 0
BITMAP
0010650000
0064780000
001AC50000
0000000000
0003B00000
0009F20000
0019A80000
00745E1000
00B00E6000
05B88CD000
0B1002F500
8D3004ED40
ENDCHAR
STARTCHAR uni1EAF
ENCODING 7855
SWIDTH 480 0
DWIDTH 6 0
BBX 6 9 0 0
BITMAP
003B00
085260
05CA10
085B30
390680
004A90
2A3690
790690
3EA7D4
ENDCHAR
STARTCHAR uni1EB0
ENCODING 7856
SWIDTH 718 0
DWIDTH 9 0
BBX 9 12 0 0
BITMAP
0018110000
0064780000
001AC50000
0000000000
0003B00000
0009F20000
0019A80000
00745E1000
00B00E6000
05B88CD000
0B1002F500
8D3004ED40
ENDCHAR
STARTCHAR uni1EB1
ENCODING 7857
SWIDTH 480 0
DWIDTH 6 0
BBX 6 9 0 0
BITMAP
03B000
084360
05CA10
085B30
390680
004A90
2A3690
790690
3EA7D4
ENDCHAR
STARTCHAR uni1EB2
ENCODING 7858
SWIDTH 718 0
DWIDTH 9 0
BBX 9 13 0 0
BITMAP
0005720000
0002650000
0063780000
001BC50000
0000000000
0003B00000
0009F20000
0019A80000
00745E1000
00B00E6000
05B88CD000
0B1002F500
8D3004ED40
ENDCHAR
STARTCHAR uni1EB3
ENCODING 7859
SWIDTH 480 0
DWIDTH 6 0
BBX 6 10 0 0
BITMAP
017600
011A00
085260
05CA10
085B30
390680
004A90
2A3690
790690
3EA7D4
ENDCHAR
STARTCHAR uni1EB4
ENCODING 7860
SWIDTH 718 0
DWIDTH 9 0
BBX 9 12 0 0
BITMAP
003AB80000
0052070000
001BC50000
0000000000
0003B00000
0009F20000
0019A80000
00745E1000
00B00E6000
05B88CD000
0B1002F500
8D3004ED40
ENDCHAR
STARTCHAR uni1EB5
ENCODING 7861
SWIDTH 480 0
DWIDTH 6 0
BBX 6 10 0 0
BITMAP
07B140
044B30
080260
05CA10
085B30
390680
004A90
2A3690
790690
3EA7D4
ENDCHAR
STARTCHAR uni1EB6
ENCODING 7862
SWIDTH 718 0
DWIDTH 9 0
BBX 9 15 0 -3
BITMAP
0010010000
0062080000
001BC50000
0000000000
0003B00000
0009F20000
0019A80000
00745E1000
00B00E6000
05B88CD000
0B1002F500
8D3004ED40
0000000000
0007800000
0001100000
ENDCHAR
STARTCHAR uni1EB7
ENCODING 7863
SWIDTH 480 0
DWIDTH 6 0
BBX 6 12 0 -3
BITMAP
010010
080260
05BA10
085B30
390680
004A90
2A3690
790690
3EA7D4
000000
00B500
001000
ENDCHAR
STARTCHAR uni1EB8
ENCODING 7864
SWIDTH 626 0
DWIDTH 8 0
BBX 8 11 0 -3
BITMAP
3CD88AB0
06B00050
06B00700
06D78C00
06B00600
06B00021
06B00091
3BD88BE0
00000000
000A5000
00010000
ENDCHAR
STARTCHAR uni1EB9
ENCODING 7865
SWIDTH 464 0
DWIDTH 6 0
BBX 6 9 0 -3
BITMAP
078A40
4802E0
8A77B1
870000
4D2051
07ED50
000000
009600
001000
ENDCHAR
STARTCHAR uni1EBA
ENCODING 7866
SWIDTH 626 0
DWIDTH 8 0
BBX 8 11 0 0
BITMAP
00077000
0002B000
00053000
3CD88AB0
06B00050
06B00700
06D78C00
06B00600
06B00021
06B00091
3BD88BE0
ENDCHAR
STARTCHAR uni1EBB
ENCODING 7867
SWIDTH 464 0
DWIDTH 6 0
BBX 6 9 0 0
BITMAP
007700
002A10
004400
078A40
4802E0
8A77B1
870000
4D2051
07ED50
ENDCHAR
STARTCHAR uni1EBC
ENCODING 7868
SWIDTH 626 0
DWIDTH 8 0
BBX 8 11 0 0
BITMAP
007B4600
0043C400
00000000
3CD88AB0
06B00050
06B00700
06D78C00
06B00600
06B00021
06B00091
3BD88BE0
ENDCHAR
STARTCHAR uni1EBD
ENCODING 7869
SWIDTH 464 0
DWIDTH 6 0
BBX 6 9 0 0
BITMAP
06B460
053C50
000000
078A40
4802E0
8A77B1
870000
4D2051
07ED50
ENDCHAR
STARTCHAR uni1EBE
ENCODING 7870
SWIDTH 626 0
DWIDTH 8 0
BBX 8 12 0 0
BITMAP
00000072
00064850
00636300
00000000
3CD88AB0
06B00050
06B00700
06D78C00
06B00600
06B00021
06B00091
3BD88BE0
ENDCHAR
STARTCHAR uni1EBF
ENCODING 7871
SWIDTH 464 0
DWIDTH 6 0
BBX 6 9 0 0
BITMAP
000067
00B960
063640
078A40
4802E0
8A77B1
870000
4D2051
07ED50
ENDCHAR
STARTCHAR uni1EC0
ENCODING 7872
SWIDTH 626 0
DWIDTH 8 0
BBX 8 12 0 0
BITMAP
00003300
00087A20
00747310
00000000
3CD88AB0
06B00050
06B00700
06D78C00
06B00600
06B00021
06B00091
3BD88BE0
ENDCHAR
STARTCHAR uni1EC1
ENCODING 7873
SWIDTH 464 0
DWIDTH 6 0
BBX 6 9 0 0
BITMAP
000770
00B960
063540
078A40
4802E0
8A77B1
870000
4D2051
07ED50
ENDCHAR
STARTCHAR uni1EC2
ENCODING 7874
SWIDTH 626 0
DWIDTH 8 0
BBX 8 12 0 0
BITMAP
00004730
00002370
001B9710
00613300
3CD88AB0
06B00050
06B00700
06D78C00
06B00600
06B00021
06B00091
3BD88BE0
ENDCHAR
STARTCHAR uni1EC3
ENCODING 7875
SWIDTH 464 0
DWIDTH 6 0
BBX 6 10 0 0
BITMAP
000473
000147
01B960
052430
078A40
4802E0
8A77B1
870000
4D2051
07ED50
ENDCHAR
STARTCHAR uni1EC4
ENCODING 7876
SWIDTH 626 0
DWIDTH 8 0
BBX 8 12 0 0
BITMAP
007BB500
000A7000
00747400
00000000
3CD88AB0
06B00050
06B00700
06D78C00
06B00600
06B00021
06B00091
3BD88BE0
ENDCHAR
STARTCHAR uni1EC5
ENCODING 7877
SWIDTH 464 0
DWIDTH 6 0
BBX 6 10 0 0
BITMAP
026120
066B50
00B900
063640
078A40
4802E0
8A77B1
870000
4D2051
07ED50
ENDCHAR
STARTCHAR uni1EC6
ENCODING 7878
SWIDTH 626 0
DWIDTH 8 0
BBX 8 14 0 -3
BITMAP
00064000
00668300
00000000
3CD88AB0
06B00050
06B00700
06D78C00
06B00600
06B00021
06B00091
3BD88BE0
00000000
000A5000
00010000
ENDCHAR
STARTCHAR uni1EC7
ENCODING 7879
SWIDTH 464 0
DWIDTH 6 0
BBX 6 11 0 -3
BITMAP
00B900
063540
078A40
4802E0
8A77B1
870000
4D2051
07ED50
000000
009600
001000
ENDCHAR
STARTCHAR uni1EC8
ENCODING 7880
SWIDTH 357 0
DWIDTH 4 0
BBX 4 11 0 0
BITMAP
0571
0265
0160
3CE5
06A0
06A0
06A0
06A0
06A0
06A0
3BE5
ENDCHAR
STARTCHAR uni1EC9
ENCODING 7881
SWIDTH 285 0
DWIDTH 3 0
BBX 3 9 0 0
BITMAP
3750
11A0
0710
4D30
0C30
0C30
0C30
0C30
4E90
ENDCHAR
STARTCHAR uni1ECA
ENCODING 7882
SWIDTH 357 0
DWIDTH 4 0
BBX 4 11 0 -3
BITMAP
3CE5
06A0
06A0
06A0
06A0
06A0
06A0
3BE5
0000
05A0
0010
ENDCHAR
STARTCHAR uni1ECB
ENCODING 7883
SWIDTH 285 0
DWIDTH 3 0
BBX 3 11 0 -3
BITMAP
0C40
0410
4D30
0C30
0C30
0C30
0C30
4E90
0000
0B40
0100
ENDCHAR
STARTCHAR uni1ECC
ENCODING 7884
SWIDTH 738 0
DWIDTH 9 0
BBX 9 11 0 -3
BITMAP
00897A7000
0A8000A800
2F10003F10
5E00001F30
5E00001F30
2F10003E00
0A8000A700
0089896000
0000000000
0002D00000
0000100000
ENDCHAR
STARTCHAR uni1ECD
ENCODING 7885
SWIDTH 514 0
DWIDTH 6 0
BBX 6 9 0 -3
BITMAP
078890
4B0097
88006B
89006B
4C0086
079880
000000
006A00
000100
ENDCHAR
STARTCHAR uni1ECE
ENCODING 7886
SWIDTH 738 0
DWIDTH 9 0
BBX 9 11 0 0
BITMAP
0003740000
0002290000
0000710000
00897A7000
0A8000A800
2F10003F10
5E00001F30
5E00001F30
2F10003E00
0A8000A700
0089896000
ENDCHAR
STARTCHAR uni1ECF
ENCODING 7887
SWIDTH 514 0
DWIDTH 6 0
BBX 6 9 0 0
BITMAP
006710
002640
002700
078890
4B0097
88006B
89006B
4C0086
079880
ENDCHAR
STARTCHAR uni1ED0
ENCODING 7888
SWIDTH 738 0
DWIDTH 9 0
BBX 9 12 0 0
BITMAP
0000003600
000272A200
0018280000
0000000000
00897A7000
0A8000A800
2F10003F10
5E00001F30
5E00001F30
2F10003E00
0A8000A700
0089896000
ENDCHAR
STARTCHAR uni1ED1
ENCODING 7889
SWIDTH 514 0
DWIDTH 6 0
BBX 6 9 0 0
BITMAP
00003B
009C61
046360
078890
4B0097
88006B
89006B
4C0086
079880
ENDCHAR
STARTCHAR uni1ED2
ENCODING 7890
SWIDTH 738 0
DWIDTH 9 0
BBX 9 12 0 0
BITMAP
0000051000
0003969000
0019381000
0000000000
00897A7000
0A8000A800
2F10003F10
5E00001F30
5E00001F30
2F10003E00
0A8000A700
0089896000
ENDCHAR
STARTCHAR uni1ED3
ENCODING 7891
SWIDTH 514 0
DWIDTH 6 0
BBX 6 9 0 0
BITMAP
0004A0
009C61
035260
078890
4B0097
88006B
89006B
4C0086
079880
ENDCHAR
STARTCHAR uni1ED4
ENCODING 7892
SWIDTH 738 0
DWIDTH 9 0
BBX 9 12 0 0
BITMAP
0000077000
0000029100
0006C74000
0016060000
00897A7000
0A8000A800
2F10003F10
5E00001F30
5E00001F30
2F10003E00
0A8000A700
0089896000
ENDCHAR
STARTCHAR uni1ED5
ENCODING 7893
SWIDTH 514 0
DWIDTH 6 0
BBX 6 10 0 0
BITMAP
000275
00012A
009B60
034250
078890
4B0097
88006B
89006B
4C0086
079880
ENDCHAR
STARTCHAR uni1ED6
ENCODING 7894
SWIDTH 738 0
DWIDTH 9 0
BBX 9 12 0 0
BITMAP
002ABA1000
0004C20000
0019390000
0000000000
00897A7000
0A8000A800
2F10003F10
5E00001F30
5E00001F30
2F10003E00
0A8000A700
0089896000
ENDCHAR
STARTCHAR uni1ED7
ENCODING 7895
SWIDTH 514 0
DWIDTH 6 0
BBX 6 10 0 0
BITMAP
016120
055B70
009C00
046370
078890
4B0097
88006B
89006B
4C0086
079880
ENDCHAR
STARTCHAR uni1ED8
ENCODING 7896
SWIDTH 738 0
DWIDTH 9 0
BBX 9 14 0 -3
BITMAP
0002710000
0019480000
0000000000
00897A7000
0A8000A800
2F10003F10
5E00001F30
5E00001F30
2F10003E00
0A8000A700
0089896000
0000000000
0002D00000
0000100000
ENDCHAR
STARTCHAR uni1ED9
ENCODING 7897
SWIDTH 514 0
DWIDTH 6 0
BBX 6 11 0 -3
BITMAP
009B00
046370
078890
4B0097
88006B
89006B
4C0086
079880
000000
006A00
000100
ENDCHAR
STARTCHAR uni1EDA
ENCODING 7898
SWIDTH 737 0
DWIDTH 9 0
BBX 9 11 0 0
BITMAP
0000550000
0005810960
0000000760
00898CE400
0A8000B900
2F10003F10
5E00001F30
5E00001F30
2F10003E00
0A8000A600
0089896000
ENDCHAR
STARTCHAR uni1EDB
ENCODING 7899
SWIDTH 516 0
DWIDTH 6 0
BBX 6 8 0 0
BITMAP
000D3C
00560A
0789E3
4B0096
88006B
89006B
4C0087
079880
ENDCHAR
STARTCHAR uni1EDC
ENCODING 7900
SWIDTH 737 0
DWIDTH 9 0
BBX 9 11 0 0
BITMAP
0006400000
0001930960
0000000760
00898CE400
0A8000B900
2F10003F10
5E00001F30
5E00001F30
2F10003E00
0A8000A600
0089896000
ENDCHAR
STARTCHAR uni1EDD
ENCODING 7901
SWIDTH 516 0
DWIDTH 6 0
BBX 6 8 0 0
BITMAP
01D20C
00380A
0789E3
4B0096
88006B
89006B
4C0087
079880
ENDCHAR
STARTCHAR uni1EDE
ENCODING 7902
SWIDTH 737 0
DWIDTH 9 0
BBX 9 11 0 0
BITMAP
0004740000
0002380960
0000710760
00898CE400
0A8000B900
2F10003F10
5E00001F30
5E00001F30
2F10003E00
0A8000A600
0089896000
ENDCHAR
STARTCHAR uni1EDF
ENCODING 7903
SWIDTH 516 0
DWIDTH 6 0
BBX 6 9 0 0
BITMAP
006710
00264C
00270A
0789E3
4B0096
88006B
89006B
4C0087
079880
ENDCHAR
STARTCHAR uni1EE0
ENCODING 7904
SWIDTH 737 0
DWIDTH 9 0
BBX 9 11 0 0
BITMAP
001B934000
00408B1960
0000000760
00898CE400
0A8000B900
2F10003F10
5E00001F30
5E00001F30
2F10003E00
0A8000A600
0089896000
ENDCHAR
STARTCHAR uni1EE1
ENCODING 7905
SWIDTH 516 0
DWIDTH 6 0
BBX 6 8 0 0
BITMAP
06BC8C
00000A
0789E3
4B0096
88006B
89006B
4C0087
079880
ENDCHAR
STARTCHAR uni1EE2
ENCODING 7906
SWIDTH 737 0
DWIDTH 9 0
BBX 9 13 0 -3
BITMAP
0000000960
0000000760
00898CE400
0A8000B900
2F10003F10
5E00001F30
5E00001F30
2F10003E00
0A8000A600
0089896000
0000000000
0002D00000
0000100000
ENDCHAR
STARTCHAR uni1EE3
ENCODING 7907
SWIDTH 516 0
DWIDTH 6 0
BBX 6 11 0 -3
BITMAP
00000C
00000A
0789E3
4B0096
88006B
89006B
4C0087
079880
000000
006A00
000100
ENDCHAR
STARTCHAR uni1EE4
ENCODING 7908
SWIDTH 752 0
DWIDTH 9 0
BBX 9 11 0 -3
BITMAP
5DD4018E50
0980000B00
0980000A00
0980000A00
0980000A00
0890001900
04E1007500
007CBB7000
0000000000
0001D20000
0000100000
ENDCHAR
STARTCHAR uni1EE5
ENCODING 7909
SWIDTH 570 0
DWIDTH 7 0
BBX 7 9 0 -3
BITMAP
5E12AA00
0E105A00
0E105A00
0E105A00
0D307A00
06D98C30
00000000
004C0000
00010000
ENDCHAR
STARTCHAR uni1EE6
ENCODING 7910
SWIDTH 752 0
DWIDTH 9 0
BBX 9 11 0 0
BITMAP
0001760000
00001B0000
0000520000
5DD4018E50
0980000B00
0980000A00
0980000A00
0980000A00
0890001900
04E1007500
007CBB7000
ENDCHAR
STARTCHAR uni1EE7
ENCODING 7911
SWIDTH 570 0
DWIDTH 7 0
BBX 7 9 0 0
BITMAP
00473000
00247000
00080000
5E12AA00
0E105A00
0E105A00
0E105A00
0D307A00
06D98C30
ENDCHAR
STARTCHAR uni1EE8
ENCODING 7912
SWIDTH 762 0
DWIDTH 9 0
BBX 10 11 0 0
BITMAP
0000270014
0001A3004C
0000000016
5DD4018D10
0980000A00
0980000A00
0980000A00
0980000A00
0890001900
04D1007400
007CBB7000
ENDCHAR
STARTCHAR uni1EE9
ENCODING 7913
SWIDTH 574 0
DWIDTH 7 0
BBX 7 8 0 0
BITMAP
000C41C0
003700A0
5E12BB10
0E105A00
0E105A00
0E105A00
0D307A00
06D98C30
ENDCHAR
STARTCHAR uni1EEA
ENCODING 7914
SWIDTH 762 0
DWIDTH 9 0
BBX 10 11 0 0
BITMAP
0003700014
000067004C
0000000016
5DD4018D10
0980000A00
0980000A00
0980000A00
0980000A00
0890001900
04D1007400
007CBB7000
ENDCHAR
STARTCHAR uni1EEB
ENCODING 7915
SWIDTH 574 0
DWIDTH 7 0
BBX 7 8 0 0
BITMAP
00C401C0
002900A0
5E12BB10
0E105A00
0E105A00
0E105A00
0D307A00
06D98C30
ENDCHAR
STARTCHAR uni1EEC
ENCODING 7916
SWIDTH 762 0
DWIDTH 9 0
BBX 10 11 0 0
BITMAP
0001760014
00001B004C
0000520016
5DD4018D10
0980000A00
0980000A00
0980000A00
0980000A00
0890001900
04D1007400
007CBB7000
ENDCHAR
STARTCHAR uni1EED
ENCODING 7917
SWIDTH 574 0
DWIDTH 7 0
BBX 7 9 0 0
BITMAP
00572000
002561C0
001800A0
5E12BB10
0E105A00
0E105A00
0E105A00
0D307A00
06D98C30
ENDCHAR
STARTCHAR uni1EEE
ENCODING 7918
SWIDTH 762 0
DWIDTH 9 0
BBX 10 11 0 0
BITMAP
0007B46014
00043C404C
0000000016
5DD4018D10
0980000A00
0980000A00
0980000A00
0980000A00
0890001900
04D1007400
007CBB7000
ENDCHAR
STARTCHAR uni1EEF
ENCODING 7919
SWIDTH 574 0
DWIDTH 7 0
BBX 7 9 0 0
BITMAP
02B75100
051A91C0
000000A0
5E12BB10
0E105A00
0E105A00
0E105A00
0D307A00
06D98C30
ENDCHAR
STARTCHAR uni1EF0
ENCODING 7920
SWIDTH 762 0
DWIDTH 9 0
BBX 10 14 0 -3
BITMAP
0000000014
000000004C
0000000016
5DD4018D10
0980000A00
0980000A00
0980000A00
0980000A00
0890001900
04D1007400
007CBB7000
0000000000
0001D20000
0000100000
ENDCHAR
STARTCHAR uni1EF1
ENCODING 7921
SWIDTH 574 0
DWIDTH 7 0
BBX 7 11 0 -3
BITMAP
000001C0
000000A0
5E12BB10
0E105A00
0E105A00
0E105A00
0D307A00
06D98C30
00000000
005B0000
00010000
ENDCHAR
STARTCHAR Ygrave
ENCODING 7922
SWIDTH 647 0
DWIDTH 8 0
BBX 8 11 0 0
BITMAP
00171000
0004A100
00000000
8FA105E6
09B00640
01D51900
005E8200
000B8000
000A7000
000A7000
005DC400
ENDCHAR
STARTCHAR ygrave
ENCODING 7923
SWIDTH 483 0
DWIDTH 6 0
BBX 7 11 -1 -3
BITMAP
001D2000
00038000
1BD21B80
02E10900
00A60800
004C4300
000C9000
00077000
00072000
01190000
0BC20000
ENDCHAR
STARTCHAR uni1EF4
ENCODING 7924
SWIDTH 647 0
DWIDTH 8 0
BBX 8 11 0 -3
BITMAP
8FA105E6
09B00640
01D51900
005E8200
000B8000
000A7000
000A7000
005DC400
00000000
00097000
00010000
ENDCHAR
STARTCHAR uni1EF5
ENCODING 7925
SWIDTH 483 0
DWIDTH 6 0
BBX 7 9 -1 -3
BITMAP
1BD21B80
02E10900
00A60800
004C4300
000C9000
00077000
00072000
01197800
0BC21100
ENDCHAR
STARTCHAR uni1EF6
ENCODING 7926
SWIDTH 647 0
DWIDTH 8 0
BBX 8 11 0 0
BITMAP
00067100
00027300
00026000
8FA105E6
09B00640
01D51900
005E8200
000B8000
000A7000
000A7000
005DC400
ENDCHAR
STARTCHAR uni1EF7
ENCODING 7927
SWIDTH 483 0
DWIDTH 6 0
BBX 7 12 -1 -3
BITMAP
00067100
00027400
00026000
1BD21B80
02E10900
00A60800
004C4300
000C9000
00077000
00072000
01190000
0BC20000
ENDCHAR
STARTCHAR uni1EF8
ENCODING 7928
SWIDTH 647 0
DWIDTH 8 0
BBX 8 11 0 0
BITMAP
004C6600
0051B700
00000000
8FA105E6
09B00640
01D51900
005E8200
000B8000
000A7000
000A7000
005DC400
ENDCHAR
STARTCHAR uni1EF9
ENCODING 7929
SWIDTH 483 0
DWIDTH 6 0
BBX 7 12 -1 -3
BITMAP
004B6600
0051B700
00000000
1BD21B80
02E10900
00A60800
004C4300
000C9000
00077000
00072000
01190000
0BC20000
ENDCHAR
STARTCHAR uni2000
ENCODING 8192
SWIDTH 500 0
DWIDTH 6 0
BBX 1 1 0 0
BITMAP
00
ENDCHAR
STARTCHAR uni2001
ENCODING 8193
SWIDTH 1000 0
DWIDTH 12 0
BBX 1 1 0 0
BITMAP
00
ENDCHAR
STARTCHAR uni2002
ENCODING 8194
SWIDTH 500 0
DWIDTH 6 0
BBX 1 1 0 0
BITMAP
00
ENDCHAR
STARTCHAR uni2003
ENCODING 8195
SWIDTH 1000 0
DWIDTH 12 0
BBX 1 1 0 0
BITMAP
00
ENDCHAR
STARTCHAR uni2004
ENCODING 8196
SWIDTH 334 0
DWIDTH 4 0
BBX 1 1 0 0
BITMAP
00
ENDCHAR
STARTCHAR uni2005
ENCODING 8197
SWIDTH 250 0
DWIDTH 3 0
BBX 1 1 0 0
BITMAP
00
ENDCHAR
STARTCHAR uni2006
ENCODING 8198
SWIDTH 167 0
DWIDTH 2 0
BBX 1 1 0 0
BITMAP
00
ENDCHAR
STARTCHAR uni2007
ENCODING 8199
SWIDTH 560 0
DWIDTH 7 0
BBX 1 1 0 0
BITMAP
00
ENDCHAR
STARTCHAR uni2008
ENCODING 8200
SWIDTH 297 0
DWIDTH 4 0
BBX 1 1 0 0
BITMAP
00
ENDCHAR
STARTCHAR uni2009
ENCODING 8201
SWIDTH 125 0
DWIDTH 2 0
BBX 1 1 0 0
BITMAP
00
ENDCHAR
STARTCHAR uni200A
ENCODING 8202
SWIDTH 63 0
DWIDTH 1 0
BBX 1 1 0 0
BITMAP
00
ENDCHAR
STARTCHAR uni200B
ENCODING 8203
SWIDTH 0 0
DWIDTH 0 0
BBX 1 1 0 0
BITMAP
00
ENDCHAR
STARTCHAR uni200C
ENCODING 8204
SWIDTH 0 0
DWIDTH 0 0
BBX 2 13 -1 -3
BITMAP
22
22
22
22
22
22
22
22
22
22
22
22
22
ENDCHAR
STARTCHAR uni200D
ENCODING 8205
SWIDTH 0 0
DWIDTH 0 0
BBX 4 14 -2 -3
BITMAP
2552
0770
2332
0220
0220
0220
0220
0220
0220
0220
0220
0220
0220
0220
ENDCHAR
STARTCHAR uni2010
ENCODING 8208
SWIDTH 315 0
DWIDTH 4 0
BBX 4 1 0 3
BITMAP
6CC3
ENDCHAR
STARTCHAR uni2011
ENCODING 8209
SWIDTH 315 0
DWIDTH 4 0
BBX 4 1 0 3
BITMAP
6CC3
ENDCHAR
STARTCHAR figuredash
ENCODING 8210
SWIDTH 495 0
DWIDTH 6 0
BBX 6 1 0 3
BITMAP
7BBBB6
ENDCHAR
STARTCHAR endash
ENCODING 8211
SWIDTH 500 0
DWIDTH 6 0
BBX 6 1 0 3
BITMAP
7BBBB7
ENDCHAR
STARTCHAR emdash
ENCODING 8212
SWIDTH 1000 0
DWIDTH 12 0
BBX 12 1 0 3
BITMAP
7BBBBBBBBBB7
ENDCHAR
STARTCHAR uni2015
ENCODING 8213
SWIDTH 940 0
DWIDTH 11 0
BBX 12 1 0 3
BITMAP
BBBBBBBBBBB3
ENDCHAR
STARTCHAR uni2016
ENCODING 8214
SWIDTH 427 0
DWIDTH 5 0
BBX 3 12 1 -3
BITMAP
A0A0
A0A0
A0A0
A0A0
A0A0
A0A0
A0A0
A0A0
A0A0
A0A0
A0A0
A0A0
ENDCHAR
STARTCHAR underscoredbl
ENCODING 8215
SWIDTH 512 0
DWIDTH 6 0
BBX 7 2 0 -3
BITMAP
BBBBBB20
BBBBBB20
ENDCHAR
STARTCHAR quoteleft
ENCODING 8216
SWIDTH 245 0
DWIDTH 3 0
BBX 3 4 0 5
BITMAP
0410
2700
3F40
0300
ENDCHAR
STARTCHAR quoteright
ENCODING 8217
SWIDTH 245 0
DWIDTH 3 0
BBX 3 3 0 6
BITMAP
4E10
1A20
2600
ENDCHAR
STARTCHAR quotesinglbase
ENCODING 8218
SWIDTH 243 0
DWIDTH 3 0
BBX 3 4 0 -2
BITMAP
1400
4F20
0810
2300
ENDCHAR
STARTCHAR quotereversed
ENCODING 8219
SWIDTH 243 0
DWIDTH 3 0
BBX 3 3 0 6
BITMAP
2E30
3910
0710
ENDCHAR
STARTCHAR quotedblleft
ENCODING 8220
SWIDTH 435 0
DWIDTH 5 0
BBX 5 4 0 5
BITMAP
041230
270900
3F4E80
030210
ENDCHAR
STARTCHAR quotedblright
ENCODING 8221
SWIDTH 434 0
DWIDTH 5 0
BBX 5 3 0 6
BITMAP
4E2E50
1A2760
260710
ENDCHAR
STARTCHAR quotedblbase
ENCODING 8222
SWIDTH 433 0
DWIDTH 5 0
BBX 5 4 0 -2
BITMAP
140410
4F3E70
081450
230500
ENDCHAR
STARTCHAR uni201F
ENCODING 8223
SWIDTH 434 0
DWIDTH 5 0
BBX 5 3 0 6
BITMAP
2E4C70
391B20
061530
ENDCHAR
STARTCHAR dagger
ENCODING 8224
SWIDTH 512 0
DWIDTH 6 0
BBX 6 11 0 -2
BITMAP
005800
004600
001400
3E89E5
012400
005700
007900
004600
002400
001300
001300
ENDCHAR
STARTCHAR daggerdbl
ENCODING 8225
SWIDTH 512 0
DWIDTH 6 0
BBX 6 11 0 -2
BITMAP
005800
004600
001300
3E99E5
013400
006900
003400
3D89C4
012410
006800
002300
ENDCHAR
STARTCHAR bullet
ENCODING 8226
SWIDTH 457 0
DWIDTH 5 0
BBX 4 4 1 2
BITMAP
0100
6FC0
AFF2
4EB0
ENDCHAR
STARTCHAR twodotenleader
ENCODING 8229
SWIDTH 500 0
DWIDTH 6 0
BBX 6 2 0 0
BITMAP
140041
5C00C5
ENDCHAR
STARTCHAR ellipsis
ENCODING 8230
SWIDTH 887 0
DWIDTH 11 0
BBX 9 2 1 0
BITMAP
4301500510
A704D00D50
ENDCHAR
STARTCHAR uni202F
ENCODING 8239
SWIDTH 125 0
DWIDTH 2 0
BBX 1 1 0 0
BITMAP
00
ENDCHAR
STARTCHAR perthousand
ENCODING 8240
SWIDTH 1017 0
DWIDTH 12 0
BBX 12 8 0 0
BITMAP
086967A00000
48060B200000
661558000000
1851B1000000
000745530652
001949065706
008275079407
027039715971
ENDCHAR
STARTCHAR uni2031
ENCODING 8241
SWIDTH 1342 0
DWIDTH 16 0
BBX 16 8 0 0
BITMAP
086967A000000000
48060B2000000000
6615580000000000
1851B10000000000
0007455306520652
0019490657066606
008275079407A216
0270397159716860
ENDCHAR
STARTCHAR minute
ENCODING 8242
SWIDTH 296 0
DWIDTH 4 0
BBX 3 4 0 5
BITMAP
0490
0950
0B00
1500
ENDCHAR
STARTCHAR second
ENCODING 8243
SWIDTH 436 0
DWIDTH 5 0
BBX 5 4 0 5
BITMAP
049950
095D10
0B4800
145100
ENDCHAR
STARTCHAR uni2034
ENCODING 8244
SWIDTH 576 0
DWIDTH 7 0
BBX 6 4 0 5
BITMAP
04995D
095D5B
0B4883
145160
ENDCHAR
STARTCHAR uni2035
ENCODING 8245
SWIDTH 296 0
DWIDTH 4 0
BBX 3 4 0 5
BITMAP
2C00
0C20
0470
0060
ENDCHAR
STARTCHAR uni2036
ENCODING 8246
SWIDTH 436 0
DWIDTH 5 0
BBX 5 4 0 5
BITMAP
2C6700
0C4C00
047920
006240
ENDCHAR
STARTCHAR uni2037
ENCODING 8247
SWIDTH 576 0
DWIDTH 7 0
BBX 6 4 0 5
BITMAP
2C67B3
0C4C68
04792B
006245
ENDCHAR
STARTCHAR uni2038
ENCODING 8248
SWIDTH 523 0
DWIDTH 6 0
BBX 6 4 0 -3
BITMAP
005900
027460
180063
110002
ENDCHAR
STARTCHAR guilsinglleft
ENCODING 8249
SWIDTH 307 0
DWIDTH 4 0
BBX 3 6 0 0
BITMAP
0010
0280
3B10
5A00
0560
0040
ENDCHAR
STARTCHAR guilsinglright
ENCODING 8250
SWIDTH 307 0
DWIDTH 4 0
BBX 4 6 0 0
BITMAP
1000
1800
03A0
01C2
0920
2200
ENDCHAR
STARTCHAR uni203B
ENCODING 8251
SWIDTH 701 0
DWIDTH 8 0
BBX 8 9 0 -1
BITMAP
02001002
1B16C085
02B13670
014A4910
0E48D0D6
034B6831
03B24780
1B15B076
01000001
ENDCHAR
STARTCHAR exclamdbl
ENCODING 8252
SWIDTH 565 0
DWIDTH 7 0
BBX 5 8 1 0
BITMAP
C30690
D408A0
C30790
B20580
A00460
600240
410230
D407A0
ENDCHAR
STARTCHAR uni203E
ENCODING 8254
SWIDTH 512 0
DWIDTH 6 0
BBX 7 1 0 10
BITMAP
99999910
ENDCHAR
STARTCHAR uni2040
ENCODING 8256
SWIDTH 810 0
DWIDTH 10 0
BBX 8 3 1 6
BITMAP
04ADCA30
66100384
30000003
ENDCHAR
STARTCHAR uni2043
ENCODING 8259
SWIDTH 352 0
DWIDTH 4 0
BBX 4 2 0 2
BITMAP
6FF9
6FF9
ENDCHAR
STARTCHAR fraction
ENCODING 8260
SWIDTH 205 0
DWIDTH 2 0
BBX 6 9 -2 0
BITMAP
000009
000064
000190
000720
002800
008100
036000
090000
540000
ENDCHAR
STARTCHAR uni2047
ENCODING 8263
SWIDTH 822 0
DWIDTH 10 0
BBX 10 8 0 0
BITMAP
287A2397A1
96089A5097
32097320A6
001C1001C0
0083000820
0070000700
0040000400
02E1003D00
ENDCHAR
STARTCHAR uni204B
ENCODING 8267
SWIDTH 605 0
DWIDTH 7 0
BBX 7 10 0 -2
BITMAP
1ACC8900
039A2860
039A2680
039A2860
039A7900
039A2000
039A2000
039A2000
039A2000
2A999100
ENDCHAR
STARTCHAR uni204C
ENCODING 8268
SWIDTH 479 0
DWIDTH 6 0
BBX 5 4 1 1
BITMAP
496410
EE6000
DE6000
496410
ENDCHAR
STARTCHAR uni204D
ENCODING 8269
SWIDTH 479 0
DWIDTH 6 0
BBX 5 4 0 1
BITMAP
266920
044FA0
044F90
266920
ENDCHAR
STARTCHAR uni204E
ENCODING 8270
SWIDTH 410 0
DWIDTH 5 0
BBX 5 5 0 -2
BITMAP
006000
559640
17C600
688A40
00B000
ENDCHAR
STARTCHAR uni204F
ENCODING 8271
SWIDTH 245 0
DWIDTH 3 0
BBX 3 8 0 -2
BITMAP
2D10
1600
0000
0000
0500
5E30
3600
0510
ENDCHAR
STARTCHAR uni2050
ENCODING 8272
SWIDTH 809 0
DWIDTH 10 0
BBX 9 9 0 0
BITMAP
006BBBA300
0970002B40
19000000A0
0000000000
0000000000
0000000000
1800000090
0960001940
006AAAA300
ENDCHAR
STARTCHAR uni2051
ENCODING 8273
SWIDTH 410 0
DWIDTH 5 0
BBX 5 10 0 -1
BITMAP
00B000
698A50
07C600
569740
006000
006000
569740
07C600
688950
00B000
ENDCHAR
STARTCHAR uni2052
ENCODING 8274
SWIDTH 482 0
DWIDTH 6 0
BBX 5 12 0 -3
BITMAP
1D10C0
0402A0
000760
000B10
001B00
006700
00A300
00C000
049000
094000
0C04D0
3A0020
ENDCHAR
STARTCHAR uni2057
ENCODING 8279
SWIDTH 727 0
DWIDTH 9 0
BBX 8 4 0 5
BITMAP
04995D3C
095D5B78
0B4883A1
14516060
ENDCHAR
STARTCHAR uni205F
ENCODING 8287
SWIDTH 222 0
DWIDTH 3 0
BBX 1 1 0 0
BITMAP
00
ENDCHAR
STARTCHAR uni2061
ENCODING 8289
SWIDTH 0 0
DWIDTH 0 0
BBX 1 1 0 0
BITMAP
00
ENDCHAR
STARTCHAR uni2062
ENCODING 8290
SWIDTH 0 0
DWIDTH 0 0
BBX 1 1 0 0
BITMAP
00
ENDCHAR
STARTCHAR uni2063
ENCODING 8291
SWIDTH 0 0
DWIDTH 0 0
BBX 1 1 0 0
BITMAP
00
ENDCHAR
STARTCHAR uni2064
ENCODING 8292
SWIDTH 0 0
DWIDTH 0 0
BBX 1 1 0 0
BITMAP
00
ENDCHAR
STARTCHAR zerosuperior
ENCODING 8304
SWIDTH 412 0
DWIDTH 5 0
BBX 5 6 0 3
BITMAP
086800
670750
950590
950580
670850
096800
ENDCHAR
STARTCHAR uni2071
ENCODING 8305
SWIDTH 245 0
DWIDTH 3 0
BBX 3 7 0 3
BITMAP
1D00
0100
4D00
0D00
0D00
0D00
3F30
ENDCHAR
STARTCHAR foursuperior
ENCODING 8308
SWIDTH 403 0
DWIDTH 5 0
BBX 5 6 0 3
BITMAP
004B00
019B00
073B00
543B00
ACCE80
003B00
ENDCHAR
STARTCHAR fivesuperior
ENCODING 8309
SWIDTH 358 0
DWIDTH 4 0
BBX 4 6 0 3
BITMAP
0DC8
2400
4DB3
003B
0009
8973
ENDCHAR
STARTCHAR sixsuperior
ENCODING 8310
SWIDTH 390 0
DWIDTH 5 0
BBX 5 6 0 3
BITMAP
039500
2C1000
7A9800
950B40
750940
196900
ENDCHAR
STARTCHAR sevensuperior
ENCODING 8311
SWIDTH 364 0
DWIDTH 4 0
BBX 5 6 0 3
BITMAP
7CCE10
300900
004600
00A100
01A000
075000
ENDCHAR
STARTCHAR eightsuperior
ENCODING 8312
SWIDTH 374 0
DWIDTH 4 0
BBX 5 6 0 3
BITMAP
386700
850B00
2C9400
289B00
920B20
475800
ENDCHAR
STARTCHAR ninesuperior
ENCODING 8313
SWIDTH 390 0
DWIDTH 5 0
BBX 5 6 0 3
BITMAP
296700
940A20
950B40
2A8D30
003B00
169100
ENDCHAR
STARTCHAR uni207A
ENCODING 8314
SWIDTH 536 0
DWIDTH 6 0
BBX 6 6 0 3
BITMAP
001400
002800
002800
4ABDA9
002800
002800
ENDCHAR
STARTCHAR uni207B
ENCODING 8315
SWIDTH 536 0
DWIDTH 6 0
BBX 6 1 0 5
BITMAP
4AAAA9
ENDCHAR
STARTCHAR uni207C
ENCODING 8316
SWIDTH 534 0
DWIDTH 6 0
BBX 6 3 0 4
BITMAP
4AAAA8
000000
4AAAA8
ENDCHAR
STARTCHAR parenleftsuperior
ENCODING 8317
SWIDTH 268 0
DWIDTH 3 0
BBX 3 9 0 1
BITMAP
0260
0900
6500
9300
A200
8400
2800
0550
0020
ENDCHAR
STARTCHAR parenrightsuperior
ENCODING 8318
SWIDTH 268 0
DWIDTH 3 0
BBX 3 9 0 1
BITMAP
4300
0820
0290
00C0
00C0
01B0
0650
3700
2000
ENDCHAR
STARTCHAR nsuperior
ENCODING 8319
SWIDTH 491 0
DWIDTH 6 0
BBX 6 5 0 3
BITMAP
4D7C60
0D01C0
0D00D0
0D00D0
4F34E3
ENDCHAR
STARTCHAR zeroinferior
ENCODING 8320
SWIDTH 412 0
DWIDTH 5 0
BBX 5 6 0 -3
BITMAP
086800
670750
950590
950580
670850
096800
ENDCHAR
STARTCHAR oneinferior
ENCODING 8321
SWIDTH 333 0
DWIDTH 4 0
BBX 4 6 0 -3
BITMAP
3A80
0580
0580
0580
0580
2AC3
ENDCHAR
STARTCHAR twoinferior
ENCODING 8322
SWIDTH 373 0
DWIDTH 4 0
BBX 5 6 0 -3
BITMAP
3AC700
301E00
002B00
009100
082220
8DCD10
ENDCHAR
STARTCHAR threeinferior
ENCODING 8323
SWIDTH 374 0
DWIDTH 4 0
BBX 4 6 0 -3
BITMAP
3AC6
1057
06C4
002E
000C
7A74
ENDCHAR
STARTCHAR fourinferior
ENCODING 8324
SWIDTH 403 0
DWIDTH 5 0
BBX 5 6 0 -3
BITMAP
004B00
019B00
073B00
543B00
ACCE80
003B00
ENDCHAR
STARTCHAR fiveinferior
ENCODING 8325
SWIDTH 358 0
DWIDTH 4 0
BBX 4 6 0 -3
BITMAP
0DC8
2400
4DB3
003B
0009
8973
ENDCHAR
STARTCHAR sixinferior
ENCODING 8326
SWIDTH 390 0
DWIDTH 5 0
BBX 5 6 0 -3
BITMAP
039500
2C1000
7A9800
950B40
750940
196900
ENDCHAR
STARTCHAR seveninferior
ENCODING 8327
SWIDTH 364 0
DWIDTH 4 0
BBX 5 6 0 -3
BITMAP
7CCE10
300900
004600
00A100
01A000
075000
ENDCHAR
STARTCHAR eightinferior
ENCODING 8328
SWIDTH 374 0
DWIDTH 4 0
BBX 5 6 0 -3
BITMAP
386700
850B00
2C9400
289B00
920B20
475800
ENDCHAR
STARTCHAR nineinferior
ENCODING 8329
SWIDTH 390 0
DWIDTH 5 0
BBX 5 6 0 -3
BITMAP
296700
940A20
950B40
2A8D30
003B00
169100
ENDCHAR
STARTCHAR uni208A
ENCODING 8330
SWIDTH 536 0
DWIDTH 6 0
BBX 6 6 0 -3
BITMAP
001400
002800
002800
4ABDA9
002800
002800
ENDCHAR
STARTCHAR uni208B
ENCODING 8331
SWIDTH 536 0
DWIDTH 6 0
BBX 6 1 0 -1
BITMAP
4AAAA9
ENDCHAR
STARTCHAR uni208C
ENCODING 8332
SWIDTH 534 0
DWIDTH 6 0
BBX 6 3 0 -2
BITMAP
4AAAA8
000000
4AAAA8
ENDCHAR
STARTCHAR parenleftinferior
ENCODING 8333
SWIDTH 268 0
DWIDTH 3 0
BBX 3 9 0 -5
BITMAP
0260
0900
6500
9300
A200
8400
2800
0550
0020
ENDCHAR
STARTCHAR parenrightinferior
ENCODING 8334
SWIDTH 268 0
DWIDTH 3 0
BBX 3 9 0 -5
BITMAP
4300
0820
0290
00C0
00C0
01B0
0650
3700
2000
ENDCHAR
STARTCHAR uni20A3
ENCODING 8355
SWIDTH 495 0
DWIDTH 6 0
BBX 6 8 0 0
BITMAP
4B98A7
0A6018
0A6002
5DB850
5DB850
0A6000
0A6000
4EC300
ENDCHAR
STARTCHAR uni20A4
ENCODING 8356
SWIDTH 495 0
DWIDTH 6 0
BBX 6 8 0 0
BITMAP
0068D3
02A055
05A000
3AD840
39E840
01D000
58B004
878DC2
ENDCHAR
STARTCHAR uni20A7
ENCODING 8359
SWIDTH 1193 0
DWIDTH 14 0
BBX 14 8 0 0
BITMAP
29A78300100000
07902E27300000
07900D5D834889
07902D1B30B306
07C8820B306E60
0790000B3005DA
0790000B30701F
3BD40007C5A767
ENDCHAR
STARTCHAR uni20AB
ENCODING 8363
SWIDTH 495 0
DWIDTH 6 0
BBX 6 8 0 0
BITMAP
0008A0
007AD4
087AB0
4904B0
7704B0
5B05B0
0AC8C3
188880
ENDCHAR
STARTCHAR Euro
ENCODING 8364
SWIDTH 495 0
DWIDTH 6 0
BBX 6 8 0 0
BITMAP
019798
095019
0E1003
8E8820
9E8810
1F1000
0B8005
02BDB2
ENDCHAR
STARTCHAR uni20B9
ENCODING 8377
SWIDTH 495 0
DWIDTH 6 0
BBX 6 8 0 0
BITMAP
6FFFF5
002C40
6FFFF5
002D50
6FE500
01C900
002E90
0005ED
ENDCHAR
STARTCHAR uni20BA
ENCODING 8378
SWIDTH 495 0
DWIDTH 6 0
BBX 6 8 0 0
BITMAP
5A9300
0B6000
0B6500
6D9400
3CA700
4C505A
0B5088
4EA991
ENDCHAR
STARTCHAR uni20BD
ENCODING 8381
SWIDTH 495 0
DWIDTH 6 0
BBX 6 8 0 0
BITMAP
4A9860
0A60B7
0A6089
0A60B5
5DB850
5DB840
0A6000
4EB300
ENDCHAR
STARTCHAR uni20D0
ENCODING 8400
SWIDTH 0 0
DWIDTH 0 0
BBX 6 3 -6 8
BITMAP
001000
062000
5EDDDA
ENDCHAR
STARTCHAR uni20D1
ENCODING 8401
SWIDTH 0 0
DWIDTH 0 0
BBX 6 3 -6 8
BITMAP
000010
000061
4DDDEB
ENDCHAR
STARTCHAR uni20D2
ENCODING 8402
SWIDTH 0 0
DWIDTH 0 0
BBX 2 11 -4 -2
BITMAP
18
18
18
18
18
18
18
18
18
18
14
ENDCHAR
STARTCHAR uni20D3
ENCODING 8403
SWIDTH 0 0
DWIDTH 0 0
BBX 2 8 -4 -2
BITMAP
18
18
18
18
18
18
18
18
ENDCHAR
STARTCHAR uni20D4
ENCODING 8404
SWIDTH 0 0
DWIDTH 0 0
BBX 7 4 -7 6
BITMAP
003CE900
20B31770
2A400090
08610020
ENDCHAR
STARTCHAR uni20D5
ENCODING 8405
SWIDTH 0 0
DWIDTH 0 0
BBX 7 4 -6 6
BITMAP
04DE8000
1B217520
54001960
20004830
ENDCHAR
STARTCHAR uni20D6
ENCODING 8406
SWIDTH 0 0
DWIDTH 0 0
BBX 6 5 -6 6
BITMAP
001000
071000
5FDDD9
071000
001000
ENDCHAR
STARTCHAR uni20D7
ENCODING 8407
SWIDTH 0 0
DWIDTH 0 0
BBX 6 5 -6 6
BITMAP
000010
000062
3DDDEC
000062
000010
ENDCHAR
STARTCHAR uni20D8
ENCODING 8408
SWIDTH 0 0
DWIDTH 0 0
BBX 4 4 -5 1
BITMAP
1CE6
751B
751B
1CE6
ENDCHAR
STARTCHAR uni20D9
ENCODING 8409
SWIDTH 0 0
DWIDTH 0 0
BBX 5 4 -5 1
BITMAP
1CE500
753D50
751C10
1CE600
ENDCHAR
STARTCHAR uni20DA
ENCODING 8410
SWIDTH 0 0
DWIDTH 0 0
BBX 5 4 -5 1
BITMAP
1CE600
751C00
753D50
1CE500
ENDCHAR
STARTCHAR uni20DB
ENCODING 8411
SWIDTH 0 0
DWIDTH 0 0
BBX 7 1 -6 7
BITMAP
933A0B20
ENDCHAR
STARTCHAR uni20DC
ENCODING 8412
SWIDTH 0 0
DWIDTH 0 0
BBX 9 1 -7 7
BITMAP
C1671C0850
ENDCHAR
STARTCHAR uni20DD
ENCODING 8413
SWIDTH 0 0
DWIDTH 0 0
BBX 12 12 -9 -3
BITMAP
0004AEFC7100
009C51039D20
07A0000004D1
1D1000000077
67000000001C
84000000000C
84000000000C
67000000001C
1D1000000077
07A0000004C1
008C51039D20
0004BEFD7100
ENDCHAR
STARTCHAR uni20DE
ENCODING 8414
SWIDTH 0 0
DWIDTH 0 0
BBX 13 12 -9 -2
BITMAP
9DDDDDDDDDDE20
A2000000000A20
A2000000000A20
A2000000000A20
A2000000000A20
A2000000000A20
A2000000000A20
A2000000000A20
A2000000000A20
A2000000000A20
A2000000000A20
9DDDDDDDDDDE20
ENDCHAR
STARTCHAR uni20DF
ENCODING 8415
SWIDTH 0 0
DWIDTH 0 0
BBX 15 16 -10 -5
BITMAP
0000000200000000
0000009D30000000
00000982C3000000
000098002C300000
0009800002C30000
00980000002C3000
098000000002C300
9800000000002C30
7A00000000004C10
07A000000004C100
007A0000004C1000
0007A00004C10000
00007A004C100000
000007A4C1000000
0000007D10000000
0000000100000000
ENDCHAR
STARTCHAR uni20E1
ENCODING 8417
SWIDTH 0 0
DWIDTH 0 0
BBX 7 5 -6 6
BITMAP
00001000
17004400
9EDDDE10
17004400
00001000
ENDCHAR
STARTCHAR uni20E4
ENCODING 8420
SWIDTH 0 0
DWIDTH 0 0
BBX 19 15 -12 -2
BITMAP
00000000120000000000
000000008C0000000000
00000002DB6000000000
0000000B52E200000000
0000006B007A00000000
000001D2000C50000000
000009800003D1000000
00003D10000088000000
0000C40000001D300000
0006A000000004C00000
001D2000000000A70000
00A700000000001D2000
04C0000000000006A000
0D40000000000000B500
6EDDDDDDDDDDDDDDEC10
ENDCHAR
STARTCHAR uni20E5
ENCODING 8421
SWIDTH 0 0
DWIDTH 0 0
BBX 5 10 -5 -2
BITMAP
A00000
820000
280000
0A1000
056000
00A000
007300
001900
000910
000470
ENDCHAR
STARTCHAR uni20E6
ENCODING 8422
SWIDTH 0 0
DWIDTH 0 0
BBX 4 10 -5 -2
BITMAP
3609
3609
3609
3609
3609
3609
3609
3609
3609
3609
ENDCHAR
STARTCHAR uni20E7
ENCODING 8423
SWIDTH 0 0
DWIDTH 0 0
BBX 11 12 -8 -3
BITMAP
7DDDDDDDDD70
000000000580
000000000580
000000000580
000000000580
000000000580
000000000580
000000000580
000000000580
000000000580
000000000580
000000000230
ENDCHAR
STARTCHAR uni20E8
ENCODING 8424
SWIDTH 0 0
DWIDTH 0 0
BBX 7 1 -6 -3
BITMAP
933A0B20
ENDCHAR
STARTCHAR uni20E9
ENCODING 8425
SWIDTH 0 0
DWIDTH 0 0
BBX 7 2 -6 7
BITMAP
EDDDDD70
A0000280
ENDCHAR
STARTCHAR uni20EA
ENCODING 8426
SWIDTH 0 0
DWIDTH 0 0
BBX 10 5 -8 1
BITMAP
0030000000
0650000000
8FEDDDDDD8
0650000000
0030000000
ENDCHAR
STARTCHAR uni20EB
ENCODING 8427
SWIDTH 0 0
DWIDTH 0 0
BBX 9 12 -7 -3
BITMAP
0000090910
0000552800
0000A08200
000370A000
0009155000
00190A0000
0064370000
00A0820000
0461900000
0916400000
190A000000
7337000000
ENDCHAR
STARTCHAR uni20EC
ENCODING 8428
SWIDTH 0 0
DWIDTH 0 0
BBX 6 3 -6 -4
BITMAP
4DDDEB
000061
000010
ENDCHAR
STARTCHAR uni20ED
ENCODING 8429
SWIDTH 0 0
DWIDTH 0 0
BBX 6 3 -6 -4
BITMAP
5EDDDA
062000
001000
ENDCHAR
STARTCHAR uni20EE
ENCODING 8430
SWIDTH 0 0
DWIDTH 0 0
BBX 6 5 -6 -4
BITMAP
001000
061000
5FDDD9
071000
001000
ENDCHAR
STARTCHAR uni20EF
ENCODING 8431
SWIDTH 0 0
DWIDTH 0 0
BBX 6 5 -6 -4
BITMAP
000010
000062
3DDDEC
000062
000010
ENDCHAR
STARTCHAR uni20F0
ENCODING 8432
SWIDTH 0 0
DWIDTH 0 0
BBX 4 4 -5 6
BITMAP
0040
4788
28A5
2284
ENDCHAR
STARTCHAR uni2100
ENCODING 8448
SWIDTH 939 0
DWIDTH 11 0
BBX 11 9 0 0
BITMAP
000000004000
1BF900027000
381E00091000
054D00550000
680D0192CE70
4EBC872A4270
0000270C0000
0000910B5140
00055003DE40
ENDCHAR
STARTCHAR uni2101
ENCODING 8449
SWIDTH 936 0
DWIDTH 11 0
BBX 11 9 0 0
BITMAP
000000004000
1BF900027000
381E00091000
054D00550000
680D0194EC60
4EBC87266260
000027004510
0000910623A0
00055006CE60
ENDCHAR
STARTCHAR uni2102
ENCODING 8450
SWIDTH 695 0
DWIDTH 8 0
BBX 8 8 0 0
BITMAP
007DFD60
0AB20297
39800002
63800000
63800000
38800001
0AB20287
007DFC50
ENDCHAR
STARTCHAR uni2103
ENCODING 8451
SWIDTH 1028 0
DWIDTH 12 0
BBX 12 9 0 0
BITMAP
079600000000
4608205A8AF9
460835C10059
07960D500007
00001F300000
00001F300000
00000D600000
000006E20026
0000006CCB81
ENDCHAR
STARTCHAR uni2104
ENCODING 8452
SWIDTH 646 0
DWIDTH 8 0
BBX 8 9 0 0
BITMAP
05AA4000
00B80000
06EC9000
6CA78000
A7A70000
99A70000
2DEB7005
00B70065
05A988A2
ENDCHAR
STARTCHAR uni2105
ENCODING 8453
SWIDTH 953 0
DWIDTH 11 0
BBX 11 9 0 0
BITMAP
000000023000
09EB00091000
591A10550000
850001900000
6A111729ED30
1BFB375B15C0
0000907700E0
0005404B15C0
00190009ED30
ENDCHAR
STARTCHAR uni2106
ENCODING 8454
SWIDTH 1072 0
DWIDTH 13 0
BBX 13 9 0 0
BITMAP
00000000400000
08EC1007300000
491A2028000000
75000091000000
5B132454A05900
0AEA1900D01C00
00007200D01C00
00028000E24C00
000910009E6E40
ENDCHAR
STARTCHAR uni2107
ENCODING 8455
SWIDTH 612 0
DWIDTH 7 0
BBX 7 9 0 0
BITMAP
03ACA250
1EA339A0
3F100070
0D710000
04DFC000
5F610000
9C000040
5F611AB0
06CFD910
ENDCHAR
STARTCHAR uni2108
ENCODING 8456
SWIDTH 669 0
DWIDTH 8 0
BBX 8 8 0 0
BITMAP
47BDD810
4C2019B0
430700E3
000DEDF6
000800D5
000003F2
48203DA0
05CFD800
ENDCHAR
STARTCHAR uni2109
ENCODING 8457
SWIDTH 949 0
DWIDTH 11 0
BBX 12 9 0 0
BITMAP
079600000000
460849F989D2
460831F00032
079601F00620
000001F88D20
000001F00420
000001F00000
000001F10000
000018F82000
ENDCHAR
STARTCHAR uni210A
ENCODING 8458
SWIDTH 657 0
DWIDTH 8 0
BBX 9 9 -1 -3
BITMAP
00003DE600
0001A17A00
000A309500
006E00C200
038C04F850
472D28E000
103FA5B000
03B14D4000
03DFC50000
ENDCHAR
STARTCHAR uni210B
ENCODING 8459
SWIDTH 951 0
DWIDTH 11 0
BBX 12 8 0 0
BITMAP
00458D2006E9
075069006724
08309601B000
0000C87A8000
0001C00A4000
0005700C2000
7209000C7600
69610005A400
ENDCHAR
STARTCHAR uni210C
ENCODING 8460
SWIDTH 728 0
DWIDTH 9 0
BBX 9 11 0 -3
BITMAP
0005313000
005BFB1000
02A0020000
05D17ED300
02FB10BD00
007F203F20
030C302F10
2DD7005B00
215000A200
007EB83000
0141810000
ENDCHAR
STARTCHAR uni210D
ENCODING 8461
SWIDTH 715 0
DWIDTH 9 0
BBX 8 8 0 0
BITMAP
2EB003DA
26800448
26800448
26800448
26ADDE48
26800448
26800448
2EB003DA
ENDCHAR
STARTCHAR uni210E
ENCODING 8462
SWIDTH 569 0
DWIDTH 7 0
BBX 7 9 0 0
BITMAP
03720000
00D20000
01D00000
04A2CD00
07792E00
0AA13B00
0E407700
2D00B530
4800BC10
ENDCHAR
STARTCHAR uni210F
ENCODING 8463
SWIDTH 569 0
DWIDTH 7 0
BBX 7 9 0 0
BITMAP
03720000
00D24000
15E73000
26A2CD00
08792E00
0BA13B00
0E407700
2D00B530
5800BC10
ENDCHAR
STARTCHAR uni2110
ENCODING 8464
SWIDTH 496 0
DWIDTH 6 0
BBX 7 8 0 0
BITMAP
006BEB10
08828600
0D10B300
0200E000
0003C000
00087000
734C1000
8EB20000
ENDCHAR
STARTCHAR uni2111
ENCODING 8465
SWIDTH 673 0
DWIDTH 8 0
BBX 8 8 0 -1
BITMAP
03DEA314
0C229EC1
0C100BE2
07E52F20
00000C60
2CD205E0
21EA17E0
004DFC40
ENDCHAR
STARTCHAR uni2112
ENCODING 8466
SWIDTH 699 0
DWIDTH 8 0
BBX 8 8 0 0
BITMAP
0003CFA0
000D54E0
005C0000
00980000
00D20000
06500023
7BC82191
6017DE70
ENDCHAR
STARTCHAR uni2113
ENCODING 8467
SWIDTH 529 0
DWIDTH 6 0
BBX 7 8 0 0
BITMAP
0003DD00
001D3810
00960400
02C12000
3A510000
0C003000
1D192000
0BE40000
ENDCHAR
STARTCHAR uni2114
ENCODING 8468
SWIDTH 787 0
DWIDTH 9 0
BBX 9 9 0 0
BITMAP
3623710000
0C30E20000
BFFFFFF300
0C30D5DD40
0C30D618C0
0C30D202F0
0C30D202E0
0C40D40890
8EE25DEA10
ENDCHAR
STARTCHAR uni2115
ENCODING 8469
SWIDTH 692 0
DWIDTH 8 0
BBX 8 8 0 0
BITMAP
2DB00017
28580017
2A585017
25839317
250A2A27
2502A297
25004A37
250007D7
ENDCHAR
STARTCHAR uni2116
ENCODING 8470
SWIDTH 1070 0
DWIDTH 13 0
BBX 13 9 0 0
BITMAP
010000019B1000
009B00081A1000
00897009000000
0082D30908EC10
00815D192C1860
00810B992C1860
008002FA09EB10
9280008A000000
9A300017199920
ENDCHAR
STARTCHAR uni2117
ENCODING 8471
SWIDTH 781 0
DWIDTH 9 0
BBX 9 9 0 0
BITMAP
005CED8000
05A3027A00
094FFD3550
340A379080
5209368070
440ADB2080
094ED00550
06A3027A00
005CFD8000
ENDCHAR
STARTCHAR uni2118
ENCODING 8472
SWIDTH 846 0
DWIDTH 10 0
BBX 10 10 0 -3
BITMAP
007ED30000
08D304BED4
2F207F718B
5C05F4005B
3C2E500089
07D90730D4
04DA4D28B0
0A6597EA10
0D3B600000
09E8000000
ENDCHAR
STARTCHAR uni2119
ENCODING 8473
SWIDTH 665 0
DWIDTH 8 0
BBX 8 8 0 0
BITMAP
2EEDDC60
26800894
26800827
26800884
26ADDC60
26800000
26800000
2EB00000
ENDCHAR
STARTCHAR uni211A
ENCODING 8474
SWIDTH 751 0
DWIDTH 9 0
BBX 9 9 0 -1
BITMAP
007DFD7000
09B313B900
3B80008B20
6480008460
6280008270
3380008440
0380008800
0013E86300
0010009F50
ENDCHAR
STARTCHAR uni211B
ENCODING 8475
SWIDTH 789 0
DWIDTH 9 0
BBX 9 10 0 0
BITMAP
0000030000
0018DFD910
02C5973D60
0A80B40970
0730E10C20
0002E58300
0005AA6000
000945B000
812801F640
8850007910
ENDCHAR
STARTCHAR uni211C
ENCODING 8476
SWIDTH 778 0
DWIDTH 9 0
BBX 9 9 0 -1
BITMAP
1BEA1BD400
6B2EA1AC00
4D2AA07B00
08B9B2B200
0679B8E100
030A51F500
031B10F700
1DE500CD50
1150002400
ENDCHAR
STARTCHAR uni211D
ENCODING 8477
SWIDTH 729 0
DWIDTH 9 0
BBX 9 8 0 0
BITMAP
2EEDDC7000
2680088500
2680081700
2680089300
26ADDE5000
2681938000
26802A3500
2EB005DD20
ENDCHAR
STARTCHAR uni211E
ENCODING 8478
SWIDTH 725 0
DWIDTH 9 0
BBX 9 9 0 -1
BITMAP
5CDAA81000
08900C8000
089009A000
08915E4000
08FFD20000
0892C91500
09A01CC100
8EEA44EE20
0001500000
ENDCHAR
STARTCHAR uni211F
ENCODING 8479
SWIDTH 659 0
DWIDTH 8 0
BBX 8 13 0 -3
BITMAP
00078200
00031700
4CDAC800
06B09E60
06B18A80
06B64D30
06DDD200
06E5CA00
08D02EA0
7EEC05ED
06200000
06270000
00780000
ENDCHAR
STARTCHAR uni2120
ENCODING 8480
SWIDTH 937 0
DWIDTH 11 0
BBX 11 5 0 3
BITMAP
3DD78E301EB0
46160DB07D20
034107D3AA20
611B076E4A20
7CE88E3A4EB0
ENDCHAR
STARTCHAR uni2121
ENCODING 8481
SWIDTH 1200 0
DWIDTH 14 0
BBX 14 5 0 3
BITMAP
BFFF9DFFF5EF20
10C01391616700
00C003FF715600
00D00491456718
09E80CEEE5EEED
ENDCHAR
STARTCHAR trademark
ENCODING 8482
SWIDTH 881 0
DWIDTH 11 0
BBX 11 4 0 3
BITMAP
98C96E507D20
229018D29A00
02A0079D3A00
0BE36E489E40
ENDCHAR
STARTCHAR uni2123
ENCODING 8483
SWIDTH 680 0
DWIDTH 8 0
BBX 10 13 -1 -3
BITMAP
0000782000
0000317000
2FFF13AFF4
04F6071960
00AA080A00
003F734600
000BB09100
0006E28000
0008DB2000
00266A0000
0071010000
0070800000
0017800000
ENDCHAR
STARTCHAR uni2124
ENCODING 8484
SWIDTH 648 0
DWIDTH 8 0
BBX 8 8 0 0
BITMAP
3DDDDED9
00005583
00037550
00183700
00828000
07291000
54820000
BDEDDDD7
ENDCHAR
STARTCHAR uni2125
ENCODING 8485
SWIDTH 434 0
DWIDTH 5 0
BBX 5 11 0 -3
BITMAP
7FFF70
525300
2DFF80
004B00
04D100
024C30
0007A0
0006C0
000890
452E30
5ED500
ENDCHAR
STARTCHAR uni2126
ENCODING 8486
SWIDTH 763 0
DWIDTH 9 0
BBX 9 9 0 -1
BITMAP
007DFD9100
0AE413CC00
2F50002F50
5F20000E70
2F40001F40
09B0009B00
4059085040
AEED0AEEC0
1221012210
ENDCHAR
STARTCHAR uni2127
ENCODING 8487
SWIDTH 763 0
DWIDTH 9 0
BBX 9 8 0 0
BITMAP
9EEC0AEEB0
623A094270
06C101B900
2F40002F40
5F10000E70
3F40002F50
0BD313CC00
008DFD9100
ENDCHAR
STARTCHAR uni2128
ENCODING 8488
SWIDTH 641 0
DWIDTH 8 0
BBX 8 11 0 -3
BITMAP
005DEA10
03813D90
060006D0
000007B0
00432D40
000BF900
00521B90
000004F1
1CD103F2
22F819C0
006EEA20
ENDCHAR
STARTCHAR uni2129
ENCODING 8489
SWIDTH 368 0
DWIDTH 4 0
BBX 4 6 0 0
BITMAP
2ED1
54F5
02F6
02F6
02F6
02F6
ENDCHAR
STARTCHAR uni212A
ENCODING 8490
SWIDTH 702 0
DWIDTH 8 0
BBX 9 8 0 0
BITMAP
3CE51BD600
06A01A2000
06A1910000
06BA100000
06CC700000
06A1D70000
06B01D7000
3BE51AFA20
ENDCHAR
STARTCHAR uni212B
ENCODING 8491
SWIDTH 722 0
DWIDTH 9 0
BBX 9 10 0 0
BITMAP
0009E30000
0009370000
0007920000
0006E10000
000AB80000
00655E1000
00B00D8000
06EDDEE100
1C1001E900
DE8008EE80
ENDCHAR
STARTCHAR uni212C
ENCODING 8492
SWIDTH 754 0
DWIDTH 9 0
BBX 9 9 0 0
BITMAP
0000130000
006CFFFC30
0AB4C42C50
0A10E14600
0003FFE900
0007704F30
000A100D10
0173016700
5EEDDB5000
ENDCHAR
STARTCHAR uni212D
ENCODING 8493
SWIDTH 639 0
DWIDTH 8 0
BBX 8 8 0 0
BITMAP
03C87C71
1E447840
5D096000
7C05D100
6D00B800
3F309A00
0BDAD760
01AEE700
ENDCHAR
STARTCHAR estimated
ENCODING 8494
SWIDTH 863 0
DWIDTH 10 0
BBX 10 9 0 -1
BITMAP
003AEFC500
05D6113A80
1E300000D4
6F300000CA
8FFFFFFFFD
6F30000000
2E30000010
05C5213890
002AEEC600
ENDCHAR
STARTCHAR uni212F
ENCODING 8495
SWIDTH 527 0
DWIDTH 6 0
BBX 7 6 -1 0
BITMAP
0003CE40
002E5840
00A81400
02E31020
15E32940
007ED400
ENDCHAR
STARTCHAR uni2130
ENCODING 8496
SWIDTH 572 0
DWIDTH 7 0
BBX 7 8 0 0
BITMAP
005CFD50
01F40790
00C40000
017EF000
2D620000
8A000200
7D216B00
1AEEA100
ENDCHAR
STARTCHAR uni2131
ENCODING 8497
SWIDTH 713 0
DWIDTH 9 0
BBX 10 9 0 0
BITMAP
0000033111
005BEFFFB1
07C33D0000
0630690000
0007CA7200
0000D20000
0003B00000
7109200000
7861000000
ENDCHAR
STARTCHAR uni2132
ENCODING 8498
SWIDTH 588 0
DWIDTH 7 0
BBX 7 9 0 0
BITMAP
0005A940
0000A700
0000A700
0700A700
0BEDE700
0800A700
3000A700
9100A700
8A889940
ENDCHAR
STARTCHAR uni2133
ENCODING 8499
SWIDTH 1038 0
DWIDTH 12 0
BBX 13 8 0 0
BITMAP
01AEA00002AEB0
0625F7003DE270
00049D01C89000
00081F0A3A6000
00080E680D2000
00180CD11E0000
91920C804E2300
CE600C202EB100
ENDCHAR
STARTCHAR uni2134
ENCODING 8500
SWIDTH 691 0
DWIDTH 8 0
BBX 10 6 -1 0
BITMAP
00005DD100
0005B1C933
003E308FB1
04DF006A00
481F33E300
0008ED4000
ENDCHAR
STARTCHAR uni2135
ENCODING 8501
SWIDTH 698 0
DWIDTH 8 0
BBX 8 9 0 0
BITMAP
22000310
6B0007A0
2FA002E7
05FB00AB
0A9FB353
3F04EE30
1D502DC1
03E201CA
4EC10018
ENDCHAR
STARTCHAR uni2136
ENCODING 8502
SWIDTH 654 0
DWIDTH 8 0
BBX 7 10 0 -1
BITMAP
02000000
0C000000
0CFFEB10
00234C70
00000590
00000380
00000450
00000530
09EFFFC0
14333200
ENDCHAR
STARTCHAR uni2137
ENCODING 8503
SWIDTH 517 0
DWIDTH 6 0
BBX 6 9 0 0
BITMAP
012000
069000
02EF60
001790
000270
000260
0006C0
0029D8
2CD238
ENDCHAR
STARTCHAR uni2138
ENCODING 8504
SWIDTH 613 0
DWIDTH 7 0
BBX 6 9 0 -1
BITMAP
260000
3FFFFB
01233B
000076
0000B5
0000B8
0000AA
0000A8
000040
ENDCHAR
STARTCHAR uni2139
ENCODING 8505
SWIDTH 361 0
DWIDTH 4 0
BBX 5 9 0 0
BITMAP
011000
0DF300
0CE200
58A200
1EF300
0DF300
0DF300
0EF400
BEEE20
ENDCHAR
STARTCHAR uni213A
ENCODING 8506
SWIDTH 907 0
DWIDTH 11 0
BBX 11 8 0 0
BITMAP
007DFD910070
0A82026B1290
390000049D60
63000000EC10
64000000A000
380000047000
0A82016C1000
007DFD910000
ENDCHAR
STARTCHAR uni213B
ENCODING 8507
SWIDTH 1216 0
DWIDTH 15 0
BBX 15 5 0 3
BITMAP
8EDD80C407E86E50
0C05149B008C8300
0DDC0A0D300BA000
0C003EDEB074A800
8E90D908EEE29E70
ENDCHAR
STARTCHAR uni213C
ENCODING 8508
SWIDTH 689 0
DWIDTH 8 0
BBX 8 6 0 0
BITMAP
BFFFFFF8
08538800
08538800
08538800
08538827
09F35BD3
ENDCHAR
STARTCHAR uni213D
ENCODING 8509
SWIDTH 552 0
DWIDTH 7 0
BBX 7 9 0 -3
BITMAP
38100330
94900A00
09478300
01978000
00568000
002C8000
00778200
0087C100
003E9000
ENDCHAR
STARTCHAR uni213E
ENCODING 8510
SWIDTH 550 0
DWIDTH 7 0
BBX 7 8 0 0
BITMAP
2EEDDD70
26800000
26800000
26800000
26800000
26800000
26800000
2EB00000
ENDCHAR
STARTCHAR uni213F
ENCODING 8511
SWIDTH 714 0
DWIDTH 9 0
BBX 8 8 0 0
BITMAP
2EEDDDDA
26800448
26800448
26800448
26800448
26800448
26800448
2EB004DA
ENDCHAR
STARTCHAR uni2140
ENCODING 8512
SWIDTH 945 0
DWIDTH 11 0
BBX 11 13 0 -3
BITMAP
3EDEDDDDD600
1B1570000000
0480A2000000
00A32A000000
001B07500000
000660B10000
0000C0660000
000660B10000
001B08500000
00932A000000
0480B2000000
1B1660000000
3EDEDDDDDDB0
ENDCHAR
STARTCHAR uni2141
ENCODING 8513
SWIDTH 711 0
DWIDTH 9 0
BBX 9 9 0 0
BITMAP
07DFEA3000
3F4018E300
3D00008C00
3D00001F10
3FF2000E30
0000001F10
0400007C00
0D5117E300
02BEEB3000
ENDCHAR
STARTCHAR uni2142
ENCODING 8514
SWIDTH 572 0
DWIDTH 7 0
BBX 6 8 0 0
BITMAP
AEEEEE
00002E
00002E
00002E
00002E
00002E
00002E
00002D
ENDCHAR
STARTCHAR uni2143
ENCODING 8515
SWIDTH 572 0
DWIDTH 7 0
BBX 6 9 0 0
BITMAP
000001
00002E
00002E
00002E
00002E
00002E
00002E
00002E
AEEEEE
ENDCHAR
STARTCHAR uni2144
ENCODING 8516
SWIDTH 645 0
DWIDTH 8 0
BBX 8 8 0 0
BITMAP
000A6000
000A6000
000A6000
000B7000
005CD200
01D26B00
0B700B70
6B0002D2
ENDCHAR
STARTCHAR uni2145
ENCODING 8517
SWIDTH 717 0
DWIDTH 9 0
BBX 9 8 0 0
BITMAP
04DEDD8100
0738008A00
0935008910
0971009720
2680018710
5380055700
73501A8100
ADDDC81000
ENDCHAR
STARTCHAR uni2146
ENCODING 8518
SWIDTH 607 0
DWIDTH 7 0
BBX 8 9 0 0
BITMAP
000006F8
00000935
00000962
05DE7880
3BA1B590
83707380
94409550
7B17A820
1BE8FE00
ENDCHAR
STARTCHAR uni2147
ENCODING 8519
SWIDTH 520 0
DWIDTH 6 0
BBX 6 6 0 0
BITMAP
04CFA1
2891A8
846269
96FFFA
7C1162
1AED70
ENDCHAR
STARTCHAR uni2148
ENCODING 8520
SWIDTH 285 0
DWIDTH 3 0
BBX 4 9 0 0
BITMAP
04D8
0637
07D5
0CE1
1880
4580
6470
8540
BE10
ENDCHAR
STARTCHAR uni2149
ENCODING 8521
SWIDTH 284 0
DWIDTH 3 0
BBX 6 11 -2 -3
BITMAP
0005F9
0008F6
000000
000DF1
002970
005670
009450
00B520
01B700
148500
AE5100
ENDCHAR
STARTCHAR uni214A
ENCODING 8522
SWIDTH 680 0
DWIDTH 8 0
BBX 8 9 0 0
BITMAP
00250000
00490000
6DEEDC60
754901B3
75490075
334901C3
004EDD60
00490000
003EDDB0
ENDCHAR
STARTCHAR uni214B
ENCODING 8523
SWIDTH 736 0
DWIDTH 9 0
BBX 9 8 0 0
BITMAP
2CE53CFC20
314DA11B80
0045C40A40
03B02D7300
3FF77E9000
000482E000
000662E000
0002DE6000
ENDCHAR
STARTCHAR uni214C
ENCODING 8524
SWIDTH 794 0
DWIDTH 10 0
BBX 9 8 0 0
BITMAP
3ED21BED50
82888419F0
34BFE724D0
0C8874AB30
015FFB5700
0086700410
0078900000
003E800000
ENDCHAR
STARTCHAR uni214D
ENCODING 8525
SWIDTH 1010 0
DWIDTH 12 0
BBX 12 9 0 0
BITMAP
000000000500
00A400005400
038C00019000
091C40082000
2FFFC0374EB6
CA07E7906500
000005400230
000019007149
000082008DE6
ENDCHAR
STARTCHAR uni214E
ENCODING 8526
SWIDTH 473 0
DWIDTH 6 0
BBX 5 7 0 0
BITMAP
000440
000880
000880
0DEE80
000880
000880
5EEE80
ENDCHAR
STARTCHAR uni214F
ENCODING 8527
SWIDTH 1161 0
DWIDTH 14 0
BBX 14 6 0 0
BITMAP
00BE22DC05E800
047578384A1C00
046288364B0900
01D755BA195B00
00BE21DC14F910
BEA9EEABEE9BEA
ENDCHAR
STARTCHAR onethird
ENCODING 8531
SWIDTH 899 0
DWIDTH 11 0
BBX 11 9 0 0
BITMAP
000000090000
2A6000720000
076001800000
07600816A600
076037130D00
288290001A00
00055002B800
000900000A40
0073002B6800
ENDCHAR
STARTCHAR twothirds
ENCODING 8532
SWIDTH 948 0
DWIDTH 11 0
BBX 11 9 0 0
BITMAP
000000055000
39B800090000
001D00730000
006711808B20
064518151590
7CCC37010750
000090006C40
0004500001D0
000900079650
ENDCHAR
STARTCHAR uni2155
ENCODING 8533
SWIDTH 867 0
DWIDTH 10 0
BBX 10 9 0 0
BITMAP
0000000900
3B60007200
0760018000
0760081000
0760370BC9
2882902DB4
000550001C
0009000009
0073005A64
ENDCHAR
STARTCHAR uni2156
ENCODING 8534
SWIDTH 916 0
DWIDTH 11 0
BBX 11 9 0 0
BITMAP
000000055000
29B800090000
101D00730000
008601800000
19431814CC40
8CCD3707C910
000090000670
000450000360
0009000A7710
ENDCHAR
STARTCHAR uni2157
ENCODING 8535
SWIDTH 896 0
DWIDTH 11 0
BBX 11 9 0 0
BITMAP
000000081000
39C600360000
106500900000
059805400000
000D0906CC10
5862730AC700
000180000A30
000810000720
0037001B6600
ENDCHAR
STARTCHAR uni2158
ENCODING 8536
SWIDTH 929 0
DWIDTH 11 0
BBX 11 9 0 0
BITMAP
000000046000
006900090000
049900640000
274901900000
7BCD5722DD60
00132805CA20
000081000490
000360000190
000900098720
ENDCHAR
STARTCHAR uni2159
ENCODING 8537
SWIDTH 871 0
DWIDTH 10 0
BBX 10 9 0 0
BITMAP
0000000900
3A60007200
0760018000
0760081023
0760371940
2662907A95
000550A40D
000900930C
0073002967
ENDCHAR
STARTCHAR uni215A
ENCODING 8538
SWIDTH 871 0
DWIDTH 10 0
BBX 10 9 0 0
BITMAP
0000000900
1DC7006300
4DB3018000
002A081164
3118271B20
4750908A95
000450A40D
000900930C
0063002967
ENDCHAR
STARTCHAR oneeighth
ENCODING 8539
SWIDTH 887 0
DWIDTH 11 0
BBX 11 9 0 0
BITMAP
000000090000
2A6000720000
076001800000
076008165400
076037570A00
2882902C5700
00055009D800
000900751C20
007300385800
ENDCHAR
STARTCHAR threeeighths
ENCODING 8540
SWIDTH 911 0
DWIDTH 11 0
BBX 11 9 0 0
BITMAP
000000081000
39C600360000
106500900000
059805445600
100D091C0740
5962730C6810
00018006DB10
0008102A0870
003700195830
ENDCHAR
STARTCHAR fiveeighths
ENCODING 8541
SWIDTH 891 0
DWIDTH 11 0
BBX 11 9 0 0
BITMAP
000000090000
1DC700630000
4DB301800000
002A08265400
201927480A00
6961902C5700
00045009D900
000900660C30
006300285810
ENDCHAR
STARTCHAR seveneighths
ENCODING 8542
SWIDTH 847 0
DWIDTH 10 0
BBX 10 9 0 0
BITMAP
0000007200
8CCC028000
3045091000
0090364560
074090C055
070540A881
0019005CD2
007201B079
0280008574
ENDCHAR
STARTCHAR uni2190
ENCODING 8592
SWIDTH 948 0
DWIDTH 11 0
BBX 10 5 1 1
BITMAP
0060000000
1920000000
CFDDDDDDD7
1920000000
0060000000
ENDCHAR
STARTCHAR uni2191
ENCODING 8593
SWIDTH 523 0
DWIDTH 6 0
BBX 6 10 0 -2
BITMAP
003700
01CF30
186972
004801
004800
004800
004800
004800
004800
004800
ENDCHAR
STARTCHAR uni2192
ENCODING 8594
SWIDTH 948 0
DWIDTH 11 0
BBX 11 5 0 1
BITMAP
000000042000
000000009300
2DDDDDDDEE30
000000009300
000000052000
ENDCHAR
STARTCHAR uni2193
ENCODING 8595
SWIDTH 523 0
DWIDTH 6 0
BBX 6 10 0 -2
BITMAP
004800
004800
004800
004800
004800
004800
004800
175963
01CF30
003800
ENDCHAR
STARTCHAR uni2194
ENCODING 8596
SWIDTH 948 0
DWIDTH 11 0
BBX 11 5 0 1
BITMAP
002400015000
049000005700
4FEDDDDDEF80
038000004700
002400015000
ENDCHAR
STARTCHAR uni2195
ENCODING 8597
SWIDTH 523 0
DWIDTH 6 0
BBX 6 12 0 -3
BITMAP
000300
007C00
05BC80
134823
004800
004800
004800
004800
004800
185973
01CF30
003800
ENDCHAR
STARTCHAR uni2196
ENCODING 8598
SWIDTH 948 0
DWIDTH 11 0
BBX 11 12 0 -3
BITMAP
141000000000
0EFF90000000
0CD100000000
075A00000000
0606A0000000
000079000000
000008900000
000000980000
000000097000
00000000A600
000000000B40
000000000100
ENDCHAR
STARTCHAR uni2197
ENCODING 8599
SWIDTH 948 0
DWIDTH 11 0
BBX 10 12 1 -3
BITMAP
0000000133
000003EFF5
00000008F2
0000006A61
000005B041
00004B1000
0004C10000
003C100000
03C2000000
2C20000000
C300000000
1000000000
ENDCHAR
STARTCHAR uni2198
ENCODING 8600
SWIDTH 948 0
DWIDTH 11 0
BBX 10 11 1 -3
BITMAP
8000000000
7900000000
0790000000
0078000000
0007700000
0000760000
0000075021
0000006451
00000008B2
000003EFF4
0000000133
ENDCHAR
STARTCHAR uni2199
ENCODING 8601
SWIDTH 948 0
DWIDTH 11 0
BBX 11 11 0 -3
BITMAP
000000000530
000000004B10
00000004B100
0000003A1000
000002A10000
00002A100000
030191000000
061910000000
0AA100000000
0EFE80000000
151000000000
ENDCHAR
STARTCHAR uni219A
ENCODING 8602
SWIDTH 948 0
DWIDTH 11 0
BBX 11 6 0 1
BITMAP
000000001000
001700074000
01A1001A0000
1DFCCCEDCC80
019103800000
000609100000
ENDCHAR
STARTCHAR uni219B
ENCODING 8603
SWIDTH 948 0
DWIDTH 11 0
BBX 11 6 0 1
BITMAP
000001000000
00000A144000
000056008400
3CCCECCCEF50
000740008400
001900043000
ENDCHAR
STARTCHAR uni219C
ENCODING 8604
SWIDTH 948 0
DWIDTH 11 0
BBX 10 5 1 1
BITMAP
0001000000
DC84000000
8F6128EE90
54AEE82185
3300000000
ENDCHAR
STARTCHAR uni219D
ENCODING 8605
SWIDTH 948 0
DWIDTH 11 0
BBX 10 5 1 1
BITMAP
0000010000
0000027BD5
5DEA413CE0
A316CEC570
0000000050
ENDCHAR
STARTCHAR uni219E
ENCODING 8606
SWIDTH 948 0
DWIDTH 11 0
BBX 10 5 1 1
BITMAP
0060340000
1924800000
CFDFEDDDD7
1924800000
0070340000
ENDCHAR
STARTCHAR uni219F
ENCODING 8607
SWIDTH 523 0
DWIDTH 6 0
BBX 6 10 0 -2
BITMAP
003700
01CF30
186973
007B01
04BC70
144823
004800
004800
004800
004800
ENDCHAR
STARTCHAR uni21A0
ENCODING 8608
SWIDTH 948 0
DWIDTH 11 0
BBX 11 5 0 1
BITMAP
000016052000
000004809300
2DDDDEFEEF30
000004809300
000016042000
ENDCHAR
STARTCHAR uni21A1
ENCODING 8609
SWIDTH 523 0
DWIDTH 6 0
BBX 6 10 0 -2
BITMAP
004800
004800
004800
004800
144823
05BC70
008C00
185963
01CF30
003800
ENDCHAR
STARTCHAR uni21A2
ENCODING 8610
SWIDTH 948 0
DWIDTH 11 0
BBX 10 5 1 1
BITMAP
0060000033
1920000570
CFDDDDDF30
1920000570
0070000033
ENDCHAR
STARTCHAR uni21A3
ENCODING 8611
SWIDTH 948 0
DWIDTH 11 0
BBX 10 5 1 1
BITMAP
6000005200
3800000930
0DEDDDDEF3
3800000930
6000004200
ENDCHAR
STARTCHAR uni21A4
ENCODING 8612
SWIDTH 948 0
DWIDTH 11 0
BBX 10 5 1 1
BITMAP
0070000018
1A10000018
CFDDDDDDD8
1920000018
0060000017
ENDCHAR
STARTCHAR uni21A5
ENCODING 8613
SWIDTH 523 0
DWIDTH 6 0
BBX 6 10 0 -2
BITMAP
003800
01DF30
185863
004800
004800
004800
004800
004800
004800
3DDED7
ENDCHAR
ENDFONT
